STARTFONT 2.1
COMMENT
COMMENT Converted from OpenType font "UbuntuMono-Bold.ttf" by "otf2bdf 3.0".
COMMENT
FONT -FreeType-Ubuntu Mono-Bold-R-Normal--22-160-100-100-P-100-ISO10646-1
SIZE 16 100 100
FONTBOUNDINGBOX 23 23 -8 -4
STARTPROPERTIES 19
FOUNDRY "FreeType"
FAMILY_NAME "Ubuntu Mono"
WEIGHT_NAME "Bold"
SLANT "R"
SETWIDTH_NAME "Normal"
ADD_STYLE_NAME ""
PIXEL_SIZE 22
POINT_SIZE 160
RESOLUTION_X 100
RESOLUTION_Y 100
SPACING "P"
AVERAGE_WIDTH 100
CHARSET_REGISTRY "ISO10646"
CHARSET_ENCODING "1"
FONT_ASCENT 18
FONT_DESCENT 3
COPYRIGHT "Copyright 2011 Canonical Ltd.  Licensed under the Ubuntu Font Licence 1.0"
_OTF_FONTFILE "UbuntuMono-Bold.ttf"
_OTF_PSNAME "UbuntuMono-Bold"
ENDPROPERTIES
CHARS 1224
STARTCHAR 0000
ENCODING 0
SWIDTH 495 0
DWIDTH 11 0
BBX 0 0 0 0
BITMAP
ENDCHAR
STARTCHAR 0008
ENCODING 8
SWIDTH 495 0
DWIDTH 11 0
BBX 0 0 0 0
BITMAP
ENDCHAR
STARTCHAR 0009
ENCODING 9
SWIDTH 495 0
DWIDTH 11 0
BBX 0 0 0 0
BITMAP
ENDCHAR
STARTCHAR 000D
ENCODING 13
SWIDTH 495 0
DWIDTH 11 0
BBX 0 0 0 0
BITMAP
ENDCHAR
STARTCHAR 001D
ENCODING 29
SWIDTH 495 0
DWIDTH 11 0
BBX 0 0 0 0
BITMAP
ENDCHAR
STARTCHAR 0020
ENCODING 32
SWIDTH 495 0
DWIDTH 11 0
BBX 0 0 0 0
BITMAP
ENDCHAR
STARTCHAR 0021
ENCODING 33
SWIDTH 495 0
DWIDTH 11 0
BBX 3 14 4 0
BITMAP
E0
E0
E0
E0
E0
E0
E0
E0
E0
00
00
E0
E0
E0
ENDCHAR
STARTCHAR 0022
ENCODING 34
SWIDTH 495 0
DWIDTH 11 0
BBX 7 6 2 9
BITMAP
EE
EE
EE
EE
C6
C6
ENDCHAR
STARTCHAR 0023
ENCODING 35
SWIDTH 495 0
DWIDTH 11 0
BBX 11 14 0 0
BITMAP
0CC0
1DC0
1980
FFE0
FFE0
1980
3B80
3B80
3300
FFE0
FFE0
3300
7700
6600
ENDCHAR
STARTCHAR 0024
ENCODING 36
SWIDTH 495 0
DWIDTH 11 0
BBX 9 17 1 -2
BITMAP
1C00
1C00
3F80
7F80
E000
E000
F000
7C00
3F00
0F80
0380
0380
C380
FF00
7E00
1C00
1C00
ENDCHAR
STARTCHAR 0025
ENCODING 37
SWIDTH 495 0
DWIDTH 11 0
BBX 11 14 0 0
BITMAP
7060
78C0
F980
D980
DB00
7E00
7600
0DC0
0FC0
1B60
3360
3360
63C0
C1C0
ENDCHAR
STARTCHAR 0026
ENCODING 38
SWIDTH 495 0
DWIDTH 11 0
BBX 10 14 0 0
BITMAP
1E00
3F00
7300
7300
3700
3E00
3CC0
7CC0
6EC0
67C0
E380
6380
7FC0
3EC0
ENDCHAR
STARTCHAR 0027
ENCODING 39
SWIDTH 495 0
DWIDTH 11 0
BBX 3 7 4 8
BITMAP
E0
E0
E0
E0
E0
60
40
ENDCHAR
STARTCHAR 0028
ENCODING 40
SWIDTH 495 0
DWIDTH 11 0
BBX 7 20 2 -4
BITMAP
04
0E
1C
38
70
70
60
E0
E0
E0
E0
E0
E0
60
60
70
38
1C
0E
04
ENDCHAR
STARTCHAR 0029
ENCODING 41
SWIDTH 495 0
DWIDTH 11 0
BBX 7 20 2 -4
BITMAP
40
E0
70
38
1C
1C
0C
0E
0E
0E
0E
0E
0E
0E
0C
1C
38
70
E0
40
ENDCHAR
STARTCHAR 002A
ENCODING 42
SWIDTH 495 0
DWIDTH 11 0
BBX 9 8 1 6
BITMAP
1C00
5D00
EB80
FF80
1C00
3600
7700
2200
ENDCHAR
STARTCHAR 002B
ENCODING 43
SWIDTH 495 0
DWIDTH 11 0
BBX 9 10 1 0
BITMAP
1C00
1C00
1C00
1C00
FF80
FF80
1C00
1C00
1C00
1C00
ENDCHAR
STARTCHAR 002C
ENCODING 44
SWIDTH 495 0
DWIDTH 11 0
BBX 5 8 3 -4
BITMAP
70
78
78
78
30
70
E0
C0
ENDCHAR
STARTCHAR 002D
ENCODING 45
SWIDTH 495 0
DWIDTH 11 0
BBX 7 3 2 4
BITMAP
FE
FE
FE
ENDCHAR
STARTCHAR 002E
ENCODING 46
SWIDTH 495 0
DWIDTH 11 0
BBX 3 4 4 0
BITMAP
E0
E0
E0
E0
ENDCHAR
STARTCHAR 002F
ENCODING 47
SWIDTH 495 0
DWIDTH 11 0
BBX 9 19 1 -4
BITMAP
0380
0300
0700
0700
0700
0E00
0E00
0E00
1C00
1C00
1C00
3800
3800
3800
7000
7000
7000
6000
E000
ENDCHAR
STARTCHAR 0030
ENCODING 48
SWIDTH 495 0
DWIDTH 11 0
BBX 9 14 1 0
BITMAP
3E00
7F00
6300
E380
C180
C980
DD80
C980
C180
C180
E380
6300
7F00
3E00
ENDCHAR
STARTCHAR 0031
ENCODING 49
SWIDTH 495 0
DWIDTH 11 0
BBX 9 14 1 0
BITMAP
0C00
1C00
7C00
FC00
6C00
0C00
0C00
0C00
0C00
0C00
0C00
0C00
7F80
7F80
ENDCHAR
STARTCHAR 0032
ENCODING 50
SWIDTH 495 0
DWIDTH 11 0
BBX 9 14 1 0
BITMAP
3C00
FF00
4700
0380
0380
0700
0F00
1E00
3C00
7800
7000
E000
FF80
FF80
ENDCHAR
STARTCHAR 0033
ENCODING 51
SWIDTH 495 0
DWIDTH 11 0
BBX 9 14 1 0
BITMAP
7C00
FF00
4700
0300
0300
0700
3E00
3F00
0780
0380
0380
8380
FF00
FE00
ENDCHAR
STARTCHAR 0034
ENCODING 52
SWIDTH 495 0
DWIDTH 11 0
BBX 9 14 1 0
BITMAP
0700
0F00
0F00
1F00
3F00
3700
6700
E700
C700
FF80
FF80
0700
0700
0700
ENDCHAR
STARTCHAR 0035
ENCODING 53
SWIDTH 495 0
DWIDTH 11 0
BBX 9 14 1 0
BITMAP
7F00
7F00
7000
7000
6000
7C00
7F00
0700
0380
0380
0380
8700
FF00
FC00
ENDCHAR
STARTCHAR 0036
ENCODING 54
SWIDTH 495 0
DWIDTH 11 0
BBX 9 14 1 0
BITMAP
0700
1F00
3C00
7000
6000
FE00
FF00
E380
E380
E380
E380
6380
7F00
3E00
ENDCHAR
STARTCHAR 0037
ENCODING 55
SWIDTH 495 0
DWIDTH 11 0
BBX 9 14 1 0
BITMAP
FF80
FF80
0380
0700
0600
0E00
0C00
1C00
1C00
1800
3800
3800
3800
3800
ENDCHAR
STARTCHAR 0038
ENCODING 56
SWIDTH 495 0
DWIDTH 11 0
BBX 9 14 1 0
BITMAP
3E00
7F00
E380
E380
E380
F300
7F00
7F00
E780
E380
C180
E380
7F00
3E00
ENDCHAR
STARTCHAR 0039
ENCODING 57
SWIDTH 495 0
DWIDTH 11 0
BBX 9 14 1 0
BITMAP
3E00
7F00
E300
E380
E380
E380
E380
7F80
3F80
0300
0700
1E00
7C00
7000
ENDCHAR
STARTCHAR 003A
ENCODING 58
SWIDTH 495 0
DWIDTH 11 0
BBX 3 11 4 0
BITMAP
E0
E0
E0
E0
00
00
00
E0
E0
E0
E0
ENDCHAR
STARTCHAR 003B
ENCODING 59
SWIDTH 495 0
DWIDTH 11 0
BBX 4 15 3 -4
BITMAP
70
70
70
70
00
00
00
70
70
70
70
30
70
E0
C0
ENDCHAR
STARTCHAR 003C
ENCODING 60
SWIDTH 495 0
DWIDTH 11 0
BBX 9 9 1 1
BITMAP
0180
0780
3F00
FC00
E000
FC00
3F00
0780
0180
ENDCHAR
STARTCHAR 003D
ENCODING 61
SWIDTH 495 0
DWIDTH 11 0
BBX 9 6 1 3
BITMAP
FF80
FF80
0000
0000
FF80
FF80
ENDCHAR
STARTCHAR 003E
ENCODING 62
SWIDTH 495 0
DWIDTH 11 0
BBX 9 9 1 1
BITMAP
C000
F000
7E00
1F80
0380
1F80
7E00
F000
C000
ENDCHAR
STARTCHAR 003F
ENCODING 63
SWIDTH 495 0
DWIDTH 11 0
BBX 8 14 2 0
BITMAP
FC
FE
8E
07
0E
1E
3C
38
30
00
00
30
78
30
ENDCHAR
STARTCHAR 0040
ENCODING 64
SWIDTH 495 0
DWIDTH 11 0
BBX 10 17 0 -3
BITMAP
0F00
3F80
31C0
60C0
67C0
6FC0
CCC0
CCC0
CCC0
CCC0
CCC0
6FC0
67C0
7000
3800
1FC0
0FC0
ENDCHAR
STARTCHAR 0041
ENCODING 65
SWIDTH 495 0
DWIDTH 11 0
BBX 11 14 0 0
BITMAP
0E00
0E00
1F00
1B00
1B00
3B80
3B80
3180
3180
7FC0
7FC0
71C0
60C0
E0E0
ENDCHAR
STARTCHAR 0042
ENCODING 66
SWIDTH 495 0
DWIDTH 11 0
BBX 9 14 1 0
BITMAP
FE00
FF00
E300
E380
E380
E700
FF00
FF00
E380
E180
E180
E380
FF00
FE00
ENDCHAR
STARTCHAR 0043
ENCODING 67
SWIDTH 495 0
DWIDTH 11 0
BBX 9 14 1 0
BITMAP
1F00
3F80
7080
E000
E000
C000
C000
C000
C000
E000
E000
7080
7F80
1F00
ENDCHAR
STARTCHAR 0044
ENCODING 68
SWIDTH 495 0
DWIDTH 11 0
BBX 9 14 1 0
BITMAP
FC00
FF00
E700
E380
E380
E180
E180
E180
E180
E380
E380
E700
FF00
FC00
ENDCHAR
STARTCHAR 0045
ENCODING 69
SWIDTH 495 0
DWIDTH 11 0
BBX 9 14 1 0
BITMAP
FF80
FF80
E000
E000
E000
E000
FF00
FF00
E000
E000
E000
E000
FF80
FF80
ENDCHAR
STARTCHAR 0046
ENCODING 70
SWIDTH 495 0
DWIDTH 11 0
BBX 9 14 1 0
BITMAP
FF80
FF80
E000
E000
E000
E000
FF00
FF00
E000
E000
E000
E000
E000
E000
ENDCHAR
STARTCHAR 0047
ENCODING 71
SWIDTH 495 0
DWIDTH 11 0
BBX 9 14 1 0
BITMAP
1F80
3F80
7080
E000
E000
C000
C380
C380
C380
E380
E380
7380
7F80
1F80
ENDCHAR
STARTCHAR 0048
ENCODING 72
SWIDTH 495 0
DWIDTH 11 0
BBX 9 14 1 0
BITMAP
E380
E380
E380
E380
E380
E380
FF80
FF80
E380
E380
E380
E380
E380
E380
ENDCHAR
STARTCHAR 0049
ENCODING 73
SWIDTH 495 0
DWIDTH 11 0
BBX 9 14 1 0
BITMAP
FF80
FF80
1C00
1C00
1C00
1C00
1C00
1C00
1C00
1C00
1C00
1C00
FF80
FF80
ENDCHAR
STARTCHAR 004A
ENCODING 74
SWIDTH 495 0
DWIDTH 11 0
BBX 9 14 1 0
BITMAP
7F80
7F80
0380
0380
0380
0380
0380
0380
0380
0380
0380
4700
FF00
7C00
ENDCHAR
STARTCHAR 004B
ENCODING 75
SWIDTH 495 0
DWIDTH 11 0
BBX 10 14 1 0
BITMAP
E380
E300
E700
EE00
EE00
FC00
F800
FC00
EE00
EF00
E700
E380
E380
E1C0
ENDCHAR
STARTCHAR 004C
ENCODING 76
SWIDTH 495 0
DWIDTH 11 0
BBX 8 14 2 0
BITMAP
C0
C0
C0
C0
C0
C0
C0
C0
C0
C0
C0
C0
FF
FF
ENDCHAR
STARTCHAR 004D
ENCODING 77
SWIDTH 495 0
DWIDTH 11 0
BBX 9 14 1 0
BITMAP
E380
E380
E380
F780
F780
D580
DD80
DD80
DD80
C180
C180
C180
C180
C180
ENDCHAR
STARTCHAR 004E
ENCODING 78
SWIDTH 495 0
DWIDTH 11 0
BBX 9 14 1 0
BITMAP
C180
E180
F180
F180
F980
D980
DD80
CD80
CD80
C780
C780
C380
C380
C180
ENDCHAR
STARTCHAR 004F
ENCODING 79
SWIDTH 495 0
DWIDTH 11 0
BBX 9 14 1 0
BITMAP
3E00
7F00
E380
E380
C180
C180
C180
C180
C180
C180
E380
E380
7F00
3E00
ENDCHAR
STARTCHAR 0050
ENCODING 80
SWIDTH 495 0
DWIDTH 11 0
BBX 9 14 1 0
BITMAP
FE00
FF00
E380
E180
E180
E380
E380
FF00
FE00
E000
E000
E000
E000
E000
ENDCHAR
STARTCHAR 0051
ENCODING 81
SWIDTH 495 0
DWIDTH 11 0
BBX 9 18 1 -4
BITMAP
3E00
7F00
E380
E380
C180
C180
C180
C180
C180
C180
E380
E380
7F00
3E00
1C00
0F00
0780
0180
ENDCHAR
STARTCHAR 0052
ENCODING 82
SWIDTH 495 0
DWIDTH 11 0
BBX 10 14 1 0
BITMAP
FE00
FF00
E780
E380
E380
E780
FF00
FE00
E600
E700
E300
E380
E380
E1C0
ENDCHAR
STARTCHAR 0053
ENCODING 83
SWIDTH 495 0
DWIDTH 11 0
BBX 9 14 1 0
BITMAP
3F00
7F00
E100
E000
E000
F000
7E00
1F00
0780
0380
0380
C380
FF00
7E00
ENDCHAR
STARTCHAR 0054
ENCODING 84
SWIDTH 495 0
DWIDTH 11 0
BBX 9 14 1 0
BITMAP
FF80
FF80
1C00
1C00
1C00
1C00
1C00
1C00
1C00
1C00
1C00
1C00
1C00
1C00
ENDCHAR
STARTCHAR 0055
ENCODING 85
SWIDTH 495 0
DWIDTH 11 0
BBX 9 14 1 0
BITMAP
E380
E380
E380
E380
E380
E380
E380
E380
E380
E380
E380
E380
7F00
3E00
ENDCHAR
STARTCHAR 0056
ENCODING 86
SWIDTH 495 0
DWIDTH 11 0
BBX 11 14 0 0
BITMAP
E0E0
60C0
71C0
71C0
71C0
3180
3180
3B80
3B80
1B00
1B00
1F00
0E00
0E00
ENDCHAR
STARTCHAR 0057
ENCODING 87
SWIDTH 495 0
DWIDTH 11 0
BBX 9 14 1 0
BITMAP
C180
C180
C180
C180
C180
DD80
DD80
DD80
D580
F780
F780
E380
E380
E380
ENDCHAR
STARTCHAR 0058
ENCODING 88
SWIDTH 495 0
DWIDTH 11 0
BBX 11 14 0 0
BITMAP
70C0
71C0
3980
3B80
1F00
1F00
0E00
0F00
1F00
3B80
3B80
71C0
71C0
E0E0
ENDCHAR
STARTCHAR 0059
ENCODING 89
SWIDTH 495 0
DWIDTH 11 0
BBX 11 14 0 0
BITMAP
E0E0
71C0
71C0
3180
3B80
1B80
1F00
0F00
0E00
0E00
0E00
0E00
0E00
0E00
ENDCHAR
STARTCHAR 005A
ENCODING 90
SWIDTH 495 0
DWIDTH 11 0
BBX 9 14 1 0
BITMAP
FF80
FF80
0700
0700
0E00
0E00
1C00
3C00
3800
7000
7000
E000
FF80
FF80
ENDCHAR
STARTCHAR 005B
ENCODING 91
SWIDTH 495 0
DWIDTH 11 0
BBX 7 19 2 -4
BITMAP
FE
FE
E0
E0
E0
E0
E0
E0
E0
E0
E0
E0
E0
E0
E0
E0
E0
FE
FE
ENDCHAR
STARTCHAR 005C
ENCODING 92
SWIDTH 495 0
DWIDTH 11 0
BBX 9 19 1 -4
BITMAP
E000
6000
7000
7000
3000
3800
3800
1800
1C00
1C00
1C00
0E00
0E00
0E00
0700
0700
0700
0380
0380
ENDCHAR
STARTCHAR 005D
ENCODING 93
SWIDTH 495 0
DWIDTH 11 0
BBX 7 19 2 -4
BITMAP
FE
FE
0E
0E
0E
0E
0E
0E
0E
0E
0E
0E
0E
0E
0E
0E
0E
FE
FE
ENDCHAR
STARTCHAR 005E
ENCODING 94
SWIDTH 495 0
DWIDTH 11 0
BBX 9 7 1 7
BITMAP
1C00
3E00
3600
7700
E380
E180
4180
ENDCHAR
STARTCHAR 005F
ENCODING 95
SWIDTH 495 0
DWIDTH 11 0
BBX 11 2 0 -4
BITMAP
FFE0
FFE0
ENDCHAR
STARTCHAR 0060
ENCODING 96
SWIDTH 495 0
DWIDTH 11 0
BBX 4 4 4 11
BITMAP
80
E0
F0
30
ENDCHAR
STARTCHAR 0061
ENCODING 97
SWIDTH 495 0
DWIDTH 11 0
BBX 9 10 1 0
BITMAP
7E00
7F00
0380
0380
3F80
FF80
E380
E380
FF80
7F80
ENDCHAR
STARTCHAR 0062
ENCODING 98
SWIDTH 495 0
DWIDTH 11 0
BBX 9 15 1 0
BITMAP
E000
E000
E000
E000
E000
FE00
FF00
E380
E380
E180
E180
E380
E380
FF00
7E00
ENDCHAR
STARTCHAR 0063
ENCODING 99
SWIDTH 495 0
DWIDTH 11 0
BBX 9 10 1 0
BITMAP
1F80
7F80
7000
E000
E000
E000
E000
7000
7F80
1F80
ENDCHAR
STARTCHAR 0064
ENCODING 100
SWIDTH 495 0
DWIDTH 11 0
BBX 8 15 1 0
BITMAP
03
03
03
03
03
3F
7F
E3
E3
C3
C3
E3
E3
7F
3F
ENDCHAR
STARTCHAR 0065
ENCODING 101
SWIDTH 495 0
DWIDTH 11 0
BBX 9 10 1 0
BITMAP
3E00
7F00
E380
E180
FF80
FF80
E000
E100
7F00
3F00
ENDCHAR
STARTCHAR 0066
ENCODING 102
SWIDTH 495 0
DWIDTH 11 0
BBX 10 15 1 0
BITMAP
0FC0
1FC0
3800
3800
3800
FF80
FF80
3800
3800
3800
3800
3800
3800
3800
3800
ENDCHAR
STARTCHAR 0067
ENCODING 103
SWIDTH 495 0
DWIDTH 11 0
BBX 9 14 1 -4
BITMAP
3F00
7F80
E380
E380
C380
C380
E380
E380
7F80
3F80
0380
8700
FF00
FC00
ENDCHAR
STARTCHAR 0068
ENCODING 104
SWIDTH 495 0
DWIDTH 11 0
BBX 9 15 1 0
BITMAP
E000
E000
E000
E000
E000
FE00
FF00
E300
E380
E380
E380
E380
E380
E380
E380
ENDCHAR
STARTCHAR 0069
ENCODING 105
SWIDTH 495 0
DWIDTH 11 0
BBX 9 15 1 0
BITMAP
3800
3800
3800
0000
F800
F800
1800
1800
1800
1800
1800
1800
1C80
1F80
0F80
ENDCHAR
STARTCHAR 006A
ENCODING 106
SWIDTH 495 0
DWIDTH 11 0
BBX 8 19 1 -4
BITMAP
0E
0E
0E
00
7F
7F
07
07
07
07
07
07
07
07
07
07
47
FE
7C
ENDCHAR
STARTCHAR 006B
ENCODING 107
SWIDTH 495 0
DWIDTH 11 0
BBX 9 15 1 0
BITMAP
E000
E000
E000
E000
E000
E380
E700
EE00
FC00
F800
FC00
EE00
E700
E380
E380
ENDCHAR
STARTCHAR 006C
ENCODING 108
SWIDTH 495 0
DWIDTH 11 0
BBX 9 15 1 0
BITMAP
F800
F800
1800
1800
1800
1800
1800
1800
1800
1800
1800
1800
1C80
1F80
0F80
ENDCHAR
STARTCHAR 006D
ENCODING 109
SWIDTH 495 0
DWIDTH 11 0
BBX 9 10 1 0
BITMAP
F700
FF80
DD80
DD80
DD80
DD80
C180
C180
C180
C180
ENDCHAR
STARTCHAR 006E
ENCODING 110
SWIDTH 495 0
DWIDTH 11 0
BBX 9 10 1 0
BITMAP
FE00
FF00
E300
E380
E380
E380
E380
E380
E380
E380
ENDCHAR
STARTCHAR 006F
ENCODING 111
SWIDTH 495 0
DWIDTH 11 0
BBX 9 10 1 0
BITMAP
3E00
7F00
E380
E380
C180
C180
E380
E380
7F00
3E00
ENDCHAR
STARTCHAR 0070
ENCODING 112
SWIDTH 495 0
DWIDTH 11 0
BBX 9 14 1 -4
BITMAP
7E00
FF00
E380
E380
E180
E180
E380
E380
FF00
FE00
E000
E000
E000
E000
ENDCHAR
STARTCHAR 0071
ENCODING 113
SWIDTH 495 0
DWIDTH 11 0
BBX 9 14 1 -4
BITMAP
3F00
7F80
E380
E380
C380
C380
E380
E380
7F80
3F80
0380
0380
0380
0380
ENDCHAR
STARTCHAR 0072
ENCODING 114
SWIDTH 495 0
DWIDTH 11 0
BBX 8 10 2 0
BITMAP
7F
FF
E0
E0
E0
E0
E0
E0
E0
E0
ENDCHAR
STARTCHAR 0073
ENCODING 115
SWIDTH 495 0
DWIDTH 11 0
BBX 9 10 1 0
BITMAP
3F00
7F00
E100
F000
7E00
3F00
0780
4380
FF00
7E00
ENDCHAR
STARTCHAR 0074
ENCODING 116
SWIDTH 495 0
DWIDTH 11 0
BBX 9 13 1 0
BITMAP
3800
3800
3800
FF80
FF80
3800
3800
3800
3800
3800
3800
1F80
1F80
ENDCHAR
STARTCHAR 0075
ENCODING 117
SWIDTH 495 0
DWIDTH 11 0
BBX 9 10 1 0
BITMAP
E380
E380
E380
E380
E380
E380
E380
6380
7F80
3F00
ENDCHAR
STARTCHAR 0076
ENCODING 118
SWIDTH 495 0
DWIDTH 11 0
BBX 11 10 0 0
BITMAP
E0E0
70C0
71C0
7180
3380
3B80
1B00
1F00
0E00
0E00
ENDCHAR
STARTCHAR 0077
ENCODING 119
SWIDTH 495 0
DWIDTH 11 0
BBX 11 10 0 0
BITMAP
E0E0
E0E0
EEE0
6EC0
6EC0
6AC0
7BC0
7BC0
7180
3180
ENDCHAR
STARTCHAR 0078
ENCODING 120
SWIDTH 495 0
DWIDTH 11 0
BBX 9 10 1 0
BITMAP
E380
6300
7700
3E00
1C00
1E00
3600
7700
E380
C380
ENDCHAR
STARTCHAR 0079
ENCODING 121
SWIDTH 495 0
DWIDTH 11 0
BBX 10 14 0 -4
BITMAP
70C0
71C0
31C0
3980
3980
1B80
1F00
1F00
0F00
0E00
0E00
0C00
7C00
F800
ENDCHAR
STARTCHAR 007A
ENCODING 122
SWIDTH 495 0
DWIDTH 11 0
BBX 9 10 1 0
BITMAP
7F00
7F00
0700
0E00
1C00
3C00
3800
7000
FF80
FF80
ENDCHAR
STARTCHAR 007B
ENCODING 123
SWIDTH 495 0
DWIDTH 11 0
BBX 9 19 1 -4
BITMAP
0F80
1F80
1C00
1800
1800
1800
1800
1800
1800
F000
F000
1800
1800
1800
1800
1800
1C00
1F80
0F80
ENDCHAR
STARTCHAR 007C
ENCODING 124
SWIDTH 495 0
DWIDTH 11 0
BBX 3 19 4 -4
BITMAP
E0
E0
E0
E0
E0
E0
E0
E0
E0
E0
E0
E0
E0
E0
E0
E0
E0
E0
E0
ENDCHAR
STARTCHAR 007D
ENCODING 125
SWIDTH 495 0
DWIDTH 11 0
BBX 9 19 1 -4
BITMAP
F800
FC00
1C00
0C00
0C00
0C00
0C00
0C00
0C00
0780
0780
0C00
0C00
0C00
0C00
0C00
1C00
FC00
F800
ENDCHAR
STARTCHAR 007E
ENCODING 126
SWIDTH 495 0
DWIDTH 11 0
BBX 10 5 1 3
BITMAP
7080
F9C0
FF80
CF80
0700
ENDCHAR
STARTCHAR 00A0
ENCODING 160
SWIDTH 495 0
DWIDTH 11 0
BBX 0 0 0 0
BITMAP
ENDCHAR
STARTCHAR 00A1
ENCODING 161
SWIDTH 495 0
DWIDTH 11 0
BBX 3 14 4 -4
BITMAP
E0
E0
E0
00
00
E0
E0
E0
E0
E0
E0
E0
E0
E0
ENDCHAR
STARTCHAR 00A2
ENCODING 162
SWIDTH 495 0
DWIDTH 11 0
BBX 9 16 1 -2
BITMAP
0E00
0E00
0E00
1F80
7F00
7000
E000
E000
E000
E000
7000
7F80
1F80
0E00
0E00
0E00
ENDCHAR
STARTCHAR 00A3
ENCODING 163
SWIDTH 495 0
DWIDTH 11 0
BBX 9 14 1 0
BITMAP
1F00
3F80
3900
3000
3000
3000
FE00
FE00
3000
7000
7000
7000
7F80
7F80
ENDCHAR
STARTCHAR 00A4
ENCODING 164
SWIDTH 495 0
DWIDTH 11 0
BBX 9 10 1 2
BITMAP
4100
FF80
FF80
6300
E380
E380
6300
FF80
FF80
4100
ENDCHAR
STARTCHAR 00A5
ENCODING 165
SWIDTH 495 0
DWIDTH 11 0
BBX 11 14 0 0
BITMAP
E0E0
71C0
71C0
3180
1B80
1B00
7FC0
7FC0
0E00
7FC0
7FC0
0E00
0E00
0E00
ENDCHAR
STARTCHAR 00A6
ENCODING 166
SWIDTH 495 0
DWIDTH 11 0
BBX 3 19 4 -4
BITMAP
E0
E0
E0
E0
E0
E0
E0
E0
00
00
00
E0
E0
E0
E0
E0
E0
E0
E0
ENDCHAR
STARTCHAR 00A7
ENCODING 167
SWIDTH 495 0
DWIDTH 11 0
BBX 9 16 1 -2
BITMAP
1F00
7F00
7100
7000
7E00
7F00
6780
E380
E380
F300
7F00
1F00
0780
4380
FF00
7E00
ENDCHAR
STARTCHAR 00A8
ENCODING 168
SWIDTH 495 0
DWIDTH 11 0
BBX 7 3 2 12
BITMAP
E6
EE
E6
ENDCHAR
STARTCHAR 00A9
ENCODING 169
SWIDTH 495 0
DWIDTH 11 0
BBX 9 10 1 0
BITMAP
3E00
6300
DD80
B080
B080
B080
B080
DD80
6300
3E00
ENDCHAR
STARTCHAR 00AA
ENCODING 170
SWIDTH 495 0
DWIDTH 11 0
BBX 7 8 2 6
BITMAP
7C
7E
06
3E
66
E6
FE
7E
ENDCHAR
STARTCHAR 00AB
ENCODING 171
SWIDTH 495 0
DWIDTH 11 0
BBX 9 9 1 1
BITMAP
1100
3380
7300
6600
C600
6600
7300
3180
1100
ENDCHAR
STARTCHAR 00AC
ENCODING 172
SWIDTH 495 0
DWIDTH 11 0
BBX 9 7 1 1
BITMAP
FF80
FF80
0180
0180
0180
0180
0180
ENDCHAR
STARTCHAR 00AD
ENCODING 173
SWIDTH 495 0
DWIDTH 11 0
BBX 7 3 2 4
BITMAP
FE
FE
FE
ENDCHAR
STARTCHAR 00AE
ENCODING 174
SWIDTH 495 0
DWIDTH 11 0
BBX 9 10 1 0
BITMAP
3E00
6300
DD80
9680
9480
9C80
9680
C180
6300
3E00
ENDCHAR
STARTCHAR 00AF
ENCODING 175
SWIDTH 495 0
DWIDTH 11 0
BBX 7 2 2 12
BITMAP
FE
FE
ENDCHAR
STARTCHAR 00B0
ENCODING 176
SWIDTH 495 0
DWIDTH 11 0
BBX 7 6 2 9
BITMAP
38
7C
C6
C6
7C
38
ENDCHAR
STARTCHAR 00B1
ENCODING 177
SWIDTH 495 0
DWIDTH 11 0
BBX 9 11 1 0
BITMAP
1C00
1C00
1C00
FF80
FF80
1C00
1C00
1C00
0000
FF80
FF80
ENDCHAR
STARTCHAR 00B2
ENCODING 178
SWIDTH 495 0
DWIDTH 11 0
BBX 5 8 3 6
BITMAP
70
F8
98
18
70
60
F8
F8
ENDCHAR
STARTCHAR 00B3
ENCODING 179
SWIDTH 495 0
DWIDTH 11 0
BBX 5 8 3 6
BITMAP
F0
F8
98
70
78
98
F8
F0
ENDCHAR
STARTCHAR 00B4
ENCODING 180
SWIDTH 495 0
DWIDTH 11 0
BBX 5 4 3 11
BITMAP
10
38
F0
40
ENDCHAR
STARTCHAR 00B5
ENCODING 181
SWIDTH 495 0
DWIDTH 11 0
BBX 9 14 1 -4
BITMAP
E380
E380
E380
E380
E380
E380
E380
E380
FF80
FF00
E000
E000
E000
E000
ENDCHAR
STARTCHAR 00B6
ENCODING 182
SWIDTH 495 0
DWIDTH 11 0
BBX 10 18 0 -4
BITMAP
1FC0
3FC0
7CC0
7CC0
FCC0
FCC0
7CC0
7CC0
3CC0
0CC0
0CC0
0CC0
0CC0
0CC0
0CC0
0CC0
0CC0
0CC0
ENDCHAR
STARTCHAR 00B7
ENCODING 183
SWIDTH 495 0
DWIDTH 11 0
BBX 3 4 4 4
BITMAP
E0
E0
E0
E0
ENDCHAR
STARTCHAR 00B8
ENCODING 184
SWIDTH 495 0
DWIDTH 11 0
BBX 4 4 4 -4
BITMAP
60
70
30
E0
ENDCHAR
STARTCHAR 00B9
ENCODING 185
SWIDTH 495 0
DWIDTH 11 0
BBX 6 8 3 6
BITMAP
30
F0
F0
30
30
30
FC
FC
ENDCHAR
STARTCHAR 00BA
ENCODING 186
SWIDTH 495 0
DWIDTH 11 0
BBX 7 8 2 6
BITMAP
7C
FE
C6
C6
C6
C6
FE
7C
ENDCHAR
STARTCHAR 00BB
ENCODING 187
SWIDTH 495 0
DWIDTH 11 0
BBX 9 9 1 1
BITMAP
4400
E600
6700
3300
3980
3300
6700
E600
4400
ENDCHAR
STARTCHAR 00BC
ENCODING 188
SWIDTH 495 0
DWIDTH 11 0
BBX 11 14 0 0
BITMAP
31C0
7180
B380
3300
3700
3600
0E00
0C00
1DC0
19C0
3BC0
32C0
73E0
60C0
ENDCHAR
STARTCHAR 00BD
ENCODING 189
SWIDTH 495 0
DWIDTH 11 0
BBX 11 14 0 0
BITMAP
31C0
F180
B380
3300
3700
3600
0E00
0C00
1DC0
1BE0
3960
30C0
7380
63E0
ENDCHAR
STARTCHAR 00BE
ENCODING 190
SWIDTH 495 0
DWIDTH 11 0
BBX 11 14 0 0
BITMAP
F0C0
19C0
7180
1B80
FB00
0700
0600
0E00
0DC0
1DC0
1BC0
3AE0
33E0
70C0
ENDCHAR
STARTCHAR 00BF
ENCODING 191
SWIDTH 495 0
DWIDTH 11 0
BBX 7 14 2 -4
BITMAP
18
3C
18
00
00
18
38
78
F0
E0
C0
E2
FE
7E
ENDCHAR
STARTCHAR 00C0
ENCODING 192
SWIDTH 495 0
DWIDTH 11 0
BBX 11 19 0 0
BITMAP
0800
1C00
0F00
0200
0000
0E00
0E00
1F00
1B00
1B00
3B80
3B80
3180
3180
7FC0
7FC0
71C0
60C0
E0E0
ENDCHAR
STARTCHAR 00C1
ENCODING 193
SWIDTH 495 0
DWIDTH 11 0
BBX 11 19 0 0
BITMAP
0200
0F00
1E00
0800
0000
0E00
0E00
1F00
1B00
1B00
3B80
3B80
3180
3180
7FC0
7FC0
71C0
60C0
E0E0
ENDCHAR
STARTCHAR 00C2
ENCODING 194
SWIDTH 495 0
DWIDTH 11 0
BBX 11 19 0 0
BITMAP
0400
0E00
1B00
1100
0000
0E00
0E00
1F00
1B00
1B00
3B80
3B80
3180
3180
7FC0
7FC0
71C0
60C0
E0E0
ENDCHAR
STARTCHAR 00C3
ENCODING 195
SWIDTH 495 0
DWIDTH 11 0
BBX 11 18 0 0
BITMAP
1C80
3F80
1300
0000
0E00
0E00
1F00
1B00
1B00
3B80
3B80
3180
3180
7FC0
7FC0
71C0
60C0
E0E0
ENDCHAR
STARTCHAR 00C4
ENCODING 196
SWIDTH 495 0
DWIDTH 11 0
BBX 11 18 0 0
BITMAP
3980
3B80
3980
0000
0E00
0E00
1F00
1B00
1B00
3B80
3B80
3180
3180
7FC0
7FC0
71C0
60C0
E0E0
ENDCHAR
STARTCHAR 00C5
ENCODING 197
SWIDTH 495 0
DWIDTH 11 0
BBX 11 17 0 0
BITMAP
0E00
1B00
1B00
0E00
0E00
1F00
1F00
1B00
3B80
3B80
3380
3180
7FC0
7FC0
71C0
60C0
E0E0
ENDCHAR
STARTCHAR 00C6
ENCODING 198
SWIDTH 495 0
DWIDTH 11 0
BBX 11 14 0 0
BITMAP
0FE0
0FE0
1B00
1B00
1B00
3BC0
3BC0
3300
3300
7F00
7F00
7300
63E0
E3E0
ENDCHAR
STARTCHAR 00C7
ENCODING 199
SWIDTH 495 0
DWIDTH 11 0
BBX 9 18 1 -4
BITMAP
1F00
3F80
7080
E000
E000
C000
C000
C000
C000
E000
E000
7080
7F80
1F00
0C00
0E00
0600
1C00
ENDCHAR
STARTCHAR 00C8
ENCODING 200
SWIDTH 495 0
DWIDTH 11 0
BBX 9 19 1 0
BITMAP
1000
3800
1E00
0400
0000
FF80
FF80
E000
E000
E000
E000
FF00
FF00
E000
E000
E000
E000
FF80
FF80
ENDCHAR
STARTCHAR 00C9
ENCODING 201
SWIDTH 495 0
DWIDTH 11 0
BBX 9 19 1 0
BITMAP
0400
1E00
3C00
1000
0000
FF80
FF80
E000
E000
E000
E000
FF00
FF00
E000
E000
E000
E000
FF80
FF80
ENDCHAR
STARTCHAR 00CA
ENCODING 202
SWIDTH 495 0
DWIDTH 11 0
BBX 9 19 1 0
BITMAP
0800
1C00
3600
2200
0000
FF80
FF80
E000
E000
E000
E000
FF00
FF00
E000
E000
E000
E000
FF80
FF80
ENDCHAR
STARTCHAR 00CB
ENCODING 203
SWIDTH 495 0
DWIDTH 11 0
BBX 9 18 1 0
BITMAP
7300
7700
7300
0000
FF80
FF80
E000
E000
E000
E000
FF00
FF00
E000
E000
E000
E000
FF80
FF80
ENDCHAR
STARTCHAR 00CC
ENCODING 204
SWIDTH 495 0
DWIDTH 11 0
BBX 9 19 1 0
BITMAP
1000
3800
1E00
0400
0000
FF80
FF80
1C00
1C00
1C00
1C00
1C00
1C00
1C00
1C00
1C00
1C00
FF80
FF80
ENDCHAR
STARTCHAR 00CD
ENCODING 205
SWIDTH 495 0
DWIDTH 11 0
BBX 9 19 1 0
BITMAP
0400
1E00
3C00
1000
0000
FF80
FF80
1C00
1C00
1C00
1C00
1C00
1C00
1C00
1C00
1C00
1C00
FF80
FF80
ENDCHAR
STARTCHAR 00CE
ENCODING 206
SWIDTH 495 0
DWIDTH 11 0
BBX 9 19 1 0
BITMAP
0800
1C00
3600
2200
0000
FF80
FF80
1C00
1C00
1C00
1C00
1C00
1C00
1C00
1C00
1C00
1C00
FF80
FF80
ENDCHAR
STARTCHAR 00CF
ENCODING 207
SWIDTH 495 0
DWIDTH 11 0
BBX 9 18 1 0
BITMAP
7300
7700
7300
0000
FF80
FF80
1C00
1C00
1C00
1C00
1C00
1C00
1C00
1C00
1C00
1C00
FF80
FF80
ENDCHAR
STARTCHAR 00D0
ENCODING 208
SWIDTH 495 0
DWIDTH 11 0
BBX 10 14 0 0
BITMAP
3E00
3F80
3380
31C0
31C0
30C0
FCC0
FCC0
30C0
31C0
31C0
3380
3F80
3E00
ENDCHAR
STARTCHAR 00D1
ENCODING 209
SWIDTH 495 0
DWIDTH 11 0
BBX 9 18 1 0
BITMAP
3900
7F00
2600
0000
C180
E180
F180
F180
F980
D980
DD80
CD80
CD80
C780
C780
C380
C380
C180
ENDCHAR
STARTCHAR 00D2
ENCODING 210
SWIDTH 495 0
DWIDTH 11 0
BBX 9 19 1 0
BITMAP
1000
3800
1E00
0400
0000
3E00
7F00
E380
E380
C180
C180
C180
C180
C180
C180
E380
E380
7F00
3E00
ENDCHAR
STARTCHAR 00D3
ENCODING 211
SWIDTH 495 0
DWIDTH 11 0
BBX 9 19 1 0
BITMAP
0400
1E00
3C00
1000
0000
3E00
7F00
E380
E380
C180
C180
C180
C180
C180
C180
E380
E380
7F00
3E00
ENDCHAR
STARTCHAR 00D4
ENCODING 212
SWIDTH 495 0
DWIDTH 11 0
BBX 9 19 1 0
BITMAP
0800
1C00
3600
2200
0000
3E00
7F00
E380
E380
C180
C180
C180
C180
C180
C180
E380
E380
7F00
3E00
ENDCHAR
STARTCHAR 00D5
ENCODING 213
SWIDTH 495 0
DWIDTH 11 0
BBX 9 18 1 0
BITMAP
3900
7F00
2600
0000
3E00
7F00
E380
E380
C180
C180
C180
C180
C180
C180
E380
E380
7F00
3E00
ENDCHAR
STARTCHAR 00D6
ENCODING 214
SWIDTH 495 0
DWIDTH 11 0
BBX 9 18 1 0
BITMAP
7300
7700
7300
0000
3E00
7F00
E380
E380
C180
C180
C180
C180
C180
C180
E380
E380
7F00
3E00
ENDCHAR
STARTCHAR 00D7
ENCODING 215
SWIDTH 495 0
DWIDTH 11 0
BBX 9 8 1 2
BITMAP
4100
E380
7F00
3E00
1E00
3F00
7380
6300
ENDCHAR
STARTCHAR 00D8
ENCODING 216
SWIDTH 495 0
DWIDTH 11 0
BBX 9 16 1 -1
BITMAP
0100
3F80
7F00
E780
E780
C780
CD80
CD80
D980
D980
F180
F380
E380
7F00
FE00
4000
ENDCHAR
STARTCHAR 00D9
ENCODING 217
SWIDTH 495 0
DWIDTH 11 0
BBX 9 19 1 0
BITMAP
1000
3800
1E00
0400
0000
E380
E380
E380
E380
E380
E380
E380
E380
E380
E380
E380
E380
7F00
3E00
ENDCHAR
STARTCHAR 00DA
ENCODING 218
SWIDTH 495 0
DWIDTH 11 0
BBX 9 19 1 0
BITMAP
0400
0E00
3C00
1000
0000
E380
E380
E380
E380
E380
E380
E380
E380
E380
E380
E380
E380
7F00
3E00
ENDCHAR
STARTCHAR 00DB
ENCODING 219
SWIDTH 495 0
DWIDTH 11 0
BBX 9 19 1 0
BITMAP
0800
1C00
3600
2200
0000
E380
E380
E380
E380
E380
E380
E380
E380
E380
E380
E380
E380
7F00
3E00
ENDCHAR
STARTCHAR 00DC
ENCODING 220
SWIDTH 495 0
DWIDTH 11 0
BBX 9 18 1 0
BITMAP
7300
7700
7300
0000
E380
E380
E380
E380
E380
E380
E380
E380
E380
E380
E380
E380
7F00
3E00
ENDCHAR
STARTCHAR 00DD
ENCODING 221
SWIDTH 495 0
DWIDTH 11 0
BBX 11 19 0 0
BITMAP
0200
0700
1E00
0800
0000
E0E0
71C0
71C0
3180
3B80
1B80
1F00
0F00
0E00
0E00
0E00
0E00
0E00
0E00
ENDCHAR
STARTCHAR 00DE
ENCODING 222
SWIDTH 495 0
DWIDTH 11 0
BBX 9 14 1 0
BITMAP
E000
E000
FE00
FF00
E380
E380
E180
E380
E380
FF00
FE00
E000
E000
E000
ENDCHAR
STARTCHAR 00DF
ENCODING 223
SWIDTH 495 0
DWIDTH 11 0
BBX 10 15 1 0
BITMAP
3C00
7F00
E700
C700
C700
C600
CE00
CE00
CE00
C780
C3C0
C1C0
C9C0
CF80
CF00
ENDCHAR
STARTCHAR 00E0
ENCODING 224
SWIDTH 495 0
DWIDTH 11 0
BBX 9 15 1 0
BITMAP
1000
3800
1E00
0400
0000
7E00
7F00
0380
0380
3F80
FF80
E380
E380
FF80
7F80
ENDCHAR
STARTCHAR 00E1
ENCODING 225
SWIDTH 495 0
DWIDTH 11 0
BBX 9 15 1 0
BITMAP
0400
0E00
3C00
1000
0000
7E00
7F00
0380
0380
3F80
FF80
E380
E380
FF80
7F80
ENDCHAR
STARTCHAR 00E2
ENCODING 226
SWIDTH 495 0
DWIDTH 11 0
BBX 9 15 1 0
BITMAP
0800
1C00
3600
2200
0000
7E00
7F00
0380
0380
3F80
FF80
E380
E380
FF80
7F80
ENDCHAR
STARTCHAR 00E3
ENCODING 227
SWIDTH 495 0
DWIDTH 11 0
BBX 9 15 1 0
BITMAP
3900
7F00
2600
0000
0000
7E00
7F00
0380
0380
3F80
FF80
E380
E380
FF80
7F80
ENDCHAR
STARTCHAR 00E4
ENCODING 228
SWIDTH 495 0
DWIDTH 11 0
BBX 9 15 1 0
BITMAP
7300
7700
7300
0000
0000
7E00
7F00
0380
0380
3F80
FF80
E380
E380
FF80
7F80
ENDCHAR
STARTCHAR 00E5
ENCODING 229
SWIDTH 495 0
DWIDTH 11 0
BBX 9 16 1 0
BITMAP
1C00
3600
3600
1C00
0000
0000
7E00
7F00
0380
0380
3F80
FF80
E380
E380
FF80
7F80
ENDCHAR
STARTCHAR 00E6
ENCODING 230
SWIDTH 495 0
DWIDTH 11 0
BBX 10 10 1 0
BITMAP
F300
FF80
1DC0
0CC0
7FC0
FFC0
CC00
CC00
FF80
7380
ENDCHAR
STARTCHAR 00E7
ENCODING 231
SWIDTH 495 0
DWIDTH 11 0
BBX 9 14 1 -4
BITMAP
1F80
7F80
7000
E000
E000
E000
E000
F000
7F80
3F80
0C00
0E00
0600
1C00
ENDCHAR
STARTCHAR 00E8
ENCODING 232
SWIDTH 495 0
DWIDTH 11 0
BBX 9 15 1 0
BITMAP
1000
3800
1E00
0400
0000
3E00
7F00
E380
E180
FF80
FF80
E000
E100
7F00
3F00
ENDCHAR
STARTCHAR 00E9
ENCODING 233
SWIDTH 495 0
DWIDTH 11 0
BBX 9 15 1 0
BITMAP
0400
0E00
1E00
1800
0000
3E00
7F00
E380
E180
FF80
FF80
E000
E100
7F00
3F00
ENDCHAR
STARTCHAR 00EA
ENCODING 234
SWIDTH 495 0
DWIDTH 11 0
BBX 9 15 1 0
BITMAP
0800
1C00
3600
2200
0000
3E00
7F00
E380
E180
FF80
FF80
E000
E100
7F00
3F00
ENDCHAR
STARTCHAR 00EB
ENCODING 235
SWIDTH 495 0
DWIDTH 11 0
BBX 9 15 1 0
BITMAP
7300
7700
7300
0000
0000
3E00
7F00
E380
E180
FF80
FF80
E000
E100
7F00
3F00
ENDCHAR
STARTCHAR 00EC
ENCODING 236
SWIDTH 495 0
DWIDTH 11 0
BBX 9 15 1 0
BITMAP
1000
3800
3C00
0C00
0000
F800
F800
1800
1800
1800
1800
1800
1C80
1F80
0F80
ENDCHAR
STARTCHAR 00ED
ENCODING 237
SWIDTH 495 0
DWIDTH 11 0
BBX 9 15 1 0
BITMAP
0400
1E00
3C00
1000
0000
F800
F800
1800
1800
1800
1800
1800
1C80
1F80
0F80
ENDCHAR
STARTCHAR 00EE
ENCODING 238
SWIDTH 495 0
DWIDTH 11 0
BBX 9 15 1 0
BITMAP
0800
3C00
7600
2200
0000
F800
F800
1800
1800
1800
1800
1800
1C80
1F80
0F80
ENDCHAR
STARTCHAR 00EF
ENCODING 239
SWIDTH 495 0
DWIDTH 11 0
BBX 9 15 1 0
BITMAP
6700
E700
6700
0000
0000
F800
F800
1800
1800
1800
1800
1800
1C80
1F80
0F80
ENDCHAR
STARTCHAR 00F0
ENCODING 240
SWIDTH 495 0
DWIDTH 11 0
BBX 9 15 1 0
BITMAP
1800
1F80
1F80
1F00
1700
0380
3F80
7F80
E380
E380
E380
E380
E700
7F00
3E00
ENDCHAR
STARTCHAR 00F1
ENCODING 241
SWIDTH 495 0
DWIDTH 11 0
BBX 9 15 1 0
BITMAP
3900
7F00
2600
0000
0000
FE00
FF00
E300
E380
E380
E380
E380
E380
E380
E380
ENDCHAR
STARTCHAR 00F2
ENCODING 242
SWIDTH 495 0
DWIDTH 11 0
BBX 9 15 1 0
BITMAP
1000
3800
1E00
0400
0000
3E00
7F00
E380
E380
C180
C180
E380
E380
7F00
3E00
ENDCHAR
STARTCHAR 00F3
ENCODING 243
SWIDTH 495 0
DWIDTH 11 0
BBX 9 15 1 0
BITMAP
0400
0E00
3C00
1000
0000
3E00
7F00
E380
E380
C180
C180
E380
E380
7F00
3E00
ENDCHAR
STARTCHAR 00F4
ENCODING 244
SWIDTH 495 0
DWIDTH 11 0
BBX 9 15 1 0
BITMAP
0800
1C00
3600
2200
0000
3E00
7F00
E380
E380
C180
C180
E380
E380
7F00
3E00
ENDCHAR
STARTCHAR 00F5
ENCODING 245
SWIDTH 495 0
DWIDTH 11 0
BBX 9 15 1 0
BITMAP
3900
7F00
2600
0000
0000
3E00
7F00
E380
E380
C180
C180
E380
E380
7F00
3E00
ENDCHAR
STARTCHAR 00F6
ENCODING 246
SWIDTH 495 0
DWIDTH 11 0
BBX 9 15 1 0
BITMAP
7300
7700
7300
0000
0000
3E00
7F00
E380
E380
C180
C180
E380
E380
7F00
3E00
ENDCHAR
STARTCHAR 00F7
ENCODING 247
SWIDTH 495 0
DWIDTH 11 0
BBX 9 11 1 0
BITMAP
1C00
1C00
1C00
0000
0000
FF80
FF80
0000
1C00
1C00
1C00
ENDCHAR
STARTCHAR 00F8
ENCODING 248
SWIDTH 495 0
DWIDTH 11 0
BBX 9 10 1 -1
BITMAP
3F80
7F00
E780
E780
CD80
D980
F380
F380
7F00
FE00
ENDCHAR
STARTCHAR 00F9
ENCODING 249
SWIDTH 495 0
DWIDTH 11 0
BBX 9 15 1 0
BITMAP
1000
3800
1E00
0400
0000
E380
E380
E380
E380
E380
E380
E380
6380
7F80
3F00
ENDCHAR
STARTCHAR 00FA
ENCODING 250
SWIDTH 495 0
DWIDTH 11 0
BBX 9 15 1 0
BITMAP
0400
1E00
3C00
1000
0000
E380
E380
E380
E380
E380
E380
E380
6380
7F80
3F00
ENDCHAR
STARTCHAR 00FB
ENCODING 251
SWIDTH 495 0
DWIDTH 11 0
BBX 9 15 1 0
BITMAP
0800
1C00
3600
2200
0000
E380
E380
E380
E380
E380
E380
E380
6380
7F80
3F00
ENDCHAR
STARTCHAR 00FC
ENCODING 252
SWIDTH 495 0
DWIDTH 11 0
BBX 9 15 1 0
BITMAP
7300
7700
7300
0000
0000
E380
E380
E380
E380
E380
E380
E380
6380
7F80
3F00
ENDCHAR
STARTCHAR 00FD
ENCODING 253
SWIDTH 495 0
DWIDTH 11 0
BBX 10 19 0 -4
BITMAP
0200
0F00
1E00
0800
0000
70C0
71C0
31C0
3980
3980
1B80
1F00
1F00
0F00
0E00
0E00
0C00
7C00
F800
ENDCHAR
STARTCHAR 00FE
ENCODING 254
SWIDTH 495 0
DWIDTH 11 0
BBX 9 19 1 -4
BITMAP
E000
E000
E000
E000
FE00
FF00
E380
E380
E380
E180
E180
E380
E380
FF00
FE00
E000
E000
E000
E000
ENDCHAR
STARTCHAR 00FF
ENCODING 255
SWIDTH 495 0
DWIDTH 11 0
BBX 10 19 0 -4
BITMAP
3980
3B80
3980
0000
0000
70C0
71C0
31C0
3980
3980
1B80
1F00
1F00
0F00
0E00
0E00
0C00
7C00
F800
ENDCHAR
STARTCHAR 0100
ENCODING 256
SWIDTH 495 0
DWIDTH 11 0
BBX 11 17 0 0
BITMAP
3F80
3F80
0000
0E00
0E00
1F00
1B00
1B00
3B80
3B80
3180
3180
7FC0
7FC0
71C0
60C0
E0E0
ENDCHAR
STARTCHAR 0101
ENCODING 257
SWIDTH 495 0
DWIDTH 11 0
BBX 9 14 1 0
BITMAP
7F00
7F00
0000
0000
7E00
7F00
0380
0380
3F80
FF80
E380
E380
FF80
7F80
ENDCHAR
STARTCHAR 0102
ENCODING 258
SWIDTH 495 0
DWIDTH 11 0
BBX 11 18 0 0
BITMAP
3180
1F00
0E00
0000
0E00
0E00
1F00
1B00
1B00
3B80
3B80
3180
3180
7FC0
7FC0
71C0
60C0
E0E0
ENDCHAR
STARTCHAR 0103
ENCODING 259
SWIDTH 495 0
DWIDTH 11 0
BBX 9 15 1 0
BITMAP
6300
3E00
1C00
0000
0000
7E00
7F00
0380
0380
3F80
FF80
E380
E380
FF80
7F80
ENDCHAR
STARTCHAR 0104
ENCODING 260
SWIDTH 495 0
DWIDTH 11 0
BBX 11 18 0 -4
BITMAP
0E00
0E00
1F00
1B00
1B00
3B80
3B80
3180
3F80
7FC0
71C0
61C0
60C0
E0E0
00C0
01C0
0180
01E0
ENDCHAR
STARTCHAR 0105
ENCODING 261
SWIDTH 495 0
DWIDTH 11 0
BBX 9 14 1 -4
BITMAP
7E00
7F00
0380
0380
3F80
FF80
E380
E380
FF80
7F80
0700
0600
0780
0780
ENDCHAR
STARTCHAR 0106
ENCODING 262
SWIDTH 495 0
DWIDTH 11 0
BBX 9 19 1 0
BITMAP
0200
0700
1E00
0800
0000
1F00
3F80
7080
E000
E000
C000
C000
C000
C000
E000
E000
7080
7F80
1F00
ENDCHAR
STARTCHAR 0107
ENCODING 263
SWIDTH 495 0
DWIDTH 11 0
BBX 9 15 1 0
BITMAP
0200
0E00
1E00
0800
0000
1F80
7F80
7000
E000
E000
E000
E000
7000
7F80
1F80
ENDCHAR
STARTCHAR 0108
ENCODING 264
SWIDTH 495 0
DWIDTH 11 0
BBX 9 19 1 0
BITMAP
0400
0E00
1B80
1100
0000
1F00
3F80
7080
E000
E000
C000
C000
C000
C000
E000
E000
7080
7F80
1F00
ENDCHAR
STARTCHAR 0109
ENCODING 265
SWIDTH 495 0
DWIDTH 11 0
BBX 9 15 1 0
BITMAP
0400
0E00
1B00
1100
0000
1F80
7F80
7000
E000
E000
E000
E000
7000
7F80
1F80
ENDCHAR
STARTCHAR 010A
ENCODING 266
SWIDTH 495 0
DWIDTH 11 0
BBX 9 18 1 0
BITMAP
0E00
0E00
0E00
0000
1F00
3F80
7080
E000
E000
C000
C000
C000
C000
E000
E000
7080
7F80
1F00
ENDCHAR
STARTCHAR 010B
ENCODING 267
SWIDTH 495 0
DWIDTH 11 0
BBX 9 15 1 0
BITMAP
0E00
0E00
0E00
0000
0000
1F80
7F80
7000
E000
E000
E000
E000
7000
7F80
1F80
ENDCHAR
STARTCHAR 010C
ENCODING 268
SWIDTH 495 0
DWIDTH 11 0
BBX 9 19 1 0
BITMAP
1900
1F80
0E00
0400
0000
1F00
3F80
7080
E000
E000
C000
C000
C000
C000
E000
E000
7080
7F80
1F00
ENDCHAR
STARTCHAR 010D
ENCODING 269
SWIDTH 495 0
DWIDTH 11 0
BBX 9 15 1 0
BITMAP
1900
1F80
0E00
0400
0000
1F80
7F80
7000
E000
E000
E000
E000
7000
7F80
1F80
ENDCHAR
STARTCHAR 010E
ENCODING 270
SWIDTH 495 0
DWIDTH 11 0
BBX 9 19 1 0
BITMAP
6400
7E00
3800
1000
0000
FC00
FF00
E700
E380
E380
E180
E180
E180
E180
E380
E380
E700
FF00
FC00
ENDCHAR
STARTCHAR 010F
ENCODING 271
SWIDTH 495 0
DWIDTH 11 0
BBX 11 15 0 0
BITMAP
0760
0760
0760
0760
3F60
7F00
6700
E700
E700
E700
E700
E700
7700
7F00
3F00
ENDCHAR
STARTCHAR 0110
ENCODING 272
SWIDTH 495 0
DWIDTH 11 0
BBX 10 14 0 0
BITMAP
3E00
3F80
3380
31C0
31C0
30C0
FCC0
FCC0
30C0
31C0
31C0
3380
3F80
3E00
ENDCHAR
STARTCHAR 0111
ENCODING 273
SWIDTH 495 0
DWIDTH 11 0
BBX 10 15 1 0
BITMAP
0300
1FC0
1FC0
0300
0300
3F00
7F00
E300
E300
C300
C300
E300
E300
7F00
3F00
ENDCHAR
STARTCHAR 0112
ENCODING 274
SWIDTH 495 0
DWIDTH 11 0
BBX 9 17 1 0
BITMAP
7F00
7F00
0000
FF80
FF80
E000
E000
E000
E000
FF00
FF00
E000
E000
E000
E000
FF80
FF80
ENDCHAR
STARTCHAR 0113
ENCODING 275
SWIDTH 495 0
DWIDTH 11 0
BBX 9 14 1 0
BITMAP
7F00
7F00
0000
0000
3E00
7F00
E380
E180
FF80
FF80
E000
E100
7F00
3F00
ENDCHAR
STARTCHAR 0114
ENCODING 276
SWIDTH 495 0
DWIDTH 11 0
BBX 9 18 1 0
BITMAP
6300
3E00
1C00
0000
FF80
FF80
E000
E000
E000
E000
FF00
FF00
E000
E000
E000
E000
FF80
FF80
ENDCHAR
STARTCHAR 0115
ENCODING 277
SWIDTH 495 0
DWIDTH 11 0
BBX 9 15 1 0
BITMAP
6300
3E00
1C00
0000
0000
3E00
7F00
E380
E180
FF80
FF80
E000
E100
7F00
3F00
ENDCHAR
STARTCHAR 0116
ENCODING 278
SWIDTH 495 0
DWIDTH 11 0
BBX 9 18 1 0
BITMAP
1C00
1C00
1C00
0000
FF80
FF80
E000
E000
E000
E000
FF00
FF00
E000
E000
E000
E000
FF80
FF80
ENDCHAR
STARTCHAR 0117
ENCODING 279
SWIDTH 495 0
DWIDTH 11 0
BBX 9 15 1 0
BITMAP
1C00
1C00
1C00
0000
0000
3E00
7F00
E380
E180
FF80
FF80
E000
E100
7F00
3F00
ENDCHAR
STARTCHAR 0118
ENCODING 280
SWIDTH 495 0
DWIDTH 11 0
BBX 9 18 1 -4
BITMAP
FF80
FF80
E000
E000
E000
E000
FF00
FF00
E000
E000
E000
E000
FF80
FF80
0380
0300
0700
0380
ENDCHAR
STARTCHAR 0119
ENCODING 281
SWIDTH 495 0
DWIDTH 11 0
BBX 9 14 1 -4
BITMAP
3E00
7F00
E380
E180
FF80
FF80
E000
E100
7F00
3F80
0700
0600
0E00
0700
ENDCHAR
STARTCHAR 011A
ENCODING 282
SWIDTH 495 0
DWIDTH 11 0
BBX 9 19 1 0
BITMAP
3600
3E00
1C00
0800
0000
FF80
FF80
E000
E000
E000
E000
FF00
FF00
E000
E000
E000
E000
FF80
FF80
ENDCHAR
STARTCHAR 011B
ENCODING 283
SWIDTH 495 0
DWIDTH 11 0
BBX 9 15 1 0
BITMAP
3600
3E00
1C00
0800
0000
3E00
7F00
E380
E180
FF80
FF80
E000
E100
7F00
3F00
ENDCHAR
STARTCHAR 011C
ENCODING 284
SWIDTH 495 0
DWIDTH 11 0
BBX 9 19 1 0
BITMAP
0400
0E00
1B00
1100
0000
1F80
3F80
7080
E000
E000
C000
C380
C380
C380
E380
E380
7380
7F80
1F80
ENDCHAR
STARTCHAR 011D
ENCODING 285
SWIDTH 495 0
DWIDTH 11 0
BBX 9 19 1 -4
BITMAP
0800
1C00
3600
2200
0000
3F00
7F80
E380
E380
C380
C380
E380
E380
7F80
3F80
0380
8700
FF00
FC00
ENDCHAR
STARTCHAR 011E
ENCODING 286
SWIDTH 495 0
DWIDTH 11 0
BBX 9 18 1 0
BITMAP
3180
1F00
0E00
0000
1F80
3F80
7080
E000
E000
C000
C380
C380
C380
E380
E380
7380
7F80
1F80
ENDCHAR
STARTCHAR 011F
ENCODING 287
SWIDTH 495 0
DWIDTH 11 0
BBX 9 19 1 -4
BITMAP
6300
3E00
1C00
0000
0000
3F00
7F80
E380
E380
C380
C380
E380
E380
7F80
3F80
0380
8700
FF00
FC00
ENDCHAR
STARTCHAR 0120
ENCODING 288
SWIDTH 495 0
DWIDTH 11 0
BBX 9 18 1 0
BITMAP
0E00
0E00
0E00
0000
1F80
3F80
7080
E000
E000
C000
C380
C380
C380
E380
E380
7380
7F80
1F80
ENDCHAR
STARTCHAR 0121
ENCODING 289
SWIDTH 495 0
DWIDTH 11 0
BBX 9 19 1 -4
BITMAP
1C00
1C00
1C00
0000
0000
3F00
7F80
E380
E380
C380
C380
E380
E380
7F80
3F80
0380
8700
FF00
FC00
ENDCHAR
STARTCHAR 0122
ENCODING 290
SWIDTH 495 0
DWIDTH 11 0
BBX 9 18 1 -4
BITMAP
1F80
3F80
7080
E000
E000
C000
C380
C380
C380
E380
E380
7380
7F80
1F80
0000
0C00
1C00
1C00
ENDCHAR
STARTCHAR 0123
ENCODING 291
SWIDTH 495 0
DWIDTH 11 0
BBX 9 20 1 -4
BITMAP
0600
0E00
0C00
1C00
0000
0000
3F00
7F80
E380
E380
C380
C380
E380
E380
7F80
3F80
0380
8700
FF00
FC00
ENDCHAR
STARTCHAR 0124
ENCODING 292
SWIDTH 495 0
DWIDTH 11 0
BBX 9 19 1 0
BITMAP
0800
1C00
3600
2200
0000
E380
E380
E380
E380
E380
E380
FF80
FF80
E380
E380
E380
E380
E380
E380
ENDCHAR
STARTCHAR 0125
ENCODING 293
SWIDTH 495 0
DWIDTH 11 0
BBX 9 18 1 0
BITMAP
3000
7800
4C00
0000
E000
E000
E000
E000
FE00
FF00
E300
E380
E380
E380
E380
E380
E380
E380
ENDCHAR
STARTCHAR 0126
ENCODING 294
SWIDTH 495 0
DWIDTH 11 0
BBX 11 14 0 0
BITMAP
71C0
71C0
FFE0
FFE0
71C0
71C0
7FC0
7FC0
71C0
71C0
71C0
71C0
71C0
71C0
ENDCHAR
STARTCHAR 0127
ENCODING 295
SWIDTH 495 0
DWIDTH 11 0
BBX 9 15 1 0
BITMAP
6000
6000
FC00
6000
6000
7E00
7F00
6300
6380
6380
6380
6380
6380
6380
6380
ENDCHAR
STARTCHAR 0128
ENCODING 296
SWIDTH 495 0
DWIDTH 11 0
BBX 9 18 1 0
BITMAP
3900
7F00
2600
0000
FF80
FF80
1C00
1C00
1C00
1C00
1C00
1C00
1C00
1C00
1C00
1C00
FF80
FF80
ENDCHAR
STARTCHAR 0129
ENCODING 297
SWIDTH 495 0
DWIDTH 11 0
BBX 9 15 1 0
BITMAP
3200
7E00
4E00
0000
0000
F800
F800
1800
1800
1800
1800
1800
1C80
1F80
0F80
ENDCHAR
STARTCHAR 012A
ENCODING 298
SWIDTH 495 0
DWIDTH 11 0
BBX 9 17 1 0
BITMAP
7F00
7F00
0000
FF80
FF80
1C00
1C00
1C00
1C00
1C00
1C00
1C00
1C00
1C00
1C00
FF80
FF80
ENDCHAR
STARTCHAR 012B
ENCODING 299
SWIDTH 495 0
DWIDTH 11 0
BBX 9 14 1 0
BITMAP
7E00
7E00
0000
0000
F800
F800
1800
1800
1800
1800
1800
1C80
1F80
0F80
ENDCHAR
STARTCHAR 012C
ENCODING 300
SWIDTH 495 0
DWIDTH 11 0
BBX 9 18 1 0
BITMAP
6300
3E00
1C00
0000
FF80
FF80
1C00
1C00
1C00
1C00
1C00
1C00
1C00
1C00
1C00
1C00
FF80
FF80
ENDCHAR
STARTCHAR 012D
ENCODING 301
SWIDTH 495 0
DWIDTH 11 0
BBX 9 15 1 0
BITMAP
6600
7E00
3C00
0000
0000
F800
F800
1800
1800
1800
1800
1800
1C80
1F80
0F80
ENDCHAR
STARTCHAR 012E
ENCODING 302
SWIDTH 495 0
DWIDTH 11 0
BBX 9 18 1 -4
BITMAP
FF80
FF80
1C00
1C00
1C00
1C00
1C00
1C00
1C00
1C00
1C00
1C00
FF80
FF80
1800
1800
3C00
1C00
ENDCHAR
STARTCHAR 012F
ENCODING 303
SWIDTH 495 0
DWIDTH 11 0
BBX 9 19 1 -4
BITMAP
3800
3800
3800
0000
F800
F800
1800
1800
1800
1800
1800
1800
1C80
1F80
0F80
0300
0600
0780
0380
ENDCHAR
STARTCHAR 0130
ENCODING 304
SWIDTH 495 0
DWIDTH 11 0
BBX 9 18 1 0
BITMAP
1C00
1C00
1C00
0000
FF80
FF80
1C00
1C00
1C00
1C00
1C00
1C00
1C00
1C00
1C00
1C00
FF80
FF80
ENDCHAR
STARTCHAR 0131
ENCODING 305
SWIDTH 495 0
DWIDTH 11 0
BBX 9 10 1 0
BITMAP
F800
F800
1800
1800
1800
1800
1800
1C80
1F80
0F80
ENDCHAR
STARTCHAR 0132
ENCODING 306
SWIDTH 495 0
DWIDTH 11 0
BBX 10 14 1 0
BITMAP
C1C0
C1C0
C1C0
C1C0
C1C0
C1C0
C1C0
C1C0
C1C0
C1C0
C1C0
C380
DF80
DF00
ENDCHAR
STARTCHAR 0133
ENCODING 307
SWIDTH 495 0
DWIDTH 11 0
BBX 9 19 1 -4
BITMAP
6300
F780
6300
0000
6300
6300
6300
6300
6300
6300
6300
6300
6300
6300
6300
0300
0700
1F00
1E00
ENDCHAR
STARTCHAR 0134
ENCODING 308
SWIDTH 495 0
DWIDTH 11 0
BBX 9 19 1 0
BITMAP
0400
0E00
1B80
1100
0000
7F80
7F80
0380
0380
0380
0380
0380
0380
0380
0380
0380
4700
FF00
7C00
ENDCHAR
STARTCHAR 0135
ENCODING 309
SWIDTH 495 0
DWIDTH 11 0
BBX 8 19 1 -4
BITMAP
08
1E
37
12
00
7F
7F
07
07
07
07
07
07
07
07
07
47
FE
7C
ENDCHAR
STARTCHAR 0136
ENCODING 310
SWIDTH 495 0
DWIDTH 11 0
BBX 10 18 1 -4
BITMAP
E380
E300
E700
EE00
EE00
FC00
F800
FC00
EE00
EF00
E700
E380
E380
E1C0
0000
0C00
3C00
3800
ENDCHAR
STARTCHAR 0137
ENCODING 311
SWIDTH 495 0
DWIDTH 11 0
BBX 9 19 1 -4
BITMAP
E000
E000
E000
E000
E000
E380
E700
EE00
FC00
F800
FC00
EE00
E700
E380
E380
0000
0C00
3C00
3800
ENDCHAR
STARTCHAR 0138
ENCODING 312
SWIDTH 495 0
DWIDTH 11 0
BBX 9 10 1 0
BITMAP
E380
E700
EE00
FC00
F800
FC00
EE00
E700
E380
E380
ENDCHAR
STARTCHAR 0139
ENCODING 313
SWIDTH 495 0
DWIDTH 11 0
BBX 8 19 2 0
BITMAP
10
38
F0
40
00
C0
C0
C0
C0
C0
C0
C0
C0
C0
C0
C0
C0
FF
FF
ENDCHAR
STARTCHAR 013A
ENCODING 314
SWIDTH 495 0
DWIDTH 11 0
BBX 9 18 1 0
BITMAP
0400
1E00
3000
0000
F800
F800
1800
1800
1800
1800
1800
1800
1800
1800
1800
1C80
1F80
0F80
ENDCHAR
STARTCHAR 013B
ENCODING 315
SWIDTH 495 0
DWIDTH 11 0
BBX 8 18 2 -4
BITMAP
C0
C0
C0
C0
C0
C0
C0
C0
C0
C0
C0
C0
FF
FF
00
18
38
38
ENDCHAR
STARTCHAR 013C
ENCODING 316
SWIDTH 495 0
DWIDTH 11 0
BBX 9 19 1 -4
BITMAP
F800
F800
1800
1800
1800
1800
1800
1800
1800
1800
1800
1800
1C80
1F80
0F80
0000
0600
0E00
0E00
ENDCHAR
STARTCHAR 013D
ENCODING 317
SWIDTH 495 0
DWIDTH 11 0
BBX 8 14 2 0
BITMAP
C0
CE
CC
CC
CC
CC
C0
C0
C0
C0
C0
C0
FF
FF
ENDCHAR
STARTCHAR 013E
ENCODING 318
SWIDTH 495 0
DWIDTH 11 0
BBX 9 15 1 0
BITMAP
F980
F980
1980
1980
1980
1800
1800
1800
1800
1800
1800
1800
1C80
1F80
0F80
ENDCHAR
STARTCHAR 013F
ENCODING 319
SWIDTH 495 0
DWIDTH 11 0
BBX 8 14 2 0
BITMAP
C0
C0
C0
C0
C7
CF
C7
C0
C0
C0
C0
C0
FF
FF
ENDCHAR
STARTCHAR 0140
ENCODING 320
SWIDTH 495 0
DWIDTH 11 0
BBX 12 15 1 0
BITMAP
F800
F800
1800
1800
1800
18E0
18F0
18E0
1800
1800
1800
1800
1C80
1F80
0F80
ENDCHAR
STARTCHAR 0141
ENCODING 321
SWIDTH 495 0
DWIDTH 11 0
BBX 10 14 0 0
BITMAP
3800
3800
3800
3800
3A00
3F00
7C00
F800
F800
3800
3800
3800
3FC0
3FC0
ENDCHAR
STARTCHAR 0142
ENCODING 322
SWIDTH 495 0
DWIDTH 11 0
BBX 9 15 1 0
BITMAP
F800
F800
1800
1800
1A00
1E00
3E00
7800
5800
1800
1800
1800
1C80
1F80
0F80
ENDCHAR
STARTCHAR 0143
ENCODING 323
SWIDTH 495 0
DWIDTH 11 0
BBX 9 19 1 0
BITMAP
0400
0E00
3C00
1000
0000
C180
E180
F180
F180
F980
D980
DD80
CD80
CD80
C780
C780
C380
C380
C180
ENDCHAR
STARTCHAR 0144
ENCODING 324
SWIDTH 495 0
DWIDTH 11 0
BBX 9 15 1 0
BITMAP
0400
0E00
3C00
1000
0000
FE00
FF00
E300
E380
E380
E380
E380
E380
E380
E380
ENDCHAR
STARTCHAR 0145
ENCODING 325
SWIDTH 495 0
DWIDTH 11 0
BBX 9 18 1 -4
BITMAP
C180
E180
F180
F180
F980
D980
DD80
CD80
CD80
C780
C780
C380
C380
C180
0000
0C00
3C00
3800
ENDCHAR
STARTCHAR 0146
ENCODING 326
SWIDTH 495 0
DWIDTH 11 0
BBX 9 14 1 -4
BITMAP
FE00
FF00
E300
E380
E380
E380
E380
E380
E380
E380
0000
0C00
3C00
3800
ENDCHAR
STARTCHAR 0147
ENCODING 327
SWIDTH 495 0
DWIDTH 11 0
BBX 9 19 1 0
BITMAP
3600
3E00
1C00
0800
0000
C180
E180
F180
F180
F980
D980
DD80
CD80
CD80
C780
C780
C380
C380
C180
ENDCHAR
STARTCHAR 0148
ENCODING 328
SWIDTH 495 0
DWIDTH 11 0
BBX 9 15 1 0
BITMAP
3600
3E00
1C00
0800
0000
FE00
FF00
E300
E380
E380
E380
E380
E380
E380
E380
ENDCHAR
STARTCHAR 0149
ENCODING 329
SWIDTH 495 0
DWIDTH 11 0
BBX 10 16 0 0
BITMAP
E000
E000
C000
C000
C000
0000
3F00
3F80
31C0
31C0
31C0
31C0
31C0
31C0
31C0
31C0
ENDCHAR
STARTCHAR 014A
ENCODING 330
SWIDTH 495 0
DWIDTH 11 0
BBX 9 18 1 -4
BITMAP
C180
E180
F180
F180
F980
D980
DD80
CD80
CD80
C780
C780
C380
C380
C380
0180
0380
0780
0F00
ENDCHAR
STARTCHAR 014B
ENCODING 331
SWIDTH 495 0
DWIDTH 11 0
BBX 9 14 1 -4
BITMAP
FE00
FF00
E300
E380
E380
E380
E380
E380
E380
E380
0380
0380
0F00
0E00
ENDCHAR
STARTCHAR 014C
ENCODING 332
SWIDTH 495 0
DWIDTH 11 0
BBX 9 17 1 0
BITMAP
7F00
7F00
0000
3E00
7F00
E380
E380
C180
C180
C180
C180
C180
C180
E380
E380
7F00
3E00
ENDCHAR
STARTCHAR 014D
ENCODING 333
SWIDTH 495 0
DWIDTH 11 0
BBX 9 14 1 0
BITMAP
7F00
7F00
0000
0000
3E00
7F00
E380
E380
C180
C180
E380
E380
7F00
3E00
ENDCHAR
STARTCHAR 014E
ENCODING 334
SWIDTH 495 0
DWIDTH 11 0
BBX 9 18 1 0
BITMAP
6300
3E00
1C00
0000
3E00
7F00
E380
E380
C180
C180
C180
C180
C180
C180
E380
E380
7F00
3E00
ENDCHAR
STARTCHAR 014F
ENCODING 335
SWIDTH 495 0
DWIDTH 11 0
BBX 9 15 1 0
BITMAP
6300
3E00
1C00
0000
0000
3E00
7F00
E380
E380
C180
C180
E380
E380
7F00
3E00
ENDCHAR
STARTCHAR 0150
ENCODING 336
SWIDTH 495 0
DWIDTH 11 0
BBX 9 19 1 0
BITMAP
1980
1980
3300
2200
0000
3E00
7F00
E380
E380
C180
C180
C180
C180
C180
C180
E380
E380
7F00
3E00
ENDCHAR
STARTCHAR 0151
ENCODING 337
SWIDTH 495 0
DWIDTH 11 0
BBX 9 15 1 0
BITMAP
1980
1980
3300
2200
0000
3E00
7F00
E380
E380
C180
C180
E380
E380
7F00
3E00
ENDCHAR
STARTCHAR 0152
ENCODING 338
SWIDTH 495 0
DWIDTH 11 0
BBX 11 14 0 0
BITMAP
1FE0
3FE0
7300
6300
6300
E3C0
E3C0
E300
E300
6300
6300
7300
3FE0
1FE0
ENDCHAR
STARTCHAR 0153
ENCODING 339
SWIDTH 495 0
DWIDTH 11 0
BBX 11 10 0 0
BITMAP
3980
7FC0
6EE0
6660
E7E0
E7E0
6600
6E00
7FC0
39C0
ENDCHAR
STARTCHAR 0154
ENCODING 340
SWIDTH 495 0
DWIDTH 11 0
BBX 10 19 1 0
BITMAP
0400
1E00
3C00
1000
0000
FE00
FF00
E780
E380
E380
E780
FF00
FE00
E600
E700
E300
E380
E380
E1C0
ENDCHAR
STARTCHAR 0155
ENCODING 341
SWIDTH 495 0
DWIDTH 11 0
BBX 8 15 2 0
BITMAP
04
1C
3C
10
00
7F
FF
E0
E0
E0
E0
E0
E0
E0
E0
ENDCHAR
STARTCHAR 0156
ENCODING 342
SWIDTH 495 0
DWIDTH 11 0
BBX 10 18 1 -4
BITMAP
FE00
FF00
E780
E380
E380
E780
FF00
FE00
E600
E700
E300
E380
E380
E1C0
0000
0C00
3C00
3800
ENDCHAR
STARTCHAR 0157
ENCODING 343
SWIDTH 495 0
DWIDTH 11 0
BBX 9 14 1 -4
BITMAP
3F80
7F80
7000
7000
7000
7000
7000
7000
7000
7000
0000
7000
E000
E000
ENDCHAR
STARTCHAR 0158
ENCODING 344
SWIDTH 495 0
DWIDTH 11 0
BBX 10 19 1 0
BITMAP
2600
7E00
3C00
0800
0000
FE00
FF00
E780
E380
E380
E780
FF00
FE00
E600
E700
E300
E380
E380
E1C0
ENDCHAR
STARTCHAR 0159
ENCODING 345
SWIDTH 495 0
DWIDTH 11 0
BBX 8 15 2 0
BITMAP
26
7E
1C
08
00
7F
FF
E0
E0
E0
E0
E0
E0
E0
E0
ENDCHAR
STARTCHAR 015A
ENCODING 346
SWIDTH 495 0
DWIDTH 11 0
BBX 9 19 1 0
BITMAP
0400
0E00
3C00
1000
0000
3F00
7F00
E100
E000
E000
F000
7E00
1F00
0780
0380
0380
C380
FF00
7E00
ENDCHAR
STARTCHAR 015B
ENCODING 347
SWIDTH 495 0
DWIDTH 11 0
BBX 9 15 1 0
BITMAP
0400
0E00
3C00
1000
0000
3F00
7F00
E100
F000
7E00
3F00
0780
4380
FF00
7E00
ENDCHAR
STARTCHAR 015C
ENCODING 348
SWIDTH 495 0
DWIDTH 11 0
BBX 9 19 1 0
BITMAP
0800
1C00
3600
2200
0000
3F00
7F00
E100
E000
E000
F000
7E00
1F00
0780
0380
0380
C380
FF00
7E00
ENDCHAR
STARTCHAR 015D
ENCODING 349
SWIDTH 495 0
DWIDTH 11 0
BBX 9 15 1 0
BITMAP
0800
1C00
3600
2200
0000
3F00
7F00
E100
F000
7E00
3F00
0780
4380
FF00
7E00
ENDCHAR
STARTCHAR 015E
ENCODING 350
SWIDTH 495 0
DWIDTH 11 0
BBX 9 18 1 -4
BITMAP
3F00
7F00
E100
E000
E000
F000
7E00
1F00
0780
0380
0380
C380
FF80
7F00
1800
0C00
0C00
3800
ENDCHAR
STARTCHAR 015F
ENCODING 351
SWIDTH 495 0
DWIDTH 11 0
BBX 9 14 1 -4
BITMAP
3F00
7F00
6100
E000
7800
3F00
0F00
0380
4380
FF00
7C00
1C00
0C00
3C00
ENDCHAR
STARTCHAR 0160
ENCODING 352
SWIDTH 495 0
DWIDTH 11 0
BBX 9 19 1 0
BITMAP
3600
3E00
1C00
0800
0000
3F00
7F00
E100
E000
E000
F000
7E00
1F00
0780
0380
0380
C380
FF00
7E00
ENDCHAR
STARTCHAR 0161
ENCODING 353
SWIDTH 495 0
DWIDTH 11 0
BBX 9 15 1 0
BITMAP
3600
3E00
1C00
0800
0000
3F00
7F00
E100
F000
7E00
3F00
0780
4380
FF00
7E00
ENDCHAR
STARTCHAR 0162
ENCODING 354
SWIDTH 495 0
DWIDTH 11 0
BBX 9 18 1 -4
BITMAP
FF80
FF80
1C00
1C00
1C00
1C00
1C00
1C00
1C00
1C00
1C00
1C00
1C00
1C00
1800
0C00
0C00
3C00
ENDCHAR
STARTCHAR 0163
ENCODING 355
SWIDTH 495 0
DWIDTH 11 0
BBX 9 17 1 -4
BITMAP
3800
3800
3800
FF80
FF80
3800
3800
3800
3800
3800
3880
1F80
1F80
0600
0700
0300
0E00
ENDCHAR
STARTCHAR 0164
ENCODING 356
SWIDTH 495 0
DWIDTH 11 0
BBX 9 19 1 0
BITMAP
3600
3E00
1C00
0800
0000
FF80
FF80
1C00
1C00
1C00
1C00
1C00
1C00
1C00
1C00
1C00
1C00
1C00
1C00
ENDCHAR
STARTCHAR 0165
ENCODING 357
SWIDTH 495 0
DWIDTH 11 0
BBX 9 15 1 0
BITMAP
0300
0300
3B00
3B00
3800
FF80
FF80
3800
3800
3800
3800
3800
3800
1F80
1F80
ENDCHAR
STARTCHAR 0166
ENCODING 358
SWIDTH 495 0
DWIDTH 11 0
BBX 9 14 1 0
BITMAP
FF80
FF80
1C00
1C00
1C00
1C00
FF80
FF80
1C00
1C00
1C00
1C00
1C00
1C00
ENDCHAR
STARTCHAR 0167
ENCODING 359
SWIDTH 495 0
DWIDTH 11 0
BBX 9 14 1 0
BITMAP
3800
3800
3800
FF80
FF80
3800
3800
FF80
FF80
3800
3800
3880
1F80
0F80
ENDCHAR
STARTCHAR 0168
ENCODING 360
SWIDTH 495 0
DWIDTH 11 0
BBX 9 18 1 0
BITMAP
3900
7F00
2600
0000
E380
E380
E380
E380
E380
E380
E380
E380
E380
E380
E380
E380
7F00
3E00
ENDCHAR
STARTCHAR 0169
ENCODING 361
SWIDTH 495 0
DWIDTH 11 0
BBX 9 15 1 0
BITMAP
3900
7F00
2600
0000
0000
E380
E380
E380
E380
E380
E380
E380
6380
7F80
3F00
ENDCHAR
STARTCHAR 016A
ENCODING 362
SWIDTH 495 0
DWIDTH 11 0
BBX 9 17 1 0
BITMAP
7F00
7F00
0000
E380
E380
E380
E380
E380
E380
E380
E380
E380
E380
E380
E380
7F00
3E00
ENDCHAR
STARTCHAR 016B
ENCODING 363
SWIDTH 495 0
DWIDTH 11 0
BBX 9 14 1 0
BITMAP
7F00
7F00
0000
0000
E380
E380
E380
E380
E380
E380
E380
6380
7F80
3F00
ENDCHAR
STARTCHAR 016C
ENCODING 364
SWIDTH 495 0
DWIDTH 11 0
BBX 9 18 1 0
BITMAP
6300
3E00
1C00
0000
E380
E380
E380
E380
E380
E380
E380
E380
E380
E380
E380
E380
7F00
3E00
ENDCHAR
STARTCHAR 016D
ENCODING 365
SWIDTH 495 0
DWIDTH 11 0
BBX 9 15 1 0
BITMAP
6300
3E00
1C00
0000
0000
E380
E380
E380
E380
E380
E380
E380
6380
7F80
3F00
ENDCHAR
STARTCHAR 016E
ENCODING 366
SWIDTH 495 0
DWIDTH 11 0
BBX 9 18 1 0
BITMAP
1C00
3600
3600
1C00
E380
E380
E380
E380
E380
E380
E380
E380
E380
E380
E380
E380
7F00
3E00
ENDCHAR
STARTCHAR 016F
ENCODING 367
SWIDTH 495 0
DWIDTH 11 0
BBX 9 16 1 0
BITMAP
1C00
3600
3600
1C00
0000
0000
E380
E380
E380
E380
E380
E380
E380
6380
7F80
3F00
ENDCHAR
STARTCHAR 0170
ENCODING 368
SWIDTH 495 0
DWIDTH 11 0
BBX 9 19 1 0
BITMAP
1980
1980
3300
2200
0000
E380
E380
E380
E380
E380
E380
E380
E380
E380
E380
E380
E380
7F00
3E00
ENDCHAR
STARTCHAR 0171
ENCODING 369
SWIDTH 495 0
DWIDTH 11 0
BBX 9 15 1 0
BITMAP
1100
3B80
7700
2200
0000
E380
E380
E380
E380
E380
E380
E380
6380
7F80
3F00
ENDCHAR
STARTCHAR 0172
ENCODING 370
SWIDTH 495 0
DWIDTH 11 0
BBX 9 18 1 -4
BITMAP
E380
E380
E380
E380
E380
E380
E380
E380
E380
E380
E380
E380
7F00
3F00
0E00
0C00
1C00
0E00
ENDCHAR
STARTCHAR 0173
ENCODING 371
SWIDTH 495 0
DWIDTH 11 0
BBX 9 14 1 -4
BITMAP
E380
E380
E380
E380
E380
E380
E380
6380
7F80
3F80
0700
0600
0600
0780
ENDCHAR
STARTCHAR 0174
ENCODING 372
SWIDTH 495 0
DWIDTH 11 0
BBX 9 19 1 0
BITMAP
0800
1C00
3600
2200
0000
C180
C180
C180
C180
C180
DD80
DD80
DD80
D580
F780
F780
E380
E380
E380
ENDCHAR
STARTCHAR 0175
ENCODING 373
SWIDTH 495 0
DWIDTH 11 0
BBX 11 15 0 0
BITMAP
0400
0E00
1B00
1100
0000
E0E0
E0E0
EEE0
6EC0
6EC0
6AC0
7BC0
7BC0
7180
3180
ENDCHAR
STARTCHAR 0176
ENCODING 374
SWIDTH 495 0
DWIDTH 11 0
BBX 11 19 0 0
BITMAP
0400
0E00
1B00
1100
0000
E0E0
71C0
71C0
3180
3B80
1B80
1F00
0F00
0E00
0E00
0E00
0E00
0E00
0E00
ENDCHAR
STARTCHAR 0177
ENCODING 375
SWIDTH 495 0
DWIDTH 11 0
BBX 10 19 0 -4
BITMAP
0400
0E00
1B00
1100
0000
70C0
71C0
31C0
3980
3980
1B80
1F00
1F00
0F00
0E00
0E00
0C00
7C00
F800
ENDCHAR
STARTCHAR 0178
ENCODING 376
SWIDTH 495 0
DWIDTH 11 0
BBX 11 18 0 0
BITMAP
3980
3B80
3980
0000
E0E0
71C0
71C0
3180
3B80
1B80
1F00
0F00
0E00
0E00
0E00
0E00
0E00
0E00
ENDCHAR
STARTCHAR 0179
ENCODING 377
SWIDTH 495 0
DWIDTH 11 0
BBX 9 19 1 0
BITMAP
0400
0E00
3C00
1000
0000
FF80
FF80
0700
0700
0E00
0E00
1C00
3C00
3800
7000
7000
E000
FF80
FF80
ENDCHAR
STARTCHAR 017A
ENCODING 378
SWIDTH 495 0
DWIDTH 11 0
BBX 9 15 1 0
BITMAP
0400
0E00
3C00
1000
0000
7F00
7F00
0700
0E00
1C00
3C00
3800
7000
FF80
FF80
ENDCHAR
STARTCHAR 017B
ENCODING 379
SWIDTH 495 0
DWIDTH 11 0
BBX 9 18 1 0
BITMAP
1C00
1C00
1C00
0000
FF80
FF80
0700
0700
0E00
0E00
1C00
3C00
3800
7000
7000
E000
FF80
FF80
ENDCHAR
STARTCHAR 017C
ENCODING 380
SWIDTH 495 0
DWIDTH 11 0
BBX 9 15 1 0
BITMAP
1C00
1C00
1C00
0000
0000
7F00
7F00
0700
0E00
1C00
3C00
3800
7000
FF80
FF80
ENDCHAR
STARTCHAR 017D
ENCODING 381
SWIDTH 495 0
DWIDTH 11 0
BBX 9 19 1 0
BITMAP
3600
3E00
1C00
0800
0000
FF80
FF80
0700
0700
0E00
0E00
1C00
3C00
3800
7000
7000
E000
FF80
FF80
ENDCHAR
STARTCHAR 017E
ENCODING 382
SWIDTH 495 0
DWIDTH 11 0
BBX 9 15 1 0
BITMAP
3600
3E00
1C00
0800
0000
7F00
7F00
0700
0E00
1C00
3C00
3800
7000
FF80
FF80
ENDCHAR
STARTCHAR 017F
ENCODING 383
SWIDTH 495 0
DWIDTH 11 0
BBX 8 15 3 0
BITMAP
3F
7F
E0
E0
E0
E0
E0
E0
E0
E0
E0
E0
E0
E0
E0
ENDCHAR
STARTCHAR 0180
ENCODING 384
SWIDTH 495 0
DWIDTH 11 0
BBX 10 15 0 0
BITMAP
3000
FE00
FE00
3000
3000
3F00
3F80
31C0
31C0
30C0
30C0
31C0
31C0
3F80
3F00
ENDCHAR
STARTCHAR 0181
ENCODING 385
SWIDTH 495 0
DWIDTH 11 0
BBX 11 14 0 0
BITMAP
3F00
FFC0
DDC0
DCC0
9CC0
1DC0
1F00
1FC0
1CC0
1CE0
1CE0
1CC0
1FC0
1F80
ENDCHAR
STARTCHAR 0182
ENCODING 386
SWIDTH 495 0
DWIDTH 11 0
BBX 9 14 1 0
BITMAP
FF00
FF00
E000
E000
E000
FE00
FF00
E380
E180
E180
E180
E380
FF00
FE00
ENDCHAR
STARTCHAR 0183
ENCODING 387
SWIDTH 495 0
DWIDTH 11 0
BBX 9 15 1 0
BITMAP
FF00
FF00
E000
E000
FE00
FF00
E380
E380
E180
E180
E180
E380
E380
FF00
FE00
ENDCHAR
STARTCHAR 0184
ENCODING 388
SWIDTH 495 0
DWIDTH 11 0
BBX 10 15 0 0
BITMAP
1000
7000
F000
7000
7000
7F00
7F80
71C0
71C0
70C0
70C0
71C0
71C0
7F80
7F00
ENDCHAR
STARTCHAR 0185
ENCODING 389
SWIDTH 495 0
DWIDTH 11 0
BBX 10 14 0 0
BITMAP
1000
7000
F000
7000
3000
3000
3F00
3FC0
31C0
30C0
30C0
31C0
3F80
3F00
ENDCHAR
STARTCHAR 0186
ENCODING 390
SWIDTH 495 0
DWIDTH 11 0
BBX 9 14 1 0
BITMAP
7C00
FE00
8700
0380
0380
0380
0180
0180
0380
0380
0380
8700
FE00
7C00
ENDCHAR
STARTCHAR 0187
ENCODING 391
SWIDTH 495 0
DWIDTH 11 0
BBX 11 15 1 0
BITMAP
01E0
1FC0
7F00
7100
E000
E000
C000
C000
C000
C000
E000
E000
7100
7F00
1F00
ENDCHAR
STARTCHAR 0188
ENCODING 392
SWIDTH 495 0
DWIDTH 11 0
BBX 10 12 1 0
BITMAP
01C0
01C0
1F00
7F00
7000
E000
E000
E000
E000
F000
7F00
1E00
ENDCHAR
STARTCHAR 0189
ENCODING 393
SWIDTH 495 0
DWIDTH 11 0
BBX 10 14 0 0
BITMAP
3E00
3F80
3380
31C0
31C0
30C0
FCC0
FCC0
30C0
31C0
31C0
3380
3F80
3E00
ENDCHAR
STARTCHAR 018A
ENCODING 394
SWIDTH 495 0
DWIDTH 11 0
BBX 11 14 0 0
BITMAP
3F00
7F80
DDC0
DCC0
DCC0
1CE0
1CE0
1CE0
1CE0
1CC0
1CC0
1DC0
1F80
1F00
ENDCHAR
STARTCHAR 018B
ENCODING 395
SWIDTH 495 0
DWIDTH 11 0
BBX 9 14 1 0
BITMAP
7F80
7F80
0380
0380
0380
3F80
7F80
E380
C380
C380
E380
E380
7F80
3F80
ENDCHAR
STARTCHAR 018C
ENCODING 396
SWIDTH 495 0
DWIDTH 11 0
BBX 8 15 1 0
BITMAP
7F
7F
03
03
03
3F
7F
E3
E3
C3
C3
E3
E3
7F
3F
ENDCHAR
STARTCHAR 018D
ENCODING 397
SWIDTH 495 0
DWIDTH 11 0
BBX 9 15 1 -4
BITMAP
3E00
7F00
E380
E380
C180
E380
E380
F700
7E00
3E00
1F00
0700
4700
7E00
7C00
ENDCHAR
STARTCHAR 018E
ENCODING 398
SWIDTH 495 0
DWIDTH 11 0
BBX 9 14 1 0
BITMAP
7F80
7F80
0380
0380
0380
0380
3F80
3F80
0380
0380
0380
0380
FF80
FF80
ENDCHAR
STARTCHAR 018F
ENCODING 399
SWIDTH 495 0
DWIDTH 11 0
BBX 9 14 1 0
BITMAP
7C00
FE00
8700
0380
0180
0180
FF80
FF80
C180
C180
C380
E300
7F00
3C00
ENDCHAR
STARTCHAR 0190
ENCODING 400
SWIDTH 495 0
DWIDTH 11 0
BBX 10 14 1 0
BITMAP
3F00
7F80
F180
E000
E000
7000
3E00
7E00
E000
E000
C000
E080
7FC0
3F00
ENDCHAR
STARTCHAR 0191
ENCODING 401
SWIDTH 495 0
DWIDTH 11 0
BBX 11 18 -1 -4
BITMAP
3FE0
3FE0
3800
3800
3800
3FC0
3FC0
3800
3800
3800
3800
3800
3800
3800
3800
3800
F800
F000
ENDCHAR
STARTCHAR 0192
ENCODING 402
SWIDTH 495 0
DWIDTH 11 0
BBX 11 19 0 -4
BITMAP
07E0
0FE0
1C00
1C00
1C00
7FC0
7FC0
1C00
1C00
1C00
1C00
1C00
1C00
1C00
1C00
1C00
1C00
F800
F000
ENDCHAR
STARTCHAR 0193
ENCODING 403
SWIDTH 495 0
DWIDTH 11 0
BBX 11 15 1 0
BITMAP
01E0
1FC0
7F00
7100
E000
E000
C000
C000
C380
C380
E380
E380
7380
7F80
1F80
ENDCHAR
STARTCHAR 0194
ENCODING 404
SWIDTH 495 0
DWIDTH 11 0
BBX 11 18 0 -4
BITMAP
E0E0
60C0
71C0
3180
3180
1B00
1B00
1B00
0E00
0E00
1F00
1F00
3B80
3B80
3980
3B80
1F80
1F00
ENDCHAR
STARTCHAR 0195
ENCODING 405
SWIDTH 495 0
DWIDTH 11 0
BBX 10 15 1 0
BITMAP
C000
C000
C000
C000
C000
F9C0
F9C0
FDC0
DDC0
DDC0
DDC0
DDC0
CFC0
CF80
C700
ENDCHAR
STARTCHAR 0196
ENCODING 406
SWIDTH 495 0
DWIDTH 11 0
BBX 9 14 1 0
BITMAP
FF00
FF00
3800
3800
3800
3800
3800
3800
3800
3800
3800
1800
1F80
0F80
ENDCHAR
STARTCHAR 0197
ENCODING 407
SWIDTH 495 0
DWIDTH 11 0
BBX 9 14 1 0
BITMAP
FF80
FF80
1C00
1C00
1C00
1C00
7F00
7F00
1C00
1C00
1C00
1C00
FF80
FF80
ENDCHAR
STARTCHAR 0198
ENCODING 408
SWIDTH 495 0
DWIDTH 11 0
BBX 10 14 1 0
BITMAP
E1C0
E3C0
E7C0
EE00
EE00
FC00
F800
FC00
FE00
EF00
E700
E780
E380
E3C0
ENDCHAR
STARTCHAR 0199
ENCODING 409
SWIDTH 495 0
DWIDTH 11 0
BBX 9 15 1 0
BITMAP
3800
7800
E000
E000
E000
E380
E700
EE00
EC00
F800
EC00
EE00
E700
E380
E380
ENDCHAR
STARTCHAR 019A
ENCODING 410
SWIDTH 495 0
DWIDTH 11 0
BBX 10 15 1 0
BITMAP
FC00
FC00
1C00
1C00
1C00
1C00
FF80
FF80
1C00
1C00
1C00
1C00
1C40
0FC0
0780
ENDCHAR
STARTCHAR 019B
ENCODING 411
SWIDTH 495 0
DWIDTH 11 0
BBX 10 15 0 0
BITMAP
F800
7F80
1F80
7E00
2E00
0F00
0F00
1F00
1B80
3B80
3B80
31C0
71C0
71C0
71C0
ENDCHAR
STARTCHAR 019C
ENCODING 412
SWIDTH 495 0
DWIDTH 11 0
BBX 11 14 0 0
BITMAP
E0E0
E0E0
E0E0
E0E0
E0E0
EEE0
EEE0
EEE0
EEE0
EEE0
EEE0
66E0
7FE0
3BE0
ENDCHAR
STARTCHAR 019D
ENCODING 413
SWIDTH 495 0
DWIDTH 11 0
BBX 11 18 -1 -4
BITMAP
3060
3860
3C60
3C60
3E60
3660
3660
3360
3360
31E0
31E0
30E0
30E0
3060
3000
3000
F000
E000
ENDCHAR
STARTCHAR 019E
ENCODING 414
SWIDTH 495 0
DWIDTH 11 0
BBX 9 15 1 -4
BITMAP
7E00
FF00
E300
E380
E380
E380
E380
E380
E380
E380
E380
0380
0380
0380
0380
ENDCHAR
STARTCHAR 019F
ENCODING 415
SWIDTH 495 0
DWIDTH 11 0
BBX 9 14 1 0
BITMAP
3E00
7F00
E380
E380
C380
C180
FF80
FF80
C180
C380
E380
E380
7F00
3E00
ENDCHAR
STARTCHAR 01A0
ENCODING 416
SWIDTH 495 0
DWIDTH 11 0
BBX 10 16 1 0
BITMAP
00C0
00C0
3FC0
7F80
E380
E380
C180
C180
C180
C180
C180
C180
E380
E380
7F00
3E00
ENDCHAR
STARTCHAR 01A1
ENCODING 417
SWIDTH 495 0
DWIDTH 11 0
BBX 10 12 1 0
BITMAP
00C0
3FC0
7FC0
E380
E380
C180
C180
C180
E380
E380
7F00
3E00
ENDCHAR
STARTCHAR 01A2
ENCODING 418
SWIDTH 495 0
DWIDTH 11 0
BBX 9 14 1 0
BITMAP
7700
FF80
CD80
CD80
CD80
CD80
CD80
CD80
CD80
CD80
CD80
CD80
F980
7180
ENDCHAR
STARTCHAR 01A3
ENCODING 419
SWIDTH 495 0
DWIDTH 11 0
BBX 11 15 0 -4
BITMAP
3F80
7FC0
7EC0
66E0
66E0
E6E0
66E0
66E0
66E0
7CE0
3CE0
00E0
00E0
00E0
00E0
ENDCHAR
STARTCHAR 01A4
ENCODING 420
SWIDTH 495 0
DWIDTH 11 0
BBX 10 14 0 0
BITMAP
3F00
7FC0
DCC0
DCC0
DCC0
1CC0
1CC0
1FC0
1F80
1C00
1C00
1C00
1C00
1C00
ENDCHAR
STARTCHAR 01A5
ENCODING 421
SWIDTH 495 0
DWIDTH 11 0
BBX 9 19 1 -4
BITMAP
3800
7800
E000
E000
E000
FE00
FF00
E380
E380
E180
E180
E380
E380
FF00
FE00
E000
E000
E000
E000
ENDCHAR
STARTCHAR 01A6
ENCODING 422
SWIDTH 495 0
DWIDTH 11 0
BBX 10 17 1 -2
BITMAP
E000
FC00
FF00
E700
E380
E380
E380
E700
FF00
FE00
EE00
E700
E300
E380
E180
01C0
01C0
ENDCHAR
STARTCHAR 01A7
ENCODING 423
SWIDTH 495 0
DWIDTH 11 0
BBX 9 14 1 0
BITMAP
7E00
7F00
4380
0380
0380
0F80
3F00
7C00
F000
E000
E000
E180
7F80
3F00
ENDCHAR
STARTCHAR 01A8
ENCODING 424
SWIDTH 495 0
DWIDTH 11 0
BBX 9 10 1 0
BITMAP
7E00
7F00
4300
0700
3F00
7C00
F000
E100
7F80
3F00
ENDCHAR
STARTCHAR 01A9
ENCODING 425
SWIDTH 495 0
DWIDTH 11 0
BBX 9 14 1 0
BITMAP
FF80
FF80
F000
7800
3800
1C00
0E00
0E00
1C00
3800
7000
E000
FF80
FF80
ENDCHAR
STARTCHAR 01AA
ENCODING 426
SWIDTH 495 0
DWIDTH 11 0
BBX 10 19 0 -4
BITMAP
3C00
7E00
E600
E600
7E00
7E00
0600
0600
0600
0600
0600
0600
0600
0600
0600
0600
0700
07C0
03C0
ENDCHAR
STARTCHAR 01AB
ENCODING 427
SWIDTH 495 0
DWIDTH 11 0
BBX 9 17 1 -4
BITMAP
3800
3800
3800
FF80
FF80
3800
3800
3800
3800
3800
3800
1F80
0F80
0180
0180
0F80
0F00
ENDCHAR
STARTCHAR 01AC
ENCODING 428
SWIDTH 495 0
DWIDTH 11 0
BBX 10 14 0 0
BITMAP
7FC0
FFC0
E600
E600
0600
0600
0600
0600
0600
0600
0600
0600
0600
0600
ENDCHAR
STARTCHAR 01AD
ENCODING 429
SWIDTH 495 0
DWIDTH 11 0
BBX 9 15 1 0
BITMAP
0F80
1F80
3800
3800
3800
FF80
FF80
3800
3800
3800
3800
3800
3880
1F80
0F80
ENDCHAR
STARTCHAR 01AE
ENCODING 430
SWIDTH 495 0
DWIDTH 11 0
BBX 9 18 1 -4
BITMAP
FF80
FF80
1C00
1C00
1C00
1C00
1C00
1C00
1C00
1C00
1C00
1C00
1C00
1C00
1C00
1C00
0F00
0700
ENDCHAR
STARTCHAR 01AF
ENCODING 431
SWIDTH 495 0
DWIDTH 11 0
BBX 10 16 1 0
BITMAP
00C0
00C0
C7C0
C780
C700
C700
C700
C700
C700
C700
C700
C700
C700
E700
7E00
3C00
ENDCHAR
STARTCHAR 01B0
ENCODING 432
SWIDTH 495 0
DWIDTH 11 0
BBX 10 12 1 0
BITMAP
01C0
01C0
C7C0
C780
C600
C600
C600
C600
C600
E600
7E00
3E00
ENDCHAR
STARTCHAR 01B1
ENCODING 433
SWIDTH 495 0
DWIDTH 11 0
BBX 11 14 0 0
BITMAP
FBE0
FBE0
3B80
71C0
71C0
E0C0
E0E0
E0E0
E0E0
E0E0
61C0
71C0
3F80
1F00
ENDCHAR
STARTCHAR 01B2
ENCODING 434
SWIDTH 495 0
DWIDTH 11 0
BBX 9 14 1 0
BITMAP
EE00
EF00
E380
E380
E180
E180
E180
E180
E180
E180
E380
E380
7F00
3E00
ENDCHAR
STARTCHAR 01B3
ENCODING 435
SWIDTH 495 0
DWIDTH 11 0
BBX 11 14 0 0
BITMAP
E0E0
71E0
7180
7300
3B00
3F00
1E00
1E00
0E00
0E00
0E00
0E00
0E00
0E00
ENDCHAR
STARTCHAR 01B4
ENCODING 436
SWIDTH 495 0
DWIDTH 11 0
BBX 11 14 0 -4
BITMAP
61E0
71E0
7380
3380
3B00
3B00
1B00
1F00
1E00
0E00
0E00
1C00
7C00
F000
ENDCHAR
STARTCHAR 01B5
ENCODING 437
SWIDTH 495 0
DWIDTH 11 0
BBX 9 14 1 0
BITMAP
FF80
FF80
0780
0700
0E00
0E00
FF80
FF80
3800
3000
7000
E000
FF80
FF80
ENDCHAR
STARTCHAR 01B6
ENCODING 438
SWIDTH 495 0
DWIDTH 11 0
BBX 9 10 1 0
BITMAP
7F00
7F00
0700
0E00
7F00
7F00
3800
7000
FF80
FF80
ENDCHAR
STARTCHAR 01B7
ENCODING 439
SWIDTH 495 0
DWIDTH 11 0
BBX 10 14 1 0
BITMAP
FF80
FF80
0380
0700
0E00
1C00
1E00
1F80
0380
01C0
01C0
8380
FF80
7E00
ENDCHAR
STARTCHAR 01B8
ENCODING 440
SWIDTH 495 0
DWIDTH 11 0
BBX 10 14 1 0
BITMAP
FF80
FF80
7000
3800
3800
1C00
3E00
7000
E000
E000
E000
F080
7FC0
3F80
ENDCHAR
STARTCHAR 01B9
ENCODING 441
SWIDTH 495 0
DWIDTH 11 0
BBX 9 14 1 -4
BITMAP
7F80
7F80
7000
3800
1C00
1C00
3E00
7000
E000
E000
E000
F080
7F80
1F80
ENDCHAR
STARTCHAR 01BA
ENCODING 442
SWIDTH 495 0
DWIDTH 11 0
BBX 9 14 1 -4
BITMAP
FF80
FF80
0700
0E00
1C00
1E00
0300
0380
0380
3F00
7E00
F000
E000
E000
ENDCHAR
STARTCHAR 01BB
ENCODING 443
SWIDTH 495 0
DWIDTH 11 0
BBX 9 14 1 0
BITMAP
7E00
FF00
4700
0380
0380
0700
0700
FF80
FF80
3800
7000
E000
FF80
FF80
ENDCHAR
STARTCHAR 01BC
ENCODING 444
SWIDTH 495 0
DWIDTH 11 0
BBX 9 14 1 0
BITMAP
FF80
FF80
7000
7000
7000
7C00
7F00
0780
0380
0180
0180
4380
FF00
7E00
ENDCHAR
STARTCHAR 01BD
ENCODING 445
SWIDTH 495 0
DWIDTH 11 0
BBX 9 10 1 0
BITMAP
FF80
FF80
6000
7E00
7F00
0380
0380
4380
FF00
7E00
ENDCHAR
STARTCHAR 01BE
ENCODING 446
SWIDTH 495 0
DWIDTH 11 0
BBX 9 14 1 0
BITMAP
3800
3800
3800
3800
FF80
FF80
3800
3E00
1F80
0780
0180
4180
7F80
3E00
ENDCHAR
STARTCHAR 01BF
ENCODING 447
SWIDTH 495 0
DWIDTH 11 0
BBX 9 14 1 -4
BITMAP
7E00
FF00
E380
E380
E380
E380
E380
E700
EF00
FC00
F000
E000
E000
E000
ENDCHAR
STARTCHAR 01C0
ENCODING 448
SWIDTH 495 0
DWIDTH 11 0
BBX 3 19 4 -4
BITMAP
E0
E0
E0
E0
E0
E0
E0
E0
E0
E0
E0
E0
E0
E0
E0
E0
E0
E0
E0
ENDCHAR
STARTCHAR 01C1
ENCODING 449
SWIDTH 495 0
DWIDTH 11 0
BBX 7 19 2 -4
BITMAP
EE
EE
EE
EE
EE
EE
EE
EE
EE
EE
EE
EE
EE
EE
EE
EE
EE
EE
EE
ENDCHAR
STARTCHAR 01C2
ENCODING 450
SWIDTH 495 0
DWIDTH 11 0
BBX 11 20 0 -4
BITMAP
0E00
0E00
0E00
0E00
0E00
0E00
0E00
FFE0
FFE0
0E00
0E00
FFE0
FFE0
0E00
0E00
0E00
0E00
0E00
0E00
0E00
ENDCHAR
STARTCHAR 01C3
ENCODING 451
SWIDTH 495 0
DWIDTH 11 0
BBX 3 14 4 0
BITMAP
E0
E0
E0
E0
E0
E0
E0
E0
E0
00
00
E0
E0
E0
ENDCHAR
STARTCHAR 01C4
ENCODING 452
SWIDTH 495 0
DWIDTH 11 0
BBX 11 18 0 0
BITMAP
0320
01E0
0080
0000
F1E0
F9E0
CC60
CCC0
CCC0
CCC0
CCC0
CD80
CD80
CD80
CD80
CD00
FBE0
F3E0
ENDCHAR
STARTCHAR 01C5
ENCODING 453
SWIDTH 495 0
DWIDTH 11 0
BBX 11 15 0 0
BITMAP
0320
F1E0
F880
CC00
CC00
CDE0
CDE0
CC40
CCC0
CCC0
CC80
CD80
CD80
F9E0
F1E0
ENDCHAR
STARTCHAR 01C6
ENCODING 454
SWIDTH 495 0
DWIDTH 11 0
BBX 11 15 0 0
BITMAP
0F20
0DE0
0C80
0C00
0C00
7DE0
7DE0
EC40
CCC0
CCC0
CC80
CD80
4D80
7DE0
3DE0
ENDCHAR
STARTCHAR 01C7
ENCODING 455
SWIDTH 495 0
DWIDTH 11 0
BBX 11 14 0 0
BITMAP
C060
C060
C060
C060
C060
C060
C060
C060
C060
C060
C060
C0C0
FDC0
FD80
ENDCHAR
STARTCHAR 01C8
ENCODING 456
SWIDTH 495 0
DWIDTH 11 0
BBX 10 18 1 -4
BITMAP
C180
C1C0
C180
C000
C180
C180
C180
C180
C180
C180
C180
C180
FD80
FD80
0180
0180
0F80
0F00
ENDCHAR
STARTCHAR 01C9
ENCODING 457
SWIDTH 495 0
DWIDTH 11 0
BBX 9 19 1 -4
BITMAP
C180
C380
C180
C000
C000
C180
C180
C180
C180
C180
C180
C180
E180
7980
3180
0180
0180
0F00
0E00
ENDCHAR
STARTCHAR 01CA
ENCODING 458
SWIDTH 495 0
DWIDTH 11 0
BBX 11 14 0 0
BITMAP
CC60
CC60
EC60
EC60
EC60
EC60
DC60
DC60
DC60
DC60
CC60
CCC0
CDC0
CD80
ENDCHAR
STARTCHAR 01CB
ENCODING 459
SWIDTH 495 0
DWIDTH 11 0
BBX 10 19 0 -4
BITMAP
00C0
CDC0
CCC0
EC00
EC00
ECC0
ECC0
DCC0
DCC0
DCC0
DCC0
CCC0
CCC0
CCC0
CCC0
00C0
00C0
0780
0700
ENDCHAR
STARTCHAR 01CC
ENCODING 460
SWIDTH 495 0
DWIDTH 11 0
BBX 11 18 0 -4
BITMAP
00C0
00E0
00C0
0000
FCC0
FCC0
C6C0
C6C0
C6C0
C6C0
C6C0
C6C0
C6C0
C6C0
00C0
00C0
07C0
0780
ENDCHAR
STARTCHAR 01CD
ENCODING 461
SWIDTH 495 0
DWIDTH 11 0
BBX 11 19 0 0
BITMAP
1B00
1F00
0E00
0400
0000
0E00
0E00
1F00
1B00
1B00
3B80
3B80
3180
3180
7FC0
7FC0
71C0
60C0
E0E0
ENDCHAR
STARTCHAR 01CE
ENCODING 462
SWIDTH 495 0
DWIDTH 11 0
BBX 9 15 1 0
BITMAP
3600
3E00
1C00
0800
0000
7E00
7F00
0380
0380
3F80
FF80
E380
E380
FF80
7F80
ENDCHAR
STARTCHAR 01CF
ENCODING 463
SWIDTH 495 0
DWIDTH 11 0
BBX 9 19 1 0
BITMAP
3600
3E00
1C00
0800
0000
FF80
FF80
1C00
1C00
1C00
1C00
1C00
1C00
1C00
1C00
1C00
1C00
FF80
FF80
ENDCHAR
STARTCHAR 01D0
ENCODING 464
SWIDTH 495 0
DWIDTH 11 0
BBX 9 15 1 0
BITMAP
2600
7E00
3C00
0800
0000
F800
F800
1800
1800
1800
1800
1800
1C80
1F80
0F80
ENDCHAR
STARTCHAR 01D1
ENCODING 465
SWIDTH 495 0
DWIDTH 11 0
BBX 9 19 1 0
BITMAP
3600
3E00
1C00
0800
0000
3E00
7F00
E380
E380
C180
C180
C180
C180
C180
C180
E380
E380
7F00
3E00
ENDCHAR
STARTCHAR 01D2
ENCODING 466
SWIDTH 495 0
DWIDTH 11 0
BBX 9 15 1 0
BITMAP
3600
3E00
1C00
0800
0000
3E00
7F00
E380
E380
C180
C180
E380
E380
7F00
3E00
ENDCHAR
STARTCHAR 01D3
ENCODING 467
SWIDTH 495 0
DWIDTH 11 0
BBX 9 19 1 0
BITMAP
3600
3E00
1C00
0800
0000
E380
E380
E380
E380
E380
E380
E380
E380
E380
E380
E380
E380
7F00
3E00
ENDCHAR
STARTCHAR 01D4
ENCODING 468
SWIDTH 495 0
DWIDTH 11 0
BBX 9 15 1 0
BITMAP
3600
3E00
1C00
0800
0000
E380
E380
E380
E380
E380
E380
E380
6380
7F80
3F00
ENDCHAR
STARTCHAR 01D5
ENCODING 469
SWIDTH 495 0
DWIDTH 11 0
BBX 9 18 1 0
BITMAP
3E00
3600
7700
3600
0000
E380
E380
E380
E380
E380
E380
E380
E380
E380
E380
E380
7F00
3E00
ENDCHAR
STARTCHAR 01D6
ENCODING 470
SWIDTH 495 0
DWIDTH 11 0
BBX 9 17 1 0
BITMAP
3E00
3E00
0000
3600
3600
0000
0000
E380
E380
E380
E380
E380
E380
E380
6380
7F80
3F00
ENDCHAR
STARTCHAR 01D7
ENCODING 471
SWIDTH 495 0
DWIDTH 11 0
BBX 9 18 1 0
BITMAP
0800
7F00
6B00
6300
0000
E380
E380
E380
E380
E380
E380
E380
E380
E380
E380
E380
7F00
3E00
ENDCHAR
STARTCHAR 01D8
ENCODING 472
SWIDTH 495 0
DWIDTH 11 0
BBX 9 17 1 0
BITMAP
0400
0600
0C00
6B00
6300
0000
0000
E380
E380
E380
E380
E380
E380
E380
6380
7F80
3F00
ENDCHAR
STARTCHAR 01D9
ENCODING 473
SWIDTH 495 0
DWIDTH 11 0
BBX 9 18 1 0
BITMAP
1400
7F00
6B00
6300
0000
E380
E380
E380
E380
E380
E380
E380
E380
E380
E380
E380
7F00
3E00
ENDCHAR
STARTCHAR 01DA
ENCODING 474
SWIDTH 495 0
DWIDTH 11 0
BBX 9 17 1 0
BITMAP
2200
3600
1C00
6B00
6300
0000
0000
E380
E380
E380
E380
E380
E380
E380
6380
7F80
3F00
ENDCHAR
STARTCHAR 01DB
ENCODING 475
SWIDTH 495 0
DWIDTH 11 0
BBX 9 18 1 0
BITMAP
1000
7F00
6B00
6300
0000
E380
E380
E380
E380
E380
E380
E380
E380
E380
E380
E380
7F00
3E00
ENDCHAR
STARTCHAR 01DC
ENCODING 476
SWIDTH 495 0
DWIDTH 11 0
BBX 9 17 1 0
BITMAP
1000
3000
1800
6B00
6300
0000
0000
E380
E380
E380
E380
E380
E380
E380
6380
7F80
3F00
ENDCHAR
STARTCHAR 01DD
ENCODING 477
SWIDTH 495 0
DWIDTH 11 0
BBX 9 10 1 0
BITMAP
FC00
FF00
0380
0380
FF80
FF80
C380
E380
7F00
3E00
ENDCHAR
STARTCHAR 01DE
ENCODING 478
SWIDTH 495 0
DWIDTH 11 0
BBX 11 18 0 0
BITMAP
1F00
1B00
3B80
1B00
0000
0E00
0E00
1F00
1B00
1B00
3B80
3380
3180
7FC0
7FC0
71C0
60C0
E0E0
ENDCHAR
STARTCHAR 01DF
ENCODING 479
SWIDTH 495 0
DWIDTH 11 0
BBX 9 17 1 0
BITMAP
3E00
3E00
0000
3600
3600
0000
0000
7E00
7F00
0380
0380
3F80
FF80
E380
E380
FF80
7F80
ENDCHAR
STARTCHAR 01E0
ENCODING 480
SWIDTH 495 0
DWIDTH 11 0
BBX 11 18 0 0
BITMAP
1F00
0400
0E00
0400
0000
0E00
0E00
1F00
1B00
1B00
3B80
3380
3180
7FC0
7FC0
71C0
60C0
E0E0
ENDCHAR
STARTCHAR 01E1
ENCODING 481
SWIDTH 495 0
DWIDTH 11 0
BBX 9 17 1 0
BITMAP
3E00
3E00
0000
1C00
1C00
0000
0000
7E00
7F00
0380
0380
3F80
FF80
E380
E380
FF80
7F80
ENDCHAR
STARTCHAR 01E2
ENCODING 482
SWIDTH 495 0
DWIDTH 11 0
BBX 11 17 0 0
BITMAP
0FC0
0FC0
0000
0FE0
0FE0
1B00
1B00
1B00
3BC0
3BC0
3300
3300
7F00
7F00
7300
63E0
E3E0
ENDCHAR
STARTCHAR 01E3
ENCODING 483
SWIDTH 495 0
DWIDTH 11 0
BBX 10 14 1 0
BITMAP
3F00
3F00
0000
0000
F300
FF80
1DC0
0CC0
7FC0
FFC0
CC00
CC00
FF80
7380
ENDCHAR
STARTCHAR 01E4
ENCODING 484
SWIDTH 495 0
DWIDTH 11 0
BBX 10 14 1 0
BITMAP
1F00
7F00
7100
E000
E000
C000
C380
C380
CFC0
EFC0
E380
7380
7F80
1F00
ENDCHAR
STARTCHAR 01E5
ENCODING 485
SWIDTH 495 0
DWIDTH 11 0
BBX 9 14 1 -4
BITMAP
3F00
7F00
E300
E300
CF80
CF80
E300
E300
7F00
3F00
0700
8700
FE00
FC00
ENDCHAR
STARTCHAR 01E6
ENCODING 486
SWIDTH 495 0
DWIDTH 11 0
BBX 9 19 1 0
BITMAP
1300
3F00
0E00
0400
0000
1F80
3F80
7080
E000
E000
C000
C380
C380
C380
E380
E380
7380
7F80
1F80
ENDCHAR
STARTCHAR 01E7
ENCODING 487
SWIDTH 495 0
DWIDTH 11 0
BBX 9 19 1 -4
BITMAP
3200
3F00
1C00
0800
0000
3F00
7F80
E380
E380
C380
C380
E380
E380
7F80
3F80
0380
8700
FF00
FC00
ENDCHAR
STARTCHAR 01E8
ENCODING 488
SWIDTH 495 0
DWIDTH 11 0
BBX 10 19 1 0
BITMAP
3600
3E00
1C00
0800
0000
E380
E300
E700
EE00
EE00
FC00
F800
FC00
EE00
EF00
E700
E380
E380
E1C0
ENDCHAR
STARTCHAR 01E9
ENCODING 489
SWIDTH 495 0
DWIDTH 11 0
BBX 9 18 1 0
BITMAP
4C00
7800
3000
0000
E000
E000
E000
E000
E380
E700
EE00
FC00
FC00
EE00
EE00
E700
E380
E380
ENDCHAR
STARTCHAR 01EA
ENCODING 490
SWIDTH 495 0
DWIDTH 11 0
BBX 9 18 1 -4
BITMAP
3E00
7F00
E380
E380
C180
C180
C180
C180
C180
C180
E380
E380
7F00
3F00
1C00
1800
1800
1E00
ENDCHAR
STARTCHAR 01EB
ENCODING 491
SWIDTH 495 0
DWIDTH 11 0
BBX 9 14 1 -4
BITMAP
3E00
7F00
E380
E380
C180
C180
E380
E380
7F80
3F00
0E00
1C00
1800
1E00
ENDCHAR
STARTCHAR 01EC
ENCODING 492
SWIDTH 495 0
DWIDTH 11 0
BBX 9 21 1 -4
BITMAP
7F00
7F00
0000
3E00
7F00
E380
E380
C180
C180
C180
C180
C180
C180
E380
E380
7F00
3F00
1C00
1800
1800
1E00
ENDCHAR
STARTCHAR 01ED
ENCODING 493
SWIDTH 495 0
DWIDTH 11 0
BBX 9 18 1 -4
BITMAP
7F00
7F00
0000
0000
3E00
7F00
E380
E380
C180
C180
E380
E380
7F80
3F00
0E00
1C00
1800
1E00
ENDCHAR
STARTCHAR 01EE
ENCODING 494
SWIDTH 495 0
DWIDTH 11 0
BBX 10 19 1 0
BITMAP
3600
3E00
1C00
0800
0000
FF80
FF80
0380
0700
0E00
1C00
1E00
1F80
0380
01C0
01C0
8380
FF80
7E00
ENDCHAR
STARTCHAR 01EF
ENCODING 495
SWIDTH 495 0
DWIDTH 11 0
BBX 9 19 1 -4
BITMAP
3600
3E00
1C00
0800
0000
FF80
FF80
0700
0E00
1C00
1C00
3E00
0700
0300
0380
0380
8700
FF00
FC00
ENDCHAR
STARTCHAR 01F0
ENCODING 496
SWIDTH 495 0
DWIDTH 11 0
BBX 8 19 1 -4
BITMAP
36
3E
1C
08
00
7F
7F
07
07
07
07
07
07
07
07
07
47
FE
7C
ENDCHAR
STARTCHAR 01F1
ENCODING 497
SWIDTH 495 0
DWIDTH 11 0
BBX 11 14 0 0
BITMAP
F1E0
F9E0
CC60
CCC0
CCC0
CCC0
CCC0
CD80
CD80
CD80
CD80
CD00
FBE0
F3E0
ENDCHAR
STARTCHAR 01F2
ENCODING 498
SWIDTH 495 0
DWIDTH 11 0
BBX 11 14 0 0
BITMAP
F000
F800
CC00
CC00
CDE0
CDE0
CC40
CCC0
CCC0
CC80
CD80
CD80
F9E0
F1E0
ENDCHAR
STARTCHAR 01F3
ENCODING 499
SWIDTH 495 0
DWIDTH 11 0
BBX 11 15 0 0
BITMAP
0C00
0C00
0C00
0C00
0C00
7DE0
7DE0
EC40
CCC0
CCC0
CC80
CD80
4D80
7DE0
3DE0
ENDCHAR
STARTCHAR 01F4
ENCODING 500
SWIDTH 495 0
DWIDTH 11 0
BBX 9 19 1 0
BITMAP
0400
0E00
1E00
1800
0000
1F80
3F80
7080
E000
E000
C000
C380
C380
C380
E380
E380
7380
7F80
1F80
ENDCHAR
STARTCHAR 01F5
ENCODING 501
SWIDTH 495 0
DWIDTH 11 0
BBX 9 19 1 -4
BITMAP
0400
0E00
3C00
1000
0000
3F00
7F80
E380
E380
C380
C380
E380
E380
7F80
3F80
0380
8700
FF00
FC00
ENDCHAR
STARTCHAR 01F6
ENCODING 502
SWIDTH 495 0
DWIDTH 11 0
BBX 10 14 1 0
BITMAP
CC00
CC00
CC00
CC00
CDC0
CDC0
FDC0
FDC0
CDC0
CDC0
CD80
CD80
CF80
C700
ENDCHAR
STARTCHAR 01F7
ENCODING 503
SWIDTH 495 0
DWIDTH 11 0
BBX 9 18 1 -4
BITMAP
7E00
FF00
E380
E380
E180
E180
E180
E380
E380
E700
EE00
FC00
F800
E000
E000
E000
E000
E000
ENDCHAR
STARTCHAR 01F8
ENCODING 504
SWIDTH 495 0
DWIDTH 11 0
BBX 9 19 1 0
BITMAP
1000
3800
1E00
0400
0000
C180
E180
F180
F180
F980
D980
DD80
CD80
CD80
C780
C780
C380
C380
C180
ENDCHAR
STARTCHAR 01F9
ENCODING 505
SWIDTH 495 0
DWIDTH 11 0
BBX 9 15 1 0
BITMAP
1000
3800
3C00
0C00
0000
FE00
FF00
E300
E380
E380
E380
E380
E380
E380
E380
ENDCHAR
STARTCHAR 01FA
ENCODING 506
SWIDTH 495 0
DWIDTH 11 0
BBX 11 18 0 0
BITMAP
0200
0E00
0800
0E00
0A00
0A00
0E00
1F00
1B00
1B00
3B80
3B80
3180
3FC0
7FC0
71C0
60C0
E0E0
ENDCHAR
STARTCHAR 01FB
ENCODING 507
SWIDTH 495 0
DWIDTH 11 0
BBX 9 18 1 0
BITMAP
0400
1C00
1000
0000
1C00
1400
1400
1C00
7E00
7F00
0380
0380
3F80
FF80
E380
E380
FF80
7F80
ENDCHAR
STARTCHAR 01FC
ENCODING 508
SWIDTH 495 0
DWIDTH 11 0
BBX 11 19 0 0
BITMAP
0080
0380
0780
0200
0000
0FE0
0FE0
1B00
1B00
1B00
3BC0
3BC0
3300
3300
7F00
7F00
7300
63E0
E3E0
ENDCHAR
STARTCHAR 01FD
ENCODING 509
SWIDTH 495 0
DWIDTH 11 0
BBX 10 15 1 0
BITMAP
0200
0E00
1E00
1800
0000
F300
FF80
1DC0
0CC0
7FC0
FFC0
CC00
CC00
FF80
7380
ENDCHAR
STARTCHAR 01FE
ENCODING 510
SWIDTH 495 0
DWIDTH 11 0
BBX 9 19 1 -1
BITMAP
0400
0E00
3C00
1100
3F80
7F00
E780
E780
C780
CD80
CD80
D980
D980
F180
F380
E380
7F00
FE00
4000
ENDCHAR
STARTCHAR 01FF
ENCODING 511
SWIDTH 495 0
DWIDTH 11 0
BBX 9 15 1 -1
BITMAP
0400
0E00
3C00
1000
0000
3F80
7F00
E780
E780
CD80
D980
F380
F380
7F00
FE00
ENDCHAR
STARTCHAR 0200
ENCODING 512
SWIDTH 495 0
DWIDTH 11 0
BBX 11 19 0 0
BITMAP
2200
7700
3B80
1900
0000
0E00
0E00
1F00
1B00
1B00
3B80
3B80
3180
3180
7FC0
7FC0
71C0
60C0
E0E0
ENDCHAR
STARTCHAR 0201
ENCODING 513
SWIDTH 495 0
DWIDTH 11 0
BBX 9 15 1 0
BITMAP
4400
6E00
3700
1300
0000
7E00
7F00
0380
0380
3F80
FF80
E380
E380
FF80
7F80
ENDCHAR
STARTCHAR 0202
ENCODING 514
SWIDTH 495 0
DWIDTH 11 0
BBX 11 18 0 0
BITMAP
0E00
1F00
3180
0000
0E00
0E00
1F00
1B00
1B00
3B80
3B80
3180
3180
7FC0
7FC0
71C0
60C0
E0E0
ENDCHAR
STARTCHAR 0203
ENCODING 515
SWIDTH 495 0
DWIDTH 11 0
BBX 9 15 1 0
BITMAP
1C00
3E00
6300
0000
0000
7E00
7F00
0380
0380
3F80
FF80
E380
E380
FF80
7F80
ENDCHAR
STARTCHAR 0204
ENCODING 516
SWIDTH 495 0
DWIDTH 11 0
BBX 9 19 1 0
BITMAP
4400
EE00
7700
3200
0000
FF80
FF80
E000
E000
E000
E000
FF00
FF00
E000
E000
E000
E000
FF80
FF80
ENDCHAR
STARTCHAR 0205
ENCODING 517
SWIDTH 495 0
DWIDTH 11 0
BBX 9 15 1 0
BITMAP
4400
6E00
3700
1300
0000
3E00
7F00
E380
E180
FF80
FF80
E000
E100
7F00
3F00
ENDCHAR
STARTCHAR 0206
ENCODING 518
SWIDTH 495 0
DWIDTH 11 0
BBX 9 18 1 0
BITMAP
1E00
3F00
3300
0000
FF80
FF80
E000
E000
E000
E000
FF00
FF00
E000
E000
E000
E000
FF80
FF80
ENDCHAR
STARTCHAR 0207
ENCODING 519
SWIDTH 495 0
DWIDTH 11 0
BBX 9 15 1 0
BITMAP
1C00
3E00
6300
0000
0000
3E00
7F00
E380
E180
FF80
FF80
E000
E100
7F00
3F00
ENDCHAR
STARTCHAR 0208
ENCODING 520
SWIDTH 495 0
DWIDTH 11 0
BBX 9 19 1 0
BITMAP
4400
EE00
7700
3200
0000
FF80
FF80
1C00
1C00
1C00
1C00
1C00
1C00
1C00
1C00
1C00
1C00
FF80
FF80
ENDCHAR
STARTCHAR 0209
ENCODING 521
SWIDTH 495 0
DWIDTH 11 0
BBX 9 15 1 0
BITMAP
4400
EC00
6600
2200
0000
F800
F800
1800
1800
1800
1800
1800
1C80
1F80
0F80
ENDCHAR
STARTCHAR 020A
ENCODING 522
SWIDTH 495 0
DWIDTH 11 0
BBX 9 18 1 0
BITMAP
1C00
3E00
6300
0000
FF80
FF80
1C00
1C00
1C00
1C00
1C00
1C00
1C00
1C00
1C00
1C00
FF80
FF80
ENDCHAR
STARTCHAR 020B
ENCODING 523
SWIDTH 495 0
DWIDTH 11 0
BBX 9 15 1 0
BITMAP
3C00
7E00
6600
0000
0000
F800
F800
1800
1800
1800
1800
1800
1C80
1F80
0F80
ENDCHAR
STARTCHAR 020C
ENCODING 524
SWIDTH 495 0
DWIDTH 11 0
BBX 9 19 1 0
BITMAP
4400
EE00
7700
1200
0000
3E00
7F00
E380
E380
C180
C180
C180
C180
C180
C180
E380
E380
7F00
3E00
ENDCHAR
STARTCHAR 020D
ENCODING 525
SWIDTH 495 0
DWIDTH 11 0
BBX 9 15 1 0
BITMAP
4400
EE00
7700
1200
0000
3E00
7F00
E380
E380
C180
C180
E380
E380
7F00
3E00
ENDCHAR
STARTCHAR 020E
ENCODING 526
SWIDTH 495 0
DWIDTH 11 0
BBX 9 18 1 0
BITMAP
1C00
3E00
6300
0000
3E00
7F00
E380
E380
C180
C180
C180
C180
C180
C180
E380
E380
7F00
3E00
ENDCHAR
STARTCHAR 020F
ENCODING 527
SWIDTH 495 0
DWIDTH 11 0
BBX 9 15 1 0
BITMAP
1C00
3E00
6300
0000
0000
3E00
7F00
E380
E380
C180
C180
E380
E380
7F00
3E00
ENDCHAR
STARTCHAR 0210
ENCODING 528
SWIDTH 495 0
DWIDTH 11 0
BBX 10 19 1 0
BITMAP
4400
EC00
6600
2200
0000
FE00
FF00
E780
E380
E380
E780
FF00
FE00
E600
E700
E300
E380
E380
E1C0
ENDCHAR
STARTCHAR 0211
ENCODING 529
SWIDTH 495 0
DWIDTH 11 0
BBX 8 15 2 0
BITMAP
48
DC
66
22
00
7F
FF
E0
E0
E0
E0
E0
E0
E0
E0
ENDCHAR
STARTCHAR 0212
ENCODING 530
SWIDTH 495 0
DWIDTH 11 0
BBX 10 18 1 0
BITMAP
3C00
7E00
6600
0000
FE00
FF00
E780
E380
E380
E780
FF00
FE00
E600
E700
E300
E380
E380
E1C0
ENDCHAR
STARTCHAR 0213
ENCODING 531
SWIDTH 495 0
DWIDTH 11 0
BBX 8 15 2 0
BITMAP
3C
7E
66
00
00
7F
FF
E0
E0
E0
E0
E0
E0
E0
E0
ENDCHAR
STARTCHAR 0214
ENCODING 532
SWIDTH 495 0
DWIDTH 11 0
BBX 9 19 1 0
BITMAP
4400
EE00
7700
1200
0000
E380
E380
E380
E380
E380
E380
E380
E380
E380
E380
E380
E380
7F00
3E00
ENDCHAR
STARTCHAR 0215
ENCODING 533
SWIDTH 495 0
DWIDTH 11 0
BBX 9 15 1 0
BITMAP
4400
EE00
7700
1200
0000
E380
E380
E380
E380
E380
E380
E380
6380
7F80
3F00
ENDCHAR
STARTCHAR 0216
ENCODING 534
SWIDTH 495 0
DWIDTH 11 0
BBX 9 18 1 0
BITMAP
1C00
3E00
6300
0000
E380
E380
E380
E380
E380
E380
E380
E380
E380
E380
E380
E380
7F00
3E00
ENDCHAR
STARTCHAR 0217
ENCODING 535
SWIDTH 495 0
DWIDTH 11 0
BBX 9 15 1 0
BITMAP
1C00
3E00
6300
0000
0000
E380
E380
E380
E380
E380
E380
E380
6380
7F80
3F00
ENDCHAR
STARTCHAR 0218
ENCODING 536
SWIDTH 495 0
DWIDTH 11 0
BBX 9 18 1 -4
BITMAP
3F00
7F00
E100
E000
E000
F000
7E00
1F00
0780
0380
0380
C380
FF00
7E00
0000
1C00
3C00
3800
ENDCHAR
STARTCHAR 0219
ENCODING 537
SWIDTH 495 0
DWIDTH 11 0
BBX 9 14 1 -4
BITMAP
3F00
7F00
E100
F000
7E00
3F00
0780
4380
FF00
7E00
0000
1C00
3C00
3800
ENDCHAR
STARTCHAR 021A
ENCODING 538
SWIDTH 495 0
DWIDTH 11 0
BBX 9 18 1 -4
BITMAP
FF80
FF80
1C00
1C00
1C00
1C00
1C00
1C00
1C00
1C00
1C00
1C00
1C00
1C00
0000
0C00
3C00
3800
ENDCHAR
STARTCHAR 021B
ENCODING 539
SWIDTH 495 0
DWIDTH 11 0
BBX 9 17 1 -4
BITMAP
3800
3800
3800
FF80
FF80
3800
3800
3800
3800
3800
3800
1F80
1F80
0000
0600
1E00
1C00
ENDCHAR
STARTCHAR 021C
ENCODING 540
SWIDTH 495 0
DWIDTH 11 0
BBX 9 18 1 -4
BITMAP
7C00
FF00
8700
0380
0380
0380
0700
3E00
3E00
0700
0380
0180
0180
0380
0380
0F00
FE00
F800
ENDCHAR
STARTCHAR 021D
ENCODING 541
SWIDTH 495 0
DWIDTH 11 0
BBX 8 14 2 -4
BITMAP
FC
FE
0E
06
0E
0C
3C
3E
0F
07
07
1E
FC
F0
ENDCHAR
STARTCHAR 021E
ENCODING 542
SWIDTH 495 0
DWIDTH 11 0
BBX 9 19 1 0
BITMAP
3600
3E00
1C00
0800
0000
E380
E380
E380
E380
E380
E380
FF80
FF80
E380
E380
E380
E380
E380
E380
ENDCHAR
STARTCHAR 021F
ENCODING 543
SWIDTH 495 0
DWIDTH 11 0
BBX 9 18 1 0
BITMAP
4C00
7800
3000
0000
E000
E000
E000
E000
FE00
FF00
E300
E380
E380
E380
E380
E380
E380
E380
ENDCHAR
STARTCHAR 0220
ENCODING 544
SWIDTH 495 0
DWIDTH 11 0
BBX 9 18 1 -4
BITMAP
FE00
FF00
E380
E380
E380
E380
E380
E380
E380
E380
E380
E380
E380
E380
0380
0380
0380
0380
ENDCHAR
STARTCHAR 0221
ENCODING 545
SWIDTH 495 0
DWIDTH 11 0
BBX 11 19 0 -4
BITMAP
0300
0300
0300
0300
0300
3F00
7F00
6300
E300
E300
E300
E300
63C0
7FE0
3F20
0720
0F20
1FE0
09C0
ENDCHAR
STARTCHAR 0222
ENCODING 546
SWIDTH 495 0
DWIDTH 11 0
BBX 9 14 1 0
BITMAP
6300
6300
E380
E380
6300
7700
7F00
FF80
E380
C180
C180
E380
FF80
3E00
ENDCHAR
STARTCHAR 0223
ENCODING 547
SWIDTH 495 0
DWIDTH 11 0
BBX 9 15 1 0
BITMAP
E380
E380
E380
E380
E380
7700
3E00
7F00
E380
E380
C180
E380
E380
7F00
3E00
ENDCHAR
STARTCHAR 0224
ENCODING 548
SWIDTH 495 0
DWIDTH 11 0
BBX 9 18 1 -4
BITMAP
FF80
FF80
0700
0700
0E00
0E00
1C00
3C00
3800
7000
7000
E000
FF80
FF80
0180
0180
0F80
0F00
ENDCHAR
STARTCHAR 0225
ENCODING 549
SWIDTH 495 0
DWIDTH 11 0
BBX 9 14 1 -4
BITMAP
7F00
7F00
0700
0E00
1C00
3800
3800
7000
FF80
FF80
0380
0380
0F00
0E00
ENDCHAR
STARTCHAR 0226
ENCODING 550
SWIDTH 495 0
DWIDTH 11 0
BBX 11 18 0 0
BITMAP
0E00
0E00
0E00
0000
0E00
0E00
1F00
1B00
1B00
3B80
3B80
3180
3180
7FC0
7FC0
71C0
60C0
E0E0
ENDCHAR
STARTCHAR 0227
ENCODING 551
SWIDTH 495 0
DWIDTH 11 0
BBX 9 15 1 0
BITMAP
1C00
1C00
1C00
0000
0000
7E00
7F00
0380
0380
3F80
FF80
E380
E380
FF80
7F80
ENDCHAR
STARTCHAR 0228
ENCODING 552
SWIDTH 495 0
DWIDTH 11 0
BBX 9 18 1 -4
BITMAP
FF80
FF80
E000
E000
E000
E000
FF00
FF00
E000
E000
E000
E000
FF80
FF80
0C00
0E00
0600
1C00
ENDCHAR
STARTCHAR 0229
ENCODING 553
SWIDTH 495 0
DWIDTH 11 0
BBX 9 14 1 -4
BITMAP
3E00
7F00
E380
E180
FF80
FF80
E000
E100
7F00
3F00
0C00
0E00
0600
1C00
ENDCHAR
STARTCHAR 022A
ENCODING 554
SWIDTH 495 0
DWIDTH 11 0
BBX 9 18 1 0
BITMAP
3E00
3600
7700
3600
0000
3E00
7F00
E380
E380
C180
C180
C180
C180
C180
E380
E380
7F00
3E00
ENDCHAR
STARTCHAR 022B
ENCODING 555
SWIDTH 495 0
DWIDTH 11 0
BBX 9 17 1 0
BITMAP
3E00
3E00
0000
3600
3600
0000
0000
3E00
7F00
E380
E380
C180
C180
E380
E380
7F00
3E00
ENDCHAR
STARTCHAR 022C
ENCODING 556
SWIDTH 495 0
DWIDTH 11 0
BBX 9 18 1 0
BITMAP
3E00
0000
3A00
2E00
0000
3E00
7F00
E380
E380
C180
C180
C180
C180
C180
E380
E380
7F00
3E00
ENDCHAR
STARTCHAR 022D
ENCODING 557
SWIDTH 495 0
DWIDTH 11 0
BBX 9 17 1 0
BITMAP
3E00
3E00
0000
3A00
3E00
2E00
0000
3E00
7F00
E380
E380
C180
C180
E380
E380
7F00
3E00
ENDCHAR
STARTCHAR 022E
ENCODING 558
SWIDTH 495 0
DWIDTH 11 0
BBX 9 18 1 0
BITMAP
1C00
1C00
1C00
0000
3E00
7F00
E380
E380
C180
C180
C180
C180
C180
C180
E380
E380
7F00
3E00
ENDCHAR
STARTCHAR 022F
ENCODING 559
SWIDTH 495 0
DWIDTH 11 0
BBX 9 15 1 0
BITMAP
1C00
1C00
1C00
0000
0000
3E00
7F00
E380
E380
C180
C180
E380
E380
7F00
3E00
ENDCHAR
STARTCHAR 0230
ENCODING 560
SWIDTH 495 0
DWIDTH 11 0
BBX 9 18 1 0
BITMAP
3E00
0800
1C00
0800
0000
3E00
7F00
E380
E380
C180
C180
C180
C180
C180
E380
E380
7F00
3E00
ENDCHAR
STARTCHAR 0231
ENCODING 561
SWIDTH 495 0
DWIDTH 11 0
BBX 9 17 1 0
BITMAP
3E00
3E00
0000
1C00
1C00
0000
0000
3E00
7F00
E380
E380
C180
C180
E380
E380
7F00
3E00
ENDCHAR
STARTCHAR 0232
ENCODING 562
SWIDTH 495 0
DWIDTH 11 0
BBX 11 17 0 0
BITMAP
3F80
3F80
0000
E0E0
71C0
71C0
3180
3B80
1B80
1F00
0F00
0E00
0E00
0E00
0E00
0E00
0E00
ENDCHAR
STARTCHAR 0233
ENCODING 563
SWIDTH 495 0
DWIDTH 11 0
BBX 10 18 0 -4
BITMAP
3F80
3F80
0000
0000
70C0
71C0
31C0
3980
3980
1B80
1F00
1F00
0F00
0E00
0E00
0C00
7C00
F800
ENDCHAR
STARTCHAR 0234
ENCODING 564
SWIDTH 495 0
DWIDTH 11 0
BBX 10 19 1 -4
BITMAP
F800
F800
1800
1800
1800
1800
1800
1800
1800
1800
1800
1800
1F00
1F80
19C0
38C0
7DC0
EF80
4700
ENDCHAR
STARTCHAR 0235
ENCODING 565
SWIDTH 495 0
DWIDTH 11 0
BBX 10 14 1 -4
BITMAP
FC00
FE00
CE00
C600
C600
C600
C600
C780
C7C0
C640
0E40
1E40
1BC0
1380
ENDCHAR
STARTCHAR 0236
ENCODING 566
SWIDTH 495 0
DWIDTH 11 0
BBX 9 18 1 -4
BITMAP
3800
3800
3800
3800
FF80
FF80
3800
3800
3800
3800
3800
3F00
3F80
3980
3980
F980
DF80
4F00
ENDCHAR
STARTCHAR 0237
ENCODING 567
SWIDTH 495 0
DWIDTH 11 0
BBX 8 14 1 -4
BITMAP
7F
7F
07
07
07
07
07
07
07
07
07
47
FE
7C
ENDCHAR
STARTCHAR 0238
ENCODING 568
SWIDTH 495 0
DWIDTH 11 0
BBX 9 15 1 0
BITMAP
1C00
1C00
1C00
1C00
1C00
7F00
FF80
DD80
DD80
DD80
DD80
DD80
DD80
FF80
7F00
ENDCHAR
STARTCHAR 0239
ENCODING 569
SWIDTH 495 0
DWIDTH 11 0
BBX 9 14 1 -4
BITMAP
7F00
FF80
DD80
DD80
DD80
DD80
DD80
DD80
FF80
7F00
1C00
1C00
1C00
1C00
ENDCHAR
STARTCHAR 023A
ENCODING 570
SWIDTH 495 0
DWIDTH 11 0
BBX 11 18 0 -2
BITMAP
0100
0100
0F00
0F00
1F00
1B00
1B00
3B80
3F80
3580
3580
7FC0
7FC0
7DC0
68C0
E8E0
0800
1800
ENDCHAR
STARTCHAR 023B
ENCODING 571
SWIDTH 495 0
DWIDTH 11 0
BBX 10 17 1 -2
BITMAP
0180
1F80
3FC0
7380
E300
E600
C600
C600
CC00
CC00
EC00
E800
F880
7F80
3F00
3000
3000
ENDCHAR
STARTCHAR 023C
ENCODING 572
SWIDTH 495 0
DWIDTH 11 0
BBX 9 14 1 -2
BITMAP
0100
0300
1F80
7F80
7600
E600
E400
EC00
EC00
F800
7F80
3F80
1000
3000
ENDCHAR
STARTCHAR 023D
ENCODING 573
SWIDTH 495 0
DWIDTH 11 0
BBX 10 14 0 0
BITMAP
3800
3800
3800
3800
3800
3800
FF00
FF00
3800
3800
3800
3800
3FC0
3FC0
ENDCHAR
STARTCHAR 023E
ENCODING 574
SWIDTH 495 0
DWIDTH 11 0
BBX 11 17 0 -2
BITMAP
0060
7FE0
7FC0
1DC0
1F80
1F80
1F00
1E00
1E00
1C00
1C00
3C00
3C00
7C00
7C00
C000
4000
ENDCHAR
STARTCHAR 023F
ENCODING 575
SWIDTH 495 0
DWIDTH 11 0
BBX 9 14 1 -4
BITMAP
3F00
7F00
6100
F000
7C00
3F00
0780
0380
FF00
FE00
7000
3800
1F00
0F00
ENDCHAR
STARTCHAR 0240
ENCODING 576
SWIDTH 495 0
DWIDTH 11 0
BBX 9 14 1 -4
BITMAP
7F00
7F00
0700
0E00
1C00
3C00
7800
7000
F000
F000
1800
0E00
0780
0380
ENDCHAR
STARTCHAR 0241
ENCODING 577
SWIDTH 495 0
DWIDTH 11 0
BBX 9 14 1 0
BITMAP
7E00
FF00
4380
0380
0380
0780
0F00
1E00
3C00
3800
3800
3800
3800
3800
ENDCHAR
STARTCHAR 0242
ENCODING 578
SWIDTH 495 0
DWIDTH 11 0
BBX 8 10 2 0
BITMAP
7C
FE
87
07
1E
3C
78
70
70
70
ENDCHAR
STARTCHAR 0243
ENCODING 579
SWIDTH 495 0
DWIDTH 11 0
BBX 10 14 0 0
BITMAP
3F00
3F80
31C0
31C0
31C0
3180
3F00
3FC0
31C0
FCC0
FCC0
31C0
3F80
3F00
ENDCHAR
STARTCHAR 0244
ENCODING 580
SWIDTH 495 0
DWIDTH 11 0
BBX 11 14 0 0
BITMAP
71C0
71C0
71C0
71C0
71C0
FFE0
FFE0
71C0
71C0
71C0
7180
3380
3F80
1F00
ENDCHAR
STARTCHAR 0245
ENCODING 581
SWIDTH 495 0
DWIDTH 11 0
BBX 11 14 0 0
BITMAP
0E00
0E00
1F00
1B00
1B00
3B80
3B80
3180
3180
71C0
71C0
71C0
60C0
E0E0
ENDCHAR
STARTCHAR 0246
ENCODING 582
SWIDTH 495 0
DWIDTH 11 0
BBX 10 17 1 -2
BITMAP
0080
FFC0
FF80
E180
E300
E300
E300
FF80
FF80
EC00
EC00
EC00
F800
FF80
FF80
3000
1000
ENDCHAR
STARTCHAR 0247
ENCODING 583
SWIDTH 495 0
DWIDTH 11 0
BBX 10 14 0 -2
BITMAP
0100
0100
1F80
3FC0
73C0
66C0
7FC0
FFC0
6C00
7C00
7FC0
3F80
1800
1000
ENDCHAR
STARTCHAR 0248
ENCODING 584
SWIDTH 495 0
DWIDTH 11 0
BBX 10 14 1 0
BITMAP
7F00
7F00
0700
0700
0700
0700
1FC0
1FC0
0700
0700
0700
4700
FE00
7C00
ENDCHAR
STARTCHAR 0249
ENCODING 585
SWIDTH 495 0
DWIDTH 11 0
BBX 10 19 1 -4
BITMAP
0E00
0E00
0E00
0000
0000
7F00
7F00
0700
0700
7FC0
7FC0
0700
0700
0700
0700
0700
4700
FE00
7C00
ENDCHAR
STARTCHAR 024A
ENCODING 586
SWIDTH 495 0
DWIDTH 11 0
BBX 10 18 1 -4
BITMAP
3C00
7E00
E700
E300
C300
C380
C380
C380
C380
C380
E380
E780
7F80
3F80
0380
0380
01C0
01C0
ENDCHAR
STARTCHAR 024B
ENCODING 587
SWIDTH 495 0
DWIDTH 11 0
BBX 10 14 1 -4
BITMAP
3F00
7F00
E300
E300
C300
C300
E300
E300
7F00
3B00
0300
0300
03C0
01C0
ENDCHAR
STARTCHAR 024C
ENCODING 588
SWIDTH 495 0
DWIDTH 11 0
BBX 10 14 0 0
BITMAP
3F00
3F80
39C0
39C0
39C0
39C0
3980
FF80
FF00
3B00
3B80
39C0
39C0
38C0
ENDCHAR
STARTCHAR 024D
ENCODING 589
SWIDTH 495 0
DWIDTH 11 0
BBX 10 10 0 0
BITMAP
1FC0
3FC0
3FC0
3000
3000
FF00
FF00
3000
3000
3000
ENDCHAR
STARTCHAR 024E
ENCODING 590
SWIDTH 495 0
DWIDTH 11 0
BBX 11 14 0 0
BITMAP
70C0
71C0
FFE0
FFE0
3B80
1B00
1B00
1F00
0E00
0E00
0E00
0E00
0E00
0E00
ENDCHAR
STARTCHAR 024F
ENCODING 591
SWIDTH 495 0
DWIDTH 11 0
BBX 11 14 0 -4
BITMAP
71C0
71C0
3180
FFE0
FFE0
1B80
1F00
1F00
0F00
0E00
0E00
0C00
7C00
F800
ENDCHAR
STARTCHAR 0292
ENCODING 658
SWIDTH 495 0
DWIDTH 11 0
BBX 9 14 1 -4
BITMAP
FF80
FF80
0700
0E00
1C00
1C00
3E00
0700
0300
0380
0380
8700
FF00
FC00
ENDCHAR
STARTCHAR 02BC
ENCODING 700
SWIDTH 495 0
DWIDTH 11 0
BBX 3 5 4 10
BITMAP
60
60
E0
E0
C0
ENDCHAR
STARTCHAR 02C6
ENCODING 710
SWIDTH 495 0
DWIDTH 11 0
BBX 5 4 3 11
BITMAP
20
70
D8
88
ENDCHAR
STARTCHAR 02C7
ENCODING 711
SWIDTH 495 0
DWIDTH 11 0
BBX 5 4 3 11
BITMAP
D8
F8
70
20
ENDCHAR
STARTCHAR 02C9
ENCODING 713
SWIDTH 495 0
DWIDTH 11 0
BBX 7 2 2 12
BITMAP
FE
FE
ENDCHAR
STARTCHAR 02D8
ENCODING 728
SWIDTH 495 0
DWIDTH 11 0
BBX 7 3 2 12
BITMAP
C6
7C
38
ENDCHAR
STARTCHAR 02D9
ENCODING 729
SWIDTH 495 0
DWIDTH 11 0
BBX 3 3 4 12
BITMAP
E0
E0
E0
ENDCHAR
STARTCHAR 02DA
ENCODING 730
SWIDTH 495 0
DWIDTH 11 0
BBX 5 4 3 12
BITMAP
70
D8
D8
70
ENDCHAR
STARTCHAR 02DB
ENCODING 731
SWIDTH 495 0
DWIDTH 11 0
BBX 4 4 4 -4
BITMAP
60
C0
C0
F0
ENDCHAR
STARTCHAR 02DC
ENCODING 732
SWIDTH 495 0
DWIDTH 11 0
BBX 7 3 2 12
BITMAP
72
FE
4C
ENDCHAR
STARTCHAR 02DD
ENCODING 733
SWIDTH 495 0
DWIDTH 11 0
BBX 7 4 2 11
BITMAP
22
66
CC
88
ENDCHAR
STARTCHAR 0311
ENCODING 785
SWIDTH 495 0
DWIDTH 11 0
BBX 7 3 2 12
BITMAP
38
7C
C6
ENDCHAR
STARTCHAR 0384
ENCODING 900
SWIDTH 495 0
DWIDTH 11 0
BBX 4 5 4 11
BITMAP
40
70
E0
C0
80
ENDCHAR
STARTCHAR 0385
ENCODING 901
SWIDTH 495 0
DWIDTH 11 0
BBX 9 5 1 11
BITMAP
0C00
CD80
EF80
D980
1800
ENDCHAR
STARTCHAR 0386
ENCODING 902
SWIDTH 495 0
DWIDTH 11 0
BBX 12 14 -1 0
BITMAP
6700
7700
6F80
6D80
ED80
1DC0
1DC0
18C0
18C0
3FE0
3FE0
38E0
3060
7070
ENDCHAR
STARTCHAR 0388
ENCODING 904
SWIDTH 495 0
DWIDTH 11 0
BBX 13 14 -3 0
BITMAP
6FF8
6FF8
6E00
EE00
CE00
0E00
0FF0
0FF0
0E00
0E00
0E00
0E00
0FF8
0FF8
ENDCHAR
STARTCHAR 0389
ENCODING 905
SWIDTH 495 0
DWIDTH 11 0
BBX 13 14 -3 0
BITMAP
6E38
EE38
EE38
CE38
CE38
0E38
0FF8
0FF8
0E38
0E38
0E38
0E38
0E38
0E38
ENDCHAR
STARTCHAR 038A
ENCODING 906
SWIDTH 495 0
DWIDTH 11 0
BBX 13 14 -3 0
BITMAP
6FF8
EFF8
E1C0
C1C0
C1C0
01C0
01C0
01C0
01C0
01C0
01C0
01C0
0FF8
0FF8
ENDCHAR
STARTCHAR 038C
ENCODING 908
SWIDTH 495 0
DWIDTH 11 0
BBX 13 14 -3 0
BITMAP
63E0
67F0
6E38
EE38
CC18
0C18
0C18
0C18
0C18
0C18
0E38
0E38
07F0
03E0
ENDCHAR
STARTCHAR 038E
ENCODING 910
SWIDTH 495 0
DWIDTH 11 0
BBX 15 14 -4 0
BITMAP
6E0E
771C
671C
6318
C3B8
01B8
01F0
00F0
00E0
00E0
00E0
00E0
00E0
00E0
ENDCHAR
STARTCHAR 038F
ENCODING 911
SWIDTH 495 0
DWIDTH 11 0
BBX 14 14 -3 0
BITMAP
63E0
67F0
6E38
EE18
DC1C
1C1C
1C1C
1C1C
0C1C
0E38
0E38
0770
1F7C
1F7C
ENDCHAR
STARTCHAR 0390
ENCODING 912
SWIDTH 495 0
DWIDTH 11 0
BBX 9 16 1 0
BITMAP
0C00
CD80
EF80
D980
1800
0000
F800
F800
1800
1800
1800
1800
1800
1C00
1F80
0F80
ENDCHAR
STARTCHAR 0391
ENCODING 913
SWIDTH 495 0
DWIDTH 11 0
BBX 11 14 0 0
BITMAP
0E00
0E00
1F00
1B00
1B00
3B80
3B80
3180
3180
7FC0
7FC0
71C0
60C0
E0E0
ENDCHAR
STARTCHAR 0392
ENCODING 914
SWIDTH 495 0
DWIDTH 11 0
BBX 9 14 1 0
BITMAP
FE00
FF00
E300
E380
E380
E700
FF00
FF00
E380
E180
E180
E380
FF00
FE00
ENDCHAR
STARTCHAR 0393
ENCODING 915
SWIDTH 495 0
DWIDTH 11 0
BBX 10 14 1 0
BITMAP
3FC0
3FC0
3000
3000
3000
3000
3000
3000
3000
3000
3000
3000
FE00
FE00
ENDCHAR
STARTCHAR 0394
ENCODING 916
SWIDTH 495 0
DWIDTH 11 0
BBX 11 14 0 0
BITMAP
0E00
0E00
1F00
1B00
1B00
3B80
3B80
3180
3180
71C0
71C0
71C0
7FC0
FFE0
ENDCHAR
STARTCHAR 0395
ENCODING 917
SWIDTH 495 0
DWIDTH 11 0
BBX 9 14 1 0
BITMAP
FF80
FF80
E000
E000
E000
E000
FF00
FF00
E000
E000
E000
E000
FF80
FF80
ENDCHAR
STARTCHAR 0396
ENCODING 918
SWIDTH 495 0
DWIDTH 11 0
BBX 9 14 1 0
BITMAP
FF80
FF80
0700
0700
0E00
0E00
1C00
3C00
3800
7000
7000
E000
FF80
FF80
ENDCHAR
STARTCHAR 0397
ENCODING 919
SWIDTH 495 0
DWIDTH 11 0
BBX 9 14 1 0
BITMAP
E380
E380
E380
E380
E380
E380
FF80
FF80
E380
E380
E380
E380
E380
E380
ENDCHAR
STARTCHAR 0398
ENCODING 920
SWIDTH 495 0
DWIDTH 11 0
BBX 11 14 0 0
BITMAP
1F00
3F80
71C0
60C0
60C0
60C0
EEE0
EEE0
60C0
60C0
60C0
71C0
3F80
1F00
ENDCHAR
STARTCHAR 0399
ENCODING 921
SWIDTH 495 0
DWIDTH 11 0
BBX 9 14 1 0
BITMAP
FF80
FF80
1C00
1C00
1C00
1C00
1C00
1C00
1C00
1C00
1C00
1C00
FF80
FF80
ENDCHAR
STARTCHAR 039A
ENCODING 922
SWIDTH 495 0
DWIDTH 11 0
BBX 10 14 1 0
BITMAP
E380
E300
E700
EE00
EE00
FC00
F800
FC00
EE00
EF00
E700
E380
E380
E1C0
ENDCHAR
STARTCHAR 039B
ENCODING 923
SWIDTH 495 0
DWIDTH 11 0
BBX 11 14 0 0
BITMAP
0E00
0E00
1F00
1B00
1B00
3B80
3B80
3180
3180
71C0
71C0
71C0
60C0
E0E0
ENDCHAR
STARTCHAR 039C
ENCODING 924
SWIDTH 495 0
DWIDTH 11 0
BBX 9 14 1 0
BITMAP
E380
E380
E380
F780
F780
D580
DD80
DD80
DD80
C180
C180
C180
C180
C180
ENDCHAR
STARTCHAR 039D
ENCODING 925
SWIDTH 495 0
DWIDTH 11 0
BBX 9 14 1 0
BITMAP
C180
E180
F180
F180
F980
D980
DD80
CD80
CD80
C780
C780
C380
C380
C180
ENDCHAR
STARTCHAR 039E
ENCODING 926
SWIDTH 495 0
DWIDTH 11 0
BBX 9 14 1 0
BITMAP
FF80
FF80
0000
0000
0000
7F00
7F00
0000
0000
0000
0000
0000
FF80
FF80
ENDCHAR
STARTCHAR 039F
ENCODING 927
SWIDTH 495 0
DWIDTH 11 0
BBX 9 14 1 0
BITMAP
3E00
7F00
E380
E380
C180
C180
C180
C180
C180
C180
E380
E380
7F00
3E00
ENDCHAR
STARTCHAR 03A0
ENCODING 928
SWIDTH 495 0
DWIDTH 11 0
BBX 9 14 1 0
BITMAP
FF80
FF80
E380
E380
E380
E380
E380
E380
E380
E380
E380
E380
E380
E380
ENDCHAR
STARTCHAR 03A1
ENCODING 929
SWIDTH 495 0
DWIDTH 11 0
BBX 9 14 1 0
BITMAP
FE00
FF00
E380
E180
E180
E380
E380
FF00
FE00
E000
E000
E000
E000
E000
ENDCHAR
STARTCHAR 03A3
ENCODING 931
SWIDTH 495 0
DWIDTH 11 0
BBX 9 14 1 0
BITMAP
FF80
FF80
F000
7800
3800
1C00
0E00
0E00
1C00
3800
7000
E000
FF80
FF80
ENDCHAR
STARTCHAR 03A4
ENCODING 932
SWIDTH 495 0
DWIDTH 11 0
BBX 9 14 1 0
BITMAP
FF80
FF80
1C00
1C00
1C00
1C00
1C00
1C00
1C00
1C00
1C00
1C00
1C00
1C00
ENDCHAR
STARTCHAR 03A5
ENCODING 933
SWIDTH 495 0
DWIDTH 11 0
BBX 11 14 0 0
BITMAP
E0E0
71C0
71C0
3180
3B80
1B80
1F00
0F00
0E00
0E00
0E00
0E00
0E00
0E00
ENDCHAR
STARTCHAR 03A6
ENCODING 934
SWIDTH 495 0
DWIDTH 11 0
BBX 9 14 1 0
BITMAP
1C00
3E00
7F00
FF80
DD80
DD80
DD80
DD80
DD80
FF80
7F00
3E00
1C00
1C00
ENDCHAR
STARTCHAR 03A7
ENCODING 935
SWIDTH 495 0
DWIDTH 11 0
BBX 11 14 0 0
BITMAP
70C0
71C0
3980
3B80
1F00
1F00
0E00
0F00
1F00
3B80
3B80
71C0
71C0
E0E0
ENDCHAR
STARTCHAR 03A8
ENCODING 936
SWIDTH 495 0
DWIDTH 11 0
BBX 9 14 1 0
BITMAP
C180
C180
C180
DD80
DD80
DD80
DD80
DD80
FF80
7F00
3E00
1C00
1C00
1C00
ENDCHAR
STARTCHAR 03A9
ENCODING 937
SWIDTH 495 0
DWIDTH 11 0
BBX 11 14 0 0
BITMAP
1F00
3F80
71C0
70C0
E0E0
E0E0
E0E0
E0E0
60E0
71C0
71C0
3B80
FBE0
FBE0
ENDCHAR
STARTCHAR 03AA
ENCODING 938
SWIDTH 495 0
DWIDTH 11 0
BBX 9 18 1 0
BITMAP
7300
7700
7300
0000
FF80
FF80
1C00
1C00
1C00
1C00
1C00
1C00
1C00
1C00
1C00
1C00
FF80
FF80
ENDCHAR
STARTCHAR 03AB
ENCODING 939
SWIDTH 495 0
DWIDTH 11 0
BBX 11 18 0 0
BITMAP
3980
3B80
3980
0000
E0E0
71C0
71C0
3180
3B80
1B80
1F00
0F00
0E00
0E00
0E00
0E00
0E00
0E00
ENDCHAR
STARTCHAR 03AC
ENCODING 940
SWIDTH 495 0
DWIDTH 11 0
BBX 10 16 1 0
BITMAP
0400
0E00
0C00
1C00
0800
0000
3F00
7F80
E380
E380
E380
E380
E380
E380
7FC0
3D80
ENDCHAR
STARTCHAR 03AD
ENCODING 941
SWIDTH 495 0
DWIDTH 11 0
BBX 9 16 1 0
BITMAP
0400
0600
0E00
1C00
0800
0000
3F80
7F00
6000
6000
7E00
7E00
6000
E100
7F80
3F00
ENDCHAR
STARTCHAR 03AE
ENCODING 942
SWIDTH 495 0
DWIDTH 11 0
BBX 9 20 1 -4
BITMAP
0400
0E00
0C00
1C00
0800
0000
FE00
FF00
E300
E380
E380
E380
E380
E380
E380
E380
0380
0380
0380
0380
ENDCHAR
STARTCHAR 03AF
ENCODING 943
SWIDTH 495 0
DWIDTH 11 0
BBX 9 16 1 0
BITMAP
0800
0E00
1C00
3800
1000
0000
F800
F800
1800
1800
1800
1800
1800
1C00
1F80
0F80
ENDCHAR
STARTCHAR 03B0
ENCODING 944
SWIDTH 495 0
DWIDTH 11 0
BBX 9 16 1 0
BITMAP
0C00
CD80
EF80
D980
1800
0000
E380
E380
E380
E380
E380
E380
E380
E380
7F00
3E00
ENDCHAR
STARTCHAR 03B1
ENCODING 945
SWIDTH 495 0
DWIDTH 11 0
BBX 10 10 1 0
BITMAP
3F00
7F80
E380
E380
E380
E380
E380
E380
7FC0
3D80
ENDCHAR
STARTCHAR 03B2
ENCODING 946
SWIDTH 495 0
DWIDTH 11 0
BBX 9 19 1 -4
BITMAP
3E00
7F00
6700
E300
E300
E700
EE00
EF00
E380
E180
E180
E180
E380
FF80
FE00
E000
E000
E000
E000
ENDCHAR
STARTCHAR 03B3
ENCODING 947
SWIDTH 495 0
DWIDTH 11 0
BBX 11 14 0 -4
BITMAP
E0E0
70C0
71C0
31C0
3980
3B80
1B00
1F00
1E00
1E00
0C00
0E00
0E00
0E00
ENDCHAR
STARTCHAR 03B4
ENCODING 948
SWIDTH 495 0
DWIDTH 11 0
BBX 9 15 1 0
BITMAP
1F00
3F00
7100
7000
3800
1E00
7F00
E780
E380
C180
C180
E380
E380
7F00
3E00
ENDCHAR
STARTCHAR 03B5
ENCODING 949
SWIDTH 495 0
DWIDTH 11 0
BBX 9 10 1 0
BITMAP
3F80
7F00
6000
6000
7E00
7E00
6000
E100
7F80
3F00
ENDCHAR
STARTCHAR 03B6
ENCODING 950
SWIDTH 495 0
DWIDTH 11 0
BBX 9 19 1 -4
BITMAP
7F80
7F80
0700
0E00
1C00
3800
7000
7000
E000
E000
E000
E000
7800
7E00
1F80
0380
0180
0380
0100
ENDCHAR
STARTCHAR 03B7
ENCODING 951
SWIDTH 495 0
DWIDTH 11 0
BBX 9 14 1 -4
BITMAP
FE00
FF00
E300
E380
E380
E380
E380
E380
E380
E380
0380
0380
0380
0380
ENDCHAR
STARTCHAR 03B8
ENCODING 952
SWIDTH 495 0
DWIDTH 11 0
BBX 9 15 1 0
BITMAP
3E00
7F00
6300
E380
E380
C180
FF80
FF80
C180
C380
E380
E380
6300
7F00
3E00
ENDCHAR
STARTCHAR 03B9
ENCODING 953
SWIDTH 495 0
DWIDTH 11 0
BBX 9 10 1 0
BITMAP
F800
F800
1800
1800
1800
1800
1800
1C00
1F80
0F80
ENDCHAR
STARTCHAR 03BA
ENCODING 954
SWIDTH 495 0
DWIDTH 11 0
BBX 9 10 1 0
BITMAP
E380
E700
EE00
FC00
F800
FC00
EE00
E700
E380
E380
ENDCHAR
STARTCHAR 03BB
ENCODING 955
SWIDTH 495 0
DWIDTH 11 0
BBX 9 15 1 0
BITMAP
F000
F800
3800
1C00
1C00
1E00
1E00
3E00
3F00
7700
7700
6380
E380
E380
E380
ENDCHAR
STARTCHAR 03BC
ENCODING 956
SWIDTH 495 0
DWIDTH 11 0
BBX 9 14 1 -4
BITMAP
E380
E380
E380
E380
E380
E380
E380
E380
FF80
FF00
E000
E000
E000
E000
ENDCHAR
STARTCHAR 03BD
ENCODING 957
SWIDTH 495 0
DWIDTH 11 0
BBX 11 10 0 0
BITMAP
E0E0
70C0
71C0
7180
3380
3B80
1B00
1F00
0E00
0E00
ENDCHAR
STARTCHAR 03BE
ENCODING 958
SWIDTH 495 0
DWIDTH 11 0
BBX 9 19 1 -4
BITMAP
1F80
3F80
7000
7000
7000
7000
3F00
3F00
7000
E000
E000
E000
7000
7E00
1F80
0380
0180
0380
0100
ENDCHAR
STARTCHAR 03BF
ENCODING 959
SWIDTH 495 0
DWIDTH 11 0
BBX 9 10 1 0
BITMAP
3E00
7F00
E380
E380
C180
C180
E380
E380
7F00
3E00
ENDCHAR
STARTCHAR 03C0
ENCODING 960
SWIDTH 495 0
DWIDTH 11 0
BBX 9 10 1 0
BITMAP
FF80
FF80
E380
E380
E380
E380
E380
E380
E380
E380
ENDCHAR
STARTCHAR 03C1
ENCODING 961
SWIDTH 495 0
DWIDTH 11 0
BBX 9 14 1 -4
BITMAP
3E00
7F00
7380
E380
E180
E180
E380
E380
FF00
FE00
E000
E000
E000
E000
ENDCHAR
STARTCHAR 03C2
ENCODING 962
SWIDTH 495 0
DWIDTH 11 0
BBX 9 14 1 -4
BITMAP
1F80
3F80
7000
E000
E000
E000
E000
F000
7E00
3F80
0380
0180
0380
0100
ENDCHAR
STARTCHAR 03C3
ENCODING 963
SWIDTH 495 0
DWIDTH 11 0
BBX 10 10 1 0
BITMAP
3FC0
7FC0
E700
E380
C380
C380
E380
E700
7F00
3E00
ENDCHAR
STARTCHAR 03C4
ENCODING 964
SWIDTH 495 0
DWIDTH 11 0
BBX 9 10 1 0
BITMAP
FF80
FF80
3800
3800
3800
3800
3800
3880
1F80
0F80
ENDCHAR
STARTCHAR 03C5
ENCODING 965
SWIDTH 495 0
DWIDTH 11 0
BBX 9 10 1 0
BITMAP
E380
E380
E380
E380
E380
E380
E380
E380
7F00
3E00
ENDCHAR
STARTCHAR 03C6
ENCODING 966
SWIDTH 495 0
DWIDTH 11 0
BBX 9 14 1 -4
BITMAP
3E00
7F00
DD80
DD80
DD80
DD80
DD80
DD80
7F00
3E00
1C00
1C00
1C00
1C00
ENDCHAR
STARTCHAR 03C7
ENCODING 967
SWIDTH 495 0
DWIDTH 11 0
BBX 9 10 1 0
BITMAP
E380
6300
7700
3E00
1C00
1E00
3600
7700
E380
C380
ENDCHAR
STARTCHAR 03C8
ENCODING 968
SWIDTH 495 0
DWIDTH 11 0
BBX 9 14 1 -4
BITMAP
C180
C180
DD80
DD80
DD80
DD80
DD80
DD80
FF00
3E00
1C00
1C00
1C00
1C00
ENDCHAR
STARTCHAR 03C9
ENCODING 969
SWIDTH 495 0
DWIDTH 11 0
BBX 9 10 1 0
BITMAP
4100
6300
E180
DD80
DD80
DD80
DD80
DD80
F780
7700
ENDCHAR
STARTCHAR 03CA
ENCODING 970
SWIDTH 495 0
DWIDTH 11 0
BBX 9 15 1 0
BITMAP
7300
7700
7300
0000
0000
F800
F800
1800
1800
1800
1800
1800
1C00
1F80
0F80
ENDCHAR
STARTCHAR 03CB
ENCODING 971
SWIDTH 495 0
DWIDTH 11 0
BBX 9 15 1 0
BITMAP
7300
7700
7300
0000
0000
E380
E380
E380
E380
E380
E380
E380
E380
7F00
3E00
ENDCHAR
STARTCHAR 03CC
ENCODING 972
SWIDTH 495 0
DWIDTH 11 0
BBX 9 16 1 0
BITMAP
0400
0E00
0C00
1C00
0800
0000
3E00
7F00
E380
E380
C180
C180
E380
E380
7F00
3E00
ENDCHAR
STARTCHAR 03CD
ENCODING 973
SWIDTH 495 0
DWIDTH 11 0
BBX 9 16 1 0
BITMAP
0400
0E00
1C00
1800
1800
0000
E380
E380
E380
E380
E380
E380
E380
E380
7F00
3E00
ENDCHAR
STARTCHAR 03CE
ENCODING 974
SWIDTH 495 0
DWIDTH 11 0
BBX 9 16 1 0
BITMAP
0400
0E00
1C00
1800
1800
0000
4100
6300
E180
DD80
DD80
DD80
DD80
DD80
F780
7700
ENDCHAR
STARTCHAR 0400
ENCODING 1024
SWIDTH 495 0
DWIDTH 11 0
BBX 9 19 1 0
BITMAP
1000
1C00
1E00
0600
0000
FF80
FF80
E000
E000
E000
E000
FF00
FF00
E000
E000
E000
E000
FF80
FF80
ENDCHAR
STARTCHAR 0401
ENCODING 1025
SWIDTH 495 0
DWIDTH 11 0
BBX 9 18 1 0
BITMAP
7300
7700
7300
0000
FF80
FF80
E000
E000
E000
E000
FF00
FF00
E000
E000
E000
E000
FF80
FF80
ENDCHAR
STARTCHAR 0402
ENCODING 1026
SWIDTH 495 0
DWIDTH 11 0
BBX 11 14 0 0
BITMAP
FF80
FF80
3800
3800
3800
3800
3F80
3FC0
38C0
38E0
38E0
38E0
3BC0
3B80
ENDCHAR
STARTCHAR 0403
ENCODING 1027
SWIDTH 495 0
DWIDTH 11 0
BBX 10 19 1 0
BITMAP
0200
0700
0F00
0C00
0000
3FC0
3FC0
3000
3000
3000
3000
3000
3000
3000
3000
3000
3000
FE00
FE00
ENDCHAR
STARTCHAR 0404
ENCODING 1028
SWIDTH 495 0
DWIDTH 11 0
BBX 9 14 1 0
BITMAP
1F00
3F80
7080
E000
E000
C000
FE00
FE00
C000
E000
E000
7080
7F80
1F00
ENDCHAR
STARTCHAR 0405
ENCODING 1029
SWIDTH 495 0
DWIDTH 11 0
BBX 9 14 1 0
BITMAP
3F00
7F00
E100
E000
E000
F000
7E00
1F00
0780
0380
0380
C380
FF00
7E00
ENDCHAR
STARTCHAR 0406
ENCODING 1030
SWIDTH 495 0
DWIDTH 11 0
BBX 9 14 1 0
BITMAP
FF80
FF80
1C00
1C00
1C00
1C00
1C00
1C00
1C00
1C00
1C00
1C00
FF80
FF80
ENDCHAR
STARTCHAR 0407
ENCODING 1031
SWIDTH 495 0
DWIDTH 11 0
BBX 9 18 1 0
BITMAP
7300
7700
7300
0000
FF80
FF80
1C00
1C00
1C00
1C00
1C00
1C00
1C00
1C00
1C00
1C00
FF80
FF80
ENDCHAR
STARTCHAR 0408
ENCODING 1032
SWIDTH 495 0
DWIDTH 11 0
BBX 9 14 1 0
BITMAP
7F80
7F80
0380
0380
0380
0380
0380
0380
0380
0380
0380
4700
FF00
7C00
ENDCHAR
STARTCHAR 0409
ENCODING 1033
SWIDTH 495 0
DWIDTH 11 0
BBX 11 14 0 0
BITMAP
3E00
3E00
3600
3600
3600
3780
37C0
36C0
36E0
66E0
66E0
66C0
E7C0
C780
ENDCHAR
STARTCHAR 040A
ENCODING 1034
SWIDTH 495 0
DWIDTH 11 0
BBX 10 14 1 0
BITMAP
CC00
CC00
CC00
CC00
CC00
FF00
FF80
CD80
CDC0
CDC0
CDC0
CD80
CF80
CF00
ENDCHAR
STARTCHAR 040B
ENCODING 1035
SWIDTH 495 0
DWIDTH 11 0
BBX 10 14 0 0
BITMAP
FF80
FF80
3800
3800
3800
3F80
3F80
39C0
39C0
39C0
39C0
39C0
39C0
39C0
ENDCHAR
STARTCHAR 040C
ENCODING 1036
SWIDTH 495 0
DWIDTH 11 0
BBX 10 19 1 0
BITMAP
0400
0E00
3C00
1000
0000
E380
E300
E700
EE00
EE00
FC00
F800
FC00
EE00
EF00
E700
E380
E380
E1C0
ENDCHAR
STARTCHAR 040D
ENCODING 1037
SWIDTH 495 0
DWIDTH 11 0
BBX 9 19 1 0
BITMAP
1000
1C00
1E00
0600
0000
C180
C380
C780
C780
CF80
CD80
DD80
D980
D980
F180
F180
E180
E180
C180
ENDCHAR
STARTCHAR 040E
ENCODING 1038
SWIDTH 495 0
DWIDTH 11 0
BBX 11 18 0 0
BITMAP
3180
3F80
1F00
0000
E0E0
71C0
71C0
39C0
3B80
1F80
1F80
0F00
0F00
0700
0600
0E00
7C00
7800
ENDCHAR
STARTCHAR 040F
ENCODING 1039
SWIDTH 495 0
DWIDTH 11 0
BBX 9 18 1 -4
BITMAP
E380
E380
E380
E380
E380
E380
E380
E380
E380
E380
E380
E380
FF80
FF80
1C00
1C00
1C00
1C00
ENDCHAR
STARTCHAR 0410
ENCODING 1040
SWIDTH 495 0
DWIDTH 11 0
BBX 11 14 0 0
BITMAP
0E00
0E00
1F00
1B00
1B00
3B80
3B80
3180
3180
7FC0
7FC0
71C0
60C0
E0E0
ENDCHAR
STARTCHAR 0411
ENCODING 1041
SWIDTH 495 0
DWIDTH 11 0
BBX 9 14 1 0
BITMAP
FF00
FF00
E000
E000
E000
FE00
FF00
E380
E180
E180
E180
E380
FF00
FE00
ENDCHAR
STARTCHAR 0412
ENCODING 1042
SWIDTH 495 0
DWIDTH 11 0
BBX 9 14 1 0
BITMAP
FE00
FF00
E300
E380
E380
E700
FF00
FF00
E380
E180
E180
E380
FF00
FE00
ENDCHAR
STARTCHAR 0413
ENCODING 1043
SWIDTH 495 0
DWIDTH 11 0
BBX 10 14 1 0
BITMAP
3FC0
3FC0
3000
3000
3000
3000
3000
3000
3000
3000
3000
3000
FE00
FE00
ENDCHAR
STARTCHAR 0414
ENCODING 1044
SWIDTH 495 0
DWIDTH 11 0
BBX 11 18 0 -4
BITMAP
1FC0
1FC0
19C0
19C0
19C0
19C0
39C0
39C0
39C0
31C0
31C0
71C0
FFE0
FFE0
E0E0
E0E0
E0E0
E0E0
ENDCHAR
STARTCHAR 0415
ENCODING 1045
SWIDTH 495 0
DWIDTH 11 0
BBX 9 14 1 0
BITMAP
FF80
FF80
E000
E000
E000
E000
FF00
FF00
E000
E000
E000
E000
FF80
FF80
ENDCHAR
STARTCHAR 0416
ENCODING 1046
SWIDTH 495 0
DWIDTH 11 0
BBX 11 14 0 0
BITMAP
EEE0
6EC0
6EC0
2EC0
3F80
3F80
1F00
1F00
3F80
2F80
6EC0
6EC0
6EC0
EEE0
ENDCHAR
STARTCHAR 0417
ENCODING 1047
SWIDTH 495 0
DWIDTH 11 0
BBX 10 14 1 0
BITMAP
7E00
FF00
4380
0380
0380
0700
3E00
3F80
0380
01C0
0180
C380
FF80
7E00
ENDCHAR
STARTCHAR 0418
ENCODING 1048
SWIDTH 495 0
DWIDTH 11 0
BBX 9 14 1 0
BITMAP
C180
C380
C780
C780
CF80
CD80
DD80
D980
D980
F180
F180
E180
E180
C180
ENDCHAR
STARTCHAR 0419
ENCODING 1049
SWIDTH 495 0
DWIDTH 11 0
BBX 9 18 1 0
BITMAP
6300
7F00
3E00
0000
C180
C380
C780
C780
CF80
CD80
DD80
D980
D980
F180
F180
E180
E180
C180
ENDCHAR
STARTCHAR 041A
ENCODING 1050
SWIDTH 495 0
DWIDTH 11 0
BBX 10 14 1 0
BITMAP
E380
E300
E700
EE00
EE00
FC00
F800
FC00
EE00
EF00
E700
E380
E380
E1C0
ENDCHAR
STARTCHAR 041B
ENCODING 1051
SWIDTH 495 0
DWIDTH 11 0
BBX 10 14 0 0
BITMAP
1FC0
1FC0
19C0
19C0
19C0
19C0
19C0
19C0
19C0
39C0
31C0
71C0
E1C0
C1C0
ENDCHAR
STARTCHAR 041C
ENCODING 1052
SWIDTH 495 0
DWIDTH 11 0
BBX 9 14 1 0
BITMAP
E380
E380
E380
F780
F780
D580
DD80
DD80
DD80
C180
C180
C180
C180
C180
ENDCHAR
STARTCHAR 041D
ENCODING 1053
SWIDTH 495 0
DWIDTH 11 0
BBX 9 14 1 0
BITMAP
E380
E380
E380
E380
E380
E380
FF80
FF80
E380
E380
E380
E380
E380
E380
ENDCHAR
STARTCHAR 041E
ENCODING 1054
SWIDTH 495 0
DWIDTH 11 0
BBX 9 14 1 0
BITMAP
3E00
7F00
E380
E380
C180
C180
C180
C180
C180
C180
E380
E380
7F00
3E00
ENDCHAR
STARTCHAR 041F
ENCODING 1055
SWIDTH 495 0
DWIDTH 11 0
BBX 9 14 1 0
BITMAP
FF80
FF80
E380
E380
E380
E380
E380
E380
E380
E380
E380
E380
E380
E380
ENDCHAR
STARTCHAR 0420
ENCODING 1056
SWIDTH 495 0
DWIDTH 11 0
BBX 9 14 1 0
BITMAP
FE00
FF00
E380
E180
E180
E380
E380
FF00
FE00
E000
E000
E000
E000
E000
ENDCHAR
STARTCHAR 0421
ENCODING 1057
SWIDTH 495 0
DWIDTH 11 0
BBX 9 14 1 0
BITMAP
1F00
3F80
7080
E000
E000
C000
C000
C000
C000
E000
E000
7080
7F80
1F00
ENDCHAR
STARTCHAR 0422
ENCODING 1058
SWIDTH 495 0
DWIDTH 11 0
BBX 9 14 1 0
BITMAP
FF80
FF80
1C00
1C00
1C00
1C00
1C00
1C00
1C00
1C00
1C00
1C00
1C00
1C00
ENDCHAR
STARTCHAR 0423
ENCODING 1059
SWIDTH 495 0
DWIDTH 11 0
BBX 11 14 0 0
BITMAP
E0E0
71C0
71C0
39C0
3B80
1F80
1F80
0F00
0F00
0700
0600
0E00
7C00
7800
ENDCHAR
STARTCHAR 0424
ENCODING 1060
SWIDTH 495 0
DWIDTH 11 0
BBX 9 14 1 0
BITMAP
1C00
3E00
7F00
FF80
DD80
DD80
DD80
DD80
DD80
FF80
7F00
3E00
1C00
1C00
ENDCHAR
STARTCHAR 0425
ENCODING 1061
SWIDTH 495 0
DWIDTH 11 0
BBX 11 14 0 0
BITMAP
70C0
71C0
3980
3B80
1F00
1F00
0E00
0F00
1F00
3B80
3B80
71C0
71C0
E0E0
ENDCHAR
STARTCHAR 0426
ENCODING 1062
SWIDTH 495 0
DWIDTH 11 0
BBX 9 18 1 -4
BITMAP
E380
E380
E380
E380
E380
E380
E380
E380
E380
E380
E380
E380
FF80
FF80
0180
0180
0180
0180
ENDCHAR
STARTCHAR 0427
ENCODING 1063
SWIDTH 495 0
DWIDTH 11 0
BBX 9 14 1 0
BITMAP
E380
E380
E380
E380
E380
E380
E380
7F80
3F80
0380
0380
0380
0380
0380
ENDCHAR
STARTCHAR 0428
ENCODING 1064
SWIDTH 495 0
DWIDTH 11 0
BBX 11 14 0 0
BITMAP
E0E0
E0E0
E0E0
E0E0
E0E0
E0E0
EEE0
EEE0
EEE0
EEE0
EEE0
EEE0
FFE0
FFE0
ENDCHAR
STARTCHAR 0429
ENCODING 1065
SWIDTH 495 0
DWIDTH 11 0
BBX 11 18 0 -4
BITMAP
E0C0
E0C0
E0C0
E0C0
E0C0
E0C0
ECC0
ECC0
ECC0
ECC0
ECC0
ECC0
FFE0
FFE0
0060
0060
0060
0060
ENDCHAR
STARTCHAR 042A
ENCODING 1066
SWIDTH 495 0
DWIDTH 11 0
BBX 10 14 0 0
BITMAP
F800
F800
3800
3800
3800
3F00
3F80
39C0
39C0
39C0
39C0
39C0
3F80
3F00
ENDCHAR
STARTCHAR 042B
ENCODING 1067
SWIDTH 495 0
DWIDTH 11 0
BBX 9 14 1 0
BITMAP
C180
C180
C180
C180
C180
F980
FD80
CD80
CD80
CD80
CD80
CD80
FD80
F980
ENDCHAR
STARTCHAR 042C
ENCODING 1068
SWIDTH 495 0
DWIDTH 11 0
BBX 9 14 1 0
BITMAP
E000
E000
E000
E000
E000
FE00
FF00
E380
E380
E180
E380
E380
FF00
FE00
ENDCHAR
STARTCHAR 042D
ENCODING 1069
SWIDTH 495 0
DWIDTH 11 0
BBX 10 14 1 0
BITMAP
7C00
FF00
4780
0380
0180
01C0
3FC0
3FC0
01C0
0180
0380
8700
FF00
7C00
ENDCHAR
STARTCHAR 042E
ENCODING 1070
SWIDTH 495 0
DWIDTH 11 0
BBX 9 14 1 0
BITMAP
C700
CF80
DD80
D980
D980
F980
F980
D980
D980
D980
D980
CD80
CF80
C700
ENDCHAR
STARTCHAR 042F
ENCODING 1071
SWIDTH 495 0
DWIDTH 11 0
BBX 9 14 1 0
BITMAP
1F80
7F80
7380
E380
E380
E380
7380
7F80
3F80
3B80
7380
6380
E380
C380
ENDCHAR
STARTCHAR 0430
ENCODING 1072
SWIDTH 495 0
DWIDTH 11 0
BBX 9 10 1 0
BITMAP
7E00
7F00
0380
0380
3F80
FF80
E380
E380
FF80
7F80
ENDCHAR
STARTCHAR 0431
ENCODING 1073
SWIDTH 495 0
DWIDTH 11 0
BBX 9 15 1 0
BITMAP
0380
1F80
3C00
7000
E000
FE00
FF00
E380
E380
E380
E380
E380
F380
7F00
3E00
ENDCHAR
STARTCHAR 0432
ENCODING 1074
SWIDTH 495 0
DWIDTH 11 0
BBX 9 10 1 0
BITMAP
FE00
FF00
E380
E380
FF00
FF80
E380
E380
FF80
FE00
ENDCHAR
STARTCHAR 0433
ENCODING 1075
SWIDTH 495 0
DWIDTH 11 0
BBX 8 10 2 0
BITMAP
FF
FF
E0
E0
E0
E0
E0
E0
E0
E0
ENDCHAR
STARTCHAR 0434
ENCODING 1076
SWIDTH 495 0
DWIDTH 11 0
BBX 9 13 1 -3
BITMAP
3F80
3F80
3380
3380
3380
7380
6380
6380
FF80
FF80
C180
C180
C180
ENDCHAR
STARTCHAR 0435
ENCODING 1077
SWIDTH 495 0
DWIDTH 11 0
BBX 9 10 1 0
BITMAP
3E00
7F00
E380
E180
FF80
FF80
E000
E100
7F00
3F00
ENDCHAR
STARTCHAR 0436
ENCODING 1078
SWIDTH 495 0
DWIDTH 11 0
BBX 9 10 1 0
BITMAP
DD80
DD80
7F00
7F00
3E00
7F00
7F00
DD80
DD80
DD80
ENDCHAR
STARTCHAR 0437
ENCODING 1079
SWIDTH 495 0
DWIDTH 11 0
BBX 9 10 1 0
BITMAP
FE00
7F00
0300
0300
3E00
3F00
0380
4380
FF00
7E00
ENDCHAR
STARTCHAR 0438
ENCODING 1080
SWIDTH 495 0
DWIDTH 11 0
BBX 9 10 1 0
BITMAP
E380
E780
E780
EF80
FF80
FB80
F380
F380
E380
E380
ENDCHAR
STARTCHAR 0439
ENCODING 1081
SWIDTH 495 0
DWIDTH 11 0
BBX 9 15 1 0
BITMAP
6300
7F00
3E00
0000
0000
E380
E780
E780
EF80
FF80
FB80
F380
F380
E380
E380
ENDCHAR
STARTCHAR 043A
ENCODING 1082
SWIDTH 495 0
DWIDTH 11 0
BBX 9 10 1 0
BITMAP
E380
E700
EE00
FC00
F800
FC00
EE00
E700
E380
E380
ENDCHAR
STARTCHAR 043B
ENCODING 1083
SWIDTH 495 0
DWIDTH 11 0
BBX 10 10 0 0
BITMAP
1FC0
1FC0
19C0
19C0
19C0
19C0
39C0
79C0
F1C0
61C0
ENDCHAR
STARTCHAR 043C
ENCODING 1084
SWIDTH 495 0
DWIDTH 11 0
BBX 9 10 1 0
BITMAP
E380
E380
F780
F780
F780
DD80
DD80
DD80
C180
C180
ENDCHAR
STARTCHAR 043D
ENCODING 1085
SWIDTH 495 0
DWIDTH 11 0
BBX 9 10 1 0
BITMAP
E380
E380
E380
E380
FF80
FF80
E380
E380
E380
E380
ENDCHAR
STARTCHAR 043E
ENCODING 1086
SWIDTH 495 0
DWIDTH 11 0
BBX 9 10 1 0
BITMAP
3E00
7F00
E380
E380
C180
C180
E380
E380
7F00
3E00
ENDCHAR
STARTCHAR 043F
ENCODING 1087
SWIDTH 495 0
DWIDTH 11 0
BBX 9 10 1 0
BITMAP
FF80
FF80
E380
E380
E380
E380
E380
E380
E380
E380
ENDCHAR
STARTCHAR 0440
ENCODING 1088
SWIDTH 495 0
DWIDTH 11 0
BBX 9 14 1 -4
BITMAP
7E00
FF00
E380
E380
E180
E180
E380
E380
FF00
FE00
E000
E000
E000
E000
ENDCHAR
STARTCHAR 0441
ENCODING 1089
SWIDTH 495 0
DWIDTH 11 0
BBX 9 10 1 0
BITMAP
1F80
7F80
7000
E000
E000
E000
E000
7000
7F80
1F80
ENDCHAR
STARTCHAR 0442
ENCODING 1090
SWIDTH 495 0
DWIDTH 11 0
BBX 9 10 1 0
BITMAP
FF80
FF80
1C00
1C00
1C00
1C00
1C00
1C00
1C00
1C00
ENDCHAR
STARTCHAR 0443
ENCODING 1091
SWIDTH 495 0
DWIDTH 11 0
BBX 10 14 0 -4
BITMAP
70C0
71C0
31C0
3980
3980
1B80
1F00
1F00
0F00
0E00
0E00
0C00
7C00
F800
ENDCHAR
STARTCHAR 0444
ENCODING 1092
SWIDTH 495 0
DWIDTH 11 0
BBX 9 19 1 -4
BITMAP
1C00
1C00
1C00
1C00
1C00
3E00
7F00
DD80
DD80
DD80
DD80
DD80
DD80
7F00
3E00
1C00
1C00
1C00
1C00
ENDCHAR
STARTCHAR 0445
ENCODING 1093
SWIDTH 495 0
DWIDTH 11 0
BBX 9 10 1 0
BITMAP
E380
6300
7700
3E00
1C00
1E00
3600
7700
E380
C380
ENDCHAR
STARTCHAR 0446
ENCODING 1094
SWIDTH 495 0
DWIDTH 11 0
BBX 9 13 1 -3
BITMAP
E300
E300
E300
E300
E300
E300
E300
E300
FF80
FF80
0380
0380
0380
ENDCHAR
STARTCHAR 0447
ENCODING 1095
SWIDTH 495 0
DWIDTH 11 0
BBX 9 10 1 0
BITMAP
E380
E380
E380
E380
E380
FF80
3F80
0380
0380
0380
ENDCHAR
STARTCHAR 0448
ENCODING 1096
SWIDTH 495 0
DWIDTH 11 0
BBX 9 10 1 0
BITMAP
C180
C180
DD80
DD80
DD80
DD80
DD80
DD80
FF80
FF80
ENDCHAR
STARTCHAR 0449
ENCODING 1097
SWIDTH 495 0
DWIDTH 11 0
BBX 10 13 1 -3
BITMAP
C180
C180
D980
D980
D980
D980
D980
D980
FFC0
FFC0
01C0
01C0
01C0
ENDCHAR
STARTCHAR 044A
ENCODING 1098
SWIDTH 495 0
DWIDTH 11 0
BBX 10 10 0 0
BITMAP
F800
F800
3800
3F80
3FC0
39C0
38C0
39C0
3FC0
3F80
ENDCHAR
STARTCHAR 044B
ENCODING 1099
SWIDTH 495 0
DWIDTH 11 0
BBX 9 10 1 0
BITMAP
C180
C180
C180
F980
FD80
CD80
CD80
CD80
FD80
F980
ENDCHAR
STARTCHAR 044C
ENCODING 1100
SWIDTH 495 0
DWIDTH 11 0
BBX 9 10 1 0
BITMAP
E000
E000
E000
FE00
FF80
E380
E180
E380
FF80
FF00
ENDCHAR
STARTCHAR 044D
ENCODING 1101
SWIDTH 495 0
DWIDTH 11 0
BBX 9 10 1 0
BITMAP
FC00
FF00
0700
0380
3F80
3F80
0380
8700
FF00
FC00
ENDCHAR
STARTCHAR 044E
ENCODING 1102
SWIDTH 495 0
DWIDTH 11 0
BBX 11 10 0 0
BITMAP
E780
E7C0
ECC0
ECE0
FCE0
FCE0
ECE0
ECC0
E7C0
E780
ENDCHAR
STARTCHAR 044F
ENCODING 1103
SWIDTH 495 0
DWIDTH 11 0
BBX 9 10 1 0
BITMAP
3F80
7F80
E380
E380
E380
7F80
7F80
7380
E380
E380
ENDCHAR
STARTCHAR 0450
ENCODING 1104
SWIDTH 495 0
DWIDTH 11 0
BBX 9 15 1 0
BITMAP
1000
3800
1E00
0400
0000
3E00
7F00
E380
E180
FF80
FF80
E000
E100
7F00
3F00
ENDCHAR
STARTCHAR 0451
ENCODING 1105
SWIDTH 495 0
DWIDTH 11 0
BBX 9 15 1 0
BITMAP
7300
7700
7300
0000
0000
3E00
7F00
E380
E180
FF80
FF80
E000
E100
7F00
3F00
ENDCHAR
STARTCHAR 0452
ENCODING 1106
SWIDTH 495 0
DWIDTH 11 0
BBX 9 20 1 -4
BITMAP
2000
6000
FC00
FC00
6000
6000
7E00
7F00
6300
6380
6380
6380
6380
6380
6380
6380
0380
0380
1F00
1E00
ENDCHAR
STARTCHAR 0453
ENCODING 1107
SWIDTH 495 0
DWIDTH 11 0
BBX 8 15 2 0
BITMAP
04
1C
3C
10
00
FF
FF
E0
E0
E0
E0
E0
E0
E0
E0
ENDCHAR
STARTCHAR 0454
ENCODING 1108
SWIDTH 495 0
DWIDTH 11 0
BBX 9 10 1 0
BITMAP
1F80
7F80
F000
E000
FE00
FE00
E000
F000
7F80
1F80
ENDCHAR
STARTCHAR 0455
ENCODING 1109
SWIDTH 495 0
DWIDTH 11 0
BBX 9 10 1 0
BITMAP
3F00
7F00
E100
F000
7E00
3F00
0780
4380
FF00
7E00
ENDCHAR
STARTCHAR 0456
ENCODING 1110
SWIDTH 495 0
DWIDTH 11 0
BBX 9 15 1 0
BITMAP
3800
3800
3800
0000
F800
F800
1800
1800
1800
1800
1800
1800
1C80
1F80
0F80
ENDCHAR
STARTCHAR 0457
ENCODING 1111
SWIDTH 495 0
DWIDTH 11 0
BBX 9 15 1 0
BITMAP
6700
E700
6700
0000
0000
F800
F800
1800
1800
1800
1800
1800
1C80
1F80
0F80
ENDCHAR
STARTCHAR 0458
ENCODING 1112
SWIDTH 495 0
DWIDTH 11 0
BBX 8 19 1 -4
BITMAP
0E
0E
0E
00
7F
7F
07
07
07
07
07
07
07
07
07
07
47
FE
7C
ENDCHAR
STARTCHAR 0459
ENCODING 1113
SWIDTH 495 0
DWIDTH 11 0
BBX 11 10 0 0
BITMAP
3E00
3E00
3600
3780
37C0
36C0
36E0
66C0
E7C0
C780
ENDCHAR
STARTCHAR 045A
ENCODING 1114
SWIDTH 495 0
DWIDTH 11 0
BBX 10 10 1 0
BITMAP
CC00
CC00
CC00
CF00
FF80
FD80
CDC0
CD80
CF80
CF00
ENDCHAR
STARTCHAR 045B
ENCODING 1115
SWIDTH 495 0
DWIDTH 11 0
BBX 9 15 1 0
BITMAP
6000
6000
FC00
6000
6000
7E00
7F00
6300
6380
6380
6380
6380
6380
6380
6380
ENDCHAR
STARTCHAR 045C
ENCODING 1116
SWIDTH 495 0
DWIDTH 11 0
BBX 9 15 1 0
BITMAP
0400
0E00
1E00
1800
0000
E380
E700
EE00
FC00
F800
FC00
EE00
E700
E380
E380
ENDCHAR
STARTCHAR 045D
ENCODING 1117
SWIDTH 495 0
DWIDTH 11 0
BBX 9 15 1 0
BITMAP
1000
3800
1E00
0400
0000
E380
E780
E780
EF80
FF80
FB80
F380
F380
E380
E380
ENDCHAR
STARTCHAR 045E
ENCODING 1118
SWIDTH 495 0
DWIDTH 11 0
BBX 10 19 0 -4
BITMAP
3180
3F80
1F00
0000
0000
70C0
71C0
31C0
3980
3980
1B80
1F00
1F00
0F00
0E00
0E00
0C00
7C00
F800
ENDCHAR
STARTCHAR 045F
ENCODING 1119
SWIDTH 495 0
DWIDTH 11 0
BBX 9 13 1 -3
BITMAP
E380
E380
E380
E380
E380
E380
E380
E380
FF80
FF80
1C00
1C00
1C00
ENDCHAR
STARTCHAR 0462
ENCODING 1122
SWIDTH 495 0
DWIDTH 11 0
BBX 10 14 0 0
BITMAP
3800
FF00
FF00
3800
3800
3F00
3F80
39C0
39C0
38C0
39C0
39C0
3F80
3F00
ENDCHAR
STARTCHAR 0463
ENCODING 1123
SWIDTH 495 0
DWIDTH 11 0
BBX 10 15 0 0
BITMAP
3800
3800
3800
3800
3800
FF00
FF00
3800
3F80
3FC0
39C0
38C0
39C0
3FC0
3F80
ENDCHAR
STARTCHAR 0472
ENCODING 1138
SWIDTH 495 0
DWIDTH 11 0
BBX 9 14 1 0
BITMAP
3E00
7F00
E380
E380
E180
C180
FF80
FF80
CF80
C180
E380
E380
7F00
3E00
ENDCHAR
STARTCHAR 0473
ENCODING 1139
SWIDTH 495 0
DWIDTH 11 0
BBX 9 10 1 0
BITMAP
3E00
7F00
E380
E380
F980
CF80
E380
E380
7F00
3E00
ENDCHAR
STARTCHAR 0474
ENCODING 1140
SWIDTH 495 0
DWIDTH 11 0
BBX 11 14 0 0
BITMAP
E0E0
E1E0
6180
6380
7380
7300
7300
3300
3700
3E00
3E00
1E00
1E00
1C00
ENDCHAR
STARTCHAR 0475
ENCODING 1141
SWIDTH 495 0
DWIDTH 11 0
BBX 11 10 0 0
BITMAP
E1E0
61E0
7380
7380
3300
3700
3F00
1E00
1E00
0C00
ENDCHAR
STARTCHAR 048A
ENCODING 1162
SWIDTH 495 0
DWIDTH 11 0
BBX 10 22 1 -4
BITMAP
6300
7F00
1E00
0000
C180
C380
C780
C780
CF80
CD80
DD80
D980
F980
F180
F180
E1C0
E1C0
C1C0
0180
0180
0300
0300
ENDCHAR
STARTCHAR 048B
ENCODING 1163
SWIDTH 495 0
DWIDTH 11 0
BBX 9 18 1 -3
BITMAP
6300
7F00
3E00
0000
0000
E380
E780
E780
EF80
FF80
FB80
F380
F380
E380
E380
0380
0300
0300
ENDCHAR
STARTCHAR 048C
ENCODING 1164
SWIDTH 495 0
DWIDTH 11 0
BBX 10 14 0 0
BITMAP
3000
FC00
FC00
3000
3000
3F00
3F80
31C0
31C0
30C0
31C0
31C0
3F80
3F00
ENDCHAR
STARTCHAR 048D
ENCODING 1165
SWIDTH 495 0
DWIDTH 11 0
BBX 10 10 0 0
BITMAP
3000
FE00
FE00
3000
3F80
3FC0
31C0
31C0
3FC0
3F80
ENDCHAR
STARTCHAR 048E
ENCODING 1166
SWIDTH 495 0
DWIDTH 11 0
BBX 9 14 1 0
BITMAP
FE00
FF00
E380
E180
E580
ED80
E780
FF00
FF00
E380
E100
E000
E000
E000
ENDCHAR
STARTCHAR 048F
ENCODING 1167
SWIDTH 495 0
DWIDTH 11 0
BBX 9 14 1 -4
BITMAP
7E00
FF00
E380
E380
E180
E180
ED80
EF80
FF80
FF00
E300
E180
E000
E000
ENDCHAR
STARTCHAR 0490
ENCODING 1168
SWIDTH 495 0
DWIDTH 11 0
BBX 9 17 1 0
BITMAP
0180
0180
0180
3F80
3F80
3000
3000
3000
3000
3000
3000
3000
3000
3000
3000
FE00
FE00
ENDCHAR
STARTCHAR 0491
ENCODING 1169
SWIDTH 495 0
DWIDTH 11 0
BBX 8 13 2 0
BITMAP
07
07
07
FF
FF
E0
E0
E0
E0
E0
E0
E0
E0
ENDCHAR
STARTCHAR 0492
ENCODING 1170
SWIDTH 495 0
DWIDTH 11 0
BBX 10 14 1 0
BITMAP
3FC0
3FC0
3000
3000
3000
FE00
FE00
3000
3000
3000
3000
3000
FE00
FE00
ENDCHAR
STARTCHAR 0493
ENCODING 1171
SWIDTH 495 0
DWIDTH 11 0
BBX 10 10 0 0
BITMAP
3FC0
3FC0
3800
3800
3800
FE00
FE00
3800
3800
3800
ENDCHAR
STARTCHAR 0494
ENCODING 1172
SWIDTH 495 0
DWIDTH 11 0
BBX 10 18 1 -4
BITMAP
FF00
FF00
E000
E000
E000
FE00
FF00
E380
E380
E180
E180
E1C0
E180
E180
0380
0380
1F00
1E00
ENDCHAR
STARTCHAR 0495
ENCODING 1173
SWIDTH 495 0
DWIDTH 11 0
BBX 9 14 1 -4
BITMAP
FF00
FF00
E000
E000
FE00
FF00
E380
E180
E180
E180
0180
0380
0F00
0E00
ENDCHAR
STARTCHAR 0496
ENCODING 1174
SWIDTH 495 0
DWIDTH 11 0
BBX 11 18 0 -4
BITMAP
EEE0
6EC0
6EC0
2EC0
3F80
3F80
1F00
1F00
3F80
2F80
6EC0
6EC0
6EE0
EEE0
0060
0060
0060
0060
ENDCHAR
STARTCHAR 0497
ENCODING 1175
SWIDTH 495 0
DWIDTH 11 0
BBX 10 13 1 -3
BITMAP
DD80
DD80
7F00
7F00
3E00
7F00
7F00
DD80
DDC0
DDC0
00C0
00C0
00C0
ENDCHAR
STARTCHAR 0498
ENCODING 1176
SWIDTH 495 0
DWIDTH 11 0
BBX 10 18 1 -4
BITMAP
7E00
FF00
4380
0380
0380
0700
3E00
3F80
0380
0180
01C0
C380
FF80
7F00
1800
0C00
0C00
3C00
ENDCHAR
STARTCHAR 0499
ENCODING 1177
SWIDTH 495 0
DWIDTH 11 0
BBX 9 15 1 -4
BITMAP
FE00
7F00
0300
0300
3F00
3F00
0300
0380
4300
FF00
7E00
1800
0C00
0C00
3C00
ENDCHAR
STARTCHAR 049A
ENCODING 1178
SWIDTH 495 0
DWIDTH 11 0
BBX 9 18 1 -4
BITMAP
E380
E700
E700
EE00
EC00
FC00
F800
FC00
FE00
EE00
E700
E700
E380
E380
0180
0180
0180
0180
ENDCHAR
STARTCHAR 049B
ENCODING 1179
SWIDTH 495 0
DWIDTH 11 0
BBX 9 13 1 -3
BITMAP
E700
E700
EE00
FC00
F800
FC00
EE00
E600
E780
E380
0380
0380
0380
ENDCHAR
STARTCHAR 049C
ENCODING 1180
SWIDTH 495 0
DWIDTH 11 0
BBX 10 14 1 0
BITMAP
C180
C380
D380
D300
D700
F600
FC00
DE00
D600
D700
C300
C380
C180
C1C0
ENDCHAR
STARTCHAR 049D
ENCODING 1181
SWIDTH 495 0
DWIDTH 11 0
BBX 10 10 1 0
BITMAP
C180
C380
DB00
DE00
FC00
DE00
DF00
DB80
C380
C1C0
ENDCHAR
STARTCHAR 049E
ENCODING 1182
SWIDTH 495 0
DWIDTH 11 0
BBX 10 15 1 0
BITMAP
7000
7180
FB80
FB80
7700
7E00
7E00
7C00
7C00
7E00
7700
7300
7380
7380
71C0
ENDCHAR
STARTCHAR 049F
ENCODING 1183
SWIDTH 495 0
DWIDTH 11 0
BBX 10 11 0 0
BITMAP
7000
FDC0
7380
7700
7600
7C00
7E00
7700
7380
71C0
71C0
ENDCHAR
STARTCHAR 04A0
ENCODING 1184
SWIDTH 495 0
DWIDTH 11 0
BBX 11 14 0 0
BITMAP
F9C0
F9C0
3980
3B80
3B00
3F00
3E00
3F00
3B00
3B80
39C0
39C0
39C0
38E0
ENDCHAR
STARTCHAR 04A1
ENCODING 1185
SWIDTH 495 0
DWIDTH 11 0
BBX 10 10 0 0
BITMAP
F9C0
FB80
3B80
3F00
3E00
3F00
3B80
3B80
39C0
39C0
ENDCHAR
STARTCHAR 04A2
ENCODING 1186
SWIDTH 495 0
DWIDTH 11 0
BBX 9 18 1 -4
BITMAP
E380
E380
E380
E380
E380
FF80
FF80
E380
E380
E380
E380
E380
E380
E380
0180
0180
0180
0180
ENDCHAR
STARTCHAR 04A3
ENCODING 1187
SWIDTH 495 0
DWIDTH 11 0
BBX 9 13 1 -3
BITMAP
E300
E300
E300
E300
FF00
FF00
E300
E300
E380
E380
0180
0180
0180
ENDCHAR
STARTCHAR 04A4
ENCODING 1188
SWIDTH 495 0
DWIDTH 11 0
BBX 10 14 1 0
BITMAP
E7C0
E7C0
E700
E700
E700
E700
FF00
FF00
E700
E700
E700
E700
E700
E700
ENDCHAR
STARTCHAR 04A5
ENCODING 1189
SWIDTH 495 0
DWIDTH 11 0
BBX 10 10 1 0
BITMAP
E7C0
E7C0
E700
E700
FF00
FF00
E700
E700
E700
E700
ENDCHAR
STARTCHAR 04A6
ENCODING 1190
SWIDTH 495 0
DWIDTH 11 0
BBX 10 18 1 -4
BITMAP
F800
F800
D800
D800
D800
DF00
DF80
D980
D980
D980
D980
D9C0
D980
D980
0180
0180
0780
0700
ENDCHAR
STARTCHAR 04A7
ENCODING 1191
SWIDTH 495 0
DWIDTH 11 0
BBX 10 14 1 -4
BITMAP
F800
F800
D800
D800
DF00
DF80
D980
D980
D9C0
D9C0
0180
0180
0780
0700
ENDCHAR
STARTCHAR 04A8
ENCODING 1192
SWIDTH 495 0
DWIDTH 11 0
BBX 11 17 0 -3
BITMAP
0F80
3F80
3880
7000
6380
67C0
E6E0
EEE0
ECE0
6CE0
6CC0
7FC0
3F80
1F00
0700
03C0
01C0
ENDCHAR
STARTCHAR 04A9
ENCODING 1193
SWIDTH 495 0
DWIDTH 11 0
BBX 11 13 0 -3
BITMAP
1F00
3F00
7000
63C0
E7C0
EEE0
6CE0
7CE0
3FC0
1F80
0780
03C0
00C0
ENDCHAR
STARTCHAR 04AA
ENCODING 1194
SWIDTH 495 0
DWIDTH 11 0
BBX 9 18 1 -4
BITMAP
1F00
3F80
7080
E000
E000
C000
C000
C000
C000
E000
E000
7080
7F80
1F00
0C00
0E00
0600
1C00
ENDCHAR
STARTCHAR 04AB
ENCODING 1195
SWIDTH 495 0
DWIDTH 11 0
BBX 9 14 1 -4
BITMAP
1F80
7F80
7000
E000
E000
E000
E000
F000
7F80
3F80
0C00
0E00
0600
1C00
ENDCHAR
STARTCHAR 04AC
ENCODING 1196
SWIDTH 495 0
DWIDTH 11 0
BBX 9 18 1 -4
BITMAP
FF80
FF80
1C00
1C00
1C00
1C00
1C00
1C00
1C00
1C00
1C00
1C00
1E00
1E00
0600
0600
0600
0600
ENDCHAR
STARTCHAR 04AD
ENCODING 1197
SWIDTH 495 0
DWIDTH 11 0
BBX 9 13 1 -3
BITMAP
FF80
FF80
1C00
1C00
1C00
1C00
1C00
1C00
1F00
1F00
0700
0700
0700
ENDCHAR
STARTCHAR 04AE
ENCODING 1198
SWIDTH 495 0
DWIDTH 11 0
BBX 11 14 0 0
BITMAP
E0E0
71C0
71C0
3180
3B80
1B80
1F00
0F00
0E00
0E00
0E00
0E00
0E00
0E00
ENDCHAR
STARTCHAR 04AF
ENCODING 1199
SWIDTH 495 0
DWIDTH 11 0
BBX 11 14 0 -4
BITMAP
E0E0
71C0
71C0
71C0
3B80
3B80
1B00
1F00
1E00
0E00
0E00
0E00
0E00
0E00
ENDCHAR
STARTCHAR 04B0
ENCODING 1200
SWIDTH 495 0
DWIDTH 11 0
BBX 11 14 0 0
BITMAP
E0E0
71C0
71C0
3180
3B80
1B00
1F00
0E00
7FC0
7FC0
0E00
0E00
0E00
0E00
ENDCHAR
STARTCHAR 04B1
ENCODING 1201
SWIDTH 495 0
DWIDTH 11 0
BBX 11 14 0 -4
BITMAP
E0E0
71C0
71C0
3180
3B80
3B80
1B00
1F00
3F80
3F80
0E00
0E00
0E00
0E00
ENDCHAR
STARTCHAR 04B2
ENCODING 1202
SWIDTH 495 0
DWIDTH 11 0
BBX 10 18 0 -4
BITMAP
71C0
7180
3380
3B00
1F00
1E00
0E00
1E00
1F00
3B00
3380
7380
71C0
E1C0
00C0
00C0
00C0
00C0
ENDCHAR
STARTCHAR 04B3
ENCODING 1203
SWIDTH 495 0
DWIDTH 11 0
BBX 9 13 1 -3
BITMAP
E380
E700
7600
3E00
1C00
3C00
3E00
7700
E380
C380
0180
0180
0180
ENDCHAR
STARTCHAR 04B4
ENCODING 1204
SWIDTH 495 0
DWIDTH 11 0
BBX 11 18 0 -4
BITMAP
FDC0
FDC0
39C0
39C0
39C0
39C0
39C0
39C0
39C0
39C0
39C0
39C0
3FE0
3FE0
00E0
00E0
00E0
00E0
ENDCHAR
STARTCHAR 04B5
ENCODING 1205
SWIDTH 495 0
DWIDTH 11 0
BBX 10 13 0 -3
BITMAP
FDC0
FDC0
31C0
31C0
31C0
31C0
31C0
31C0
3FC0
3FC0
00C0
00C0
00C0
ENDCHAR
STARTCHAR 04B6
ENCODING 1206
SWIDTH 495 0
DWIDTH 11 0
BBX 9 18 1 -4
BITMAP
E380
E380
E380
E380
E380
E380
FF80
7F80
3F80
0380
0380
0380
0380
0380
0180
0180
0180
0180
ENDCHAR
STARTCHAR 04B7
ENCODING 1207
SWIDTH 495 0
DWIDTH 11 0
BBX 9 13 1 -3
BITMAP
E300
E300
E300
E300
FF00
FF00
7F00
0300
0380
0380
0380
0380
0380
ENDCHAR
STARTCHAR 04B8
ENCODING 1208
SWIDTH 495 0
DWIDTH 11 0
BBX 9 14 1 0
BITMAP
C380
C380
C380
C380
C380
CB80
EB80
FF80
3F80
0B80
0B80
0380
0380
0380
ENDCHAR
STARTCHAR 04B9
ENCODING 1209
SWIDTH 495 0
DWIDTH 11 0
BBX 9 10 1 0
BITMAP
E380
E380
E380
EB80
EB80
FF80
3F80
0B80
0380
0380
ENDCHAR
STARTCHAR 04BA
ENCODING 1210
SWIDTH 495 0
DWIDTH 11 0
BBX 9 14 1 0
BITMAP
E000
E000
E000
E000
E000
FE00
FF00
E380
E380
E380
E380
E380
E380
E380
ENDCHAR
STARTCHAR 04BB
ENCODING 1211
SWIDTH 495 0
DWIDTH 11 0
BBX 9 15 1 0
BITMAP
E000
E000
E000
E000
E000
FE00
FF00
E300
E380
E380
E380
E380
E380
E380
E380
ENDCHAR
STARTCHAR 04BC
ENCODING 1212
SWIDTH 495 0
DWIDTH 11 0
BBX 11 14 0 0
BITMAP
0380
07C0
0CC0
0CC0
CCE0
DCE0
7FE0
7FE0
1C00
1C00
0C00
0C40
07C0
03C0
ENDCHAR
STARTCHAR 04BD
ENCODING 1213
SWIDTH 495 0
DWIDTH 11 0
BBX 10 10 0 0
BITMAP
0700
0F80
CCC0
D8C0
7FC0
3FC0
1800
1C40
0FC0
0780
ENDCHAR
STARTCHAR 04BE
ENCODING 1214
SWIDTH 495 0
DWIDTH 11 0
BBX 11 17 0 -3
BITMAP
0780
0FC0
0CC0
0CC0
DCE0
DCE0
7FE0
3FE0
1C00
1C00
0C00
0C40
0FC0
07C0
0300
0300
0300
ENDCHAR
STARTCHAR 04BF
ENCODING 1215
SWIDTH 495 0
DWIDTH 11 0
BBX 10 13 0 -3
BITMAP
0700
0F80
CCC0
D8C0
FFC0
7FC0
1800
1C40
0F80
0780
0300
0300
0300
ENDCHAR
STARTCHAR 04C0
ENCODING 1216
SWIDTH 495 0
DWIDTH 11 0
BBX 9 14 1 0
BITMAP
FF80
FF80
1C00
1C00
1C00
1C00
1C00
1C00
1C00
1C00
1C00
1C00
FF80
FF80
ENDCHAR
STARTCHAR 04C1
ENCODING 1217
SWIDTH 495 0
DWIDTH 11 0
BBX 11 18 0 0
BITMAP
3180
3F80
1F00
0000
EEE0
6EC0
6EC0
2EC0
3F80
3F80
1F00
1F00
3F80
2F80
6EC0
6EC0
6EC0
EEE0
ENDCHAR
STARTCHAR 04C2
ENCODING 1218
SWIDTH 495 0
DWIDTH 11 0
BBX 9 15 1 0
BITMAP
6300
7F00
3E00
0000
0000
DD80
DD80
7F00
7F00
3E00
7F00
7F00
DD80
DD80
DD80
ENDCHAR
STARTCHAR 04C3
ENCODING 1219
SWIDTH 495 0
DWIDTH 11 0
BBX 10 18 1 -4
BITMAP
E3C0
E380
E700
EE00
FC00
FC00
FE00
FF00
E380
E180
E180
E1C0
E1C0
E180
0180
0380
1F00
1E00
ENDCHAR
STARTCHAR 04C4
ENCODING 1220
SWIDTH 495 0
DWIDTH 11 0
BBX 9 14 1 -4
BITMAP
E380
E700
EE00
EC00
FE00
FF00
E380
E180
E180
E180
0180
0380
1F00
1E00
ENDCHAR
STARTCHAR 04C5
ENCODING 1221
SWIDTH 495 0
DWIDTH 11 0
BBX 10 18 0 -4
BITMAP
1FC0
1FC0
1DC0
1DC0
1DC0
1DC0
19C0
19C0
19C0
39C0
39C0
71C0
E1C0
C1C0
00C0
0180
0380
0100
ENDCHAR
STARTCHAR 04C6
ENCODING 1222
SWIDTH 495 0
DWIDTH 11 0
BBX 10 13 0 -3
BITMAP
1FC0
1FC0
19C0
19C0
19C0
19C0
39C0
71C0
F1C0
61C0
01C0
0180
0180
ENDCHAR
STARTCHAR 04C7
ENCODING 1223
SWIDTH 495 0
DWIDTH 11 0
BBX 9 18 1 -4
BITMAP
E380
E380
E380
E380
E380
E380
FF80
FF80
E380
E380
E380
E380
E380
E380
0380
0380
0F00
1E00
ENDCHAR
STARTCHAR 04C8
ENCODING 1224
SWIDTH 495 0
DWIDTH 11 0
BBX 9 14 1 -4
BITMAP
E380
E380
E380
E380
FF80
FF80
E380
E380
E380
E380
0380
0380
1F00
1E00
ENDCHAR
STARTCHAR 04C9
ENCODING 1225
SWIDTH 495 0
DWIDTH 11 0
BBX 9 18 1 -4
BITMAP
E380
E380
E380
E380
E380
E380
FF80
FF80
E380
E380
E380
E380
E380
E380
0180
0300
0300
0200
ENDCHAR
STARTCHAR 04CA
ENCODING 1226
SWIDTH 495 0
DWIDTH 11 0
BBX 9 13 1 -3
BITMAP
E380
E380
E380
E380
FF80
FF80
E380
E380
E380
E380
0380
0300
0300
ENDCHAR
STARTCHAR 04CB
ENCODING 1227
SWIDTH 495 0
DWIDTH 11 0
BBX 9 18 1 -4
BITMAP
E380
E380
E380
E380
E380
E380
E380
7F80
3F80
0380
0380
0380
0780
0780
0600
0600
0600
0600
ENDCHAR
STARTCHAR 04CC
ENCODING 1228
SWIDTH 495 0
DWIDTH 11 0
BBX 9 13 1 -3
BITMAP
E380
E380
E380
E380
E380
FF80
3F80
0380
0F80
0F80
0C00
0C00
0C00
ENDCHAR
STARTCHAR 04CD
ENCODING 1229
SWIDTH 495 0
DWIDTH 11 0
BBX 10 18 1 -4
BITMAP
E300
E300
E780
F780
F580
DD80
DD80
DD80
D980
C180
C180
C1C0
C1C0
C1C0
0180
0380
0300
0300
ENDCHAR
STARTCHAR 04CE
ENCODING 1230
SWIDTH 495 0
DWIDTH 11 0
BBX 10 13 1 -3
BITMAP
E300
E300
E780
F780
F580
D580
DD80
DD80
D9C0
C1C0
0180
0380
0100
ENDCHAR
STARTCHAR 04CF
ENCODING 1231
SWIDTH 495 0
DWIDTH 11 0
BBX 9 14 1 0
BITMAP
FF80
FF80
1C00
1C00
1C00
1C00
1C00
1C00
1C00
1C00
1C00
1C00
FF80
FF80
ENDCHAR
STARTCHAR 04D0
ENCODING 1232
SWIDTH 495 0
DWIDTH 11 0
BBX 11 18 0 0
BITMAP
3180
3F80
1F00
0000
0E00
0E00
1F00
1B00
1B00
3B80
3B80
3180
3180
7FC0
7FC0
71C0
60C0
E0E0
ENDCHAR
STARTCHAR 04D1
ENCODING 1233
SWIDTH 495 0
DWIDTH 11 0
BBX 9 15 1 0
BITMAP
6300
7F00
3E00
0000
0000
7E00
7F00
0380
0380
3F80
FF80
E380
E380
FF80
7F80
ENDCHAR
STARTCHAR 04D2
ENCODING 1234
SWIDTH 495 0
DWIDTH 11 0
BBX 11 18 0 0
BITMAP
3980
3B80
3980
0000
0E00
0E00
1F00
1B00
1B00
3B80
3B80
3180
3180
7FC0
7FC0
71C0
60C0
E0E0
ENDCHAR
STARTCHAR 04D3
ENCODING 1235
SWIDTH 495 0
DWIDTH 11 0
BBX 9 15 1 0
BITMAP
7300
7700
7300
0000
0000
7E00
7F00
0380
0380
3F80
FF80
E380
E380
FF80
7F80
ENDCHAR
STARTCHAR 04D4
ENCODING 1236
SWIDTH 495 0
DWIDTH 11 0
BBX 11 14 0 0
BITMAP
0FE0
0FE0
1B00
1B00
1B00
3BC0
3BC0
3300
3300
7F00
7F00
7300
63E0
E3E0
ENDCHAR
STARTCHAR 04D5
ENCODING 1237
SWIDTH 495 0
DWIDTH 11 0
BBX 10 10 1 0
BITMAP
F300
FF80
1DC0
0CC0
7FC0
FFC0
CC00
CC00
FF80
7380
ENDCHAR
STARTCHAR 04D6
ENCODING 1238
SWIDTH 495 0
DWIDTH 11 0
BBX 9 18 1 0
BITMAP
3300
3F00
1E00
0000
FF80
FF80
E000
E000
E000
E000
FF00
FF00
E000
E000
E000
E000
FF80
FF80
ENDCHAR
STARTCHAR 04D7
ENCODING 1239
SWIDTH 495 0
DWIDTH 11 0
BBX 9 15 1 0
BITMAP
7300
3F00
1E00
0000
0000
3E00
7F00
E380
E180
FF80
FF80
E000
E100
7F00
3F00
ENDCHAR
STARTCHAR 04D8
ENCODING 1240
SWIDTH 495 0
DWIDTH 11 0
BBX 9 14 1 0
BITMAP
7C00
FE00
8700
0380
0180
0180
FF80
FF80
C180
C180
C380
E300
7F00
3C00
ENDCHAR
STARTCHAR 04D9
ENCODING 1241
SWIDTH 495 0
DWIDTH 11 0
BBX 9 10 1 0
BITMAP
7C00
FF00
4380
0380
FF80
FF80
C380
E380
7F00
3E00
ENDCHAR
STARTCHAR 04DA
ENCODING 1242
SWIDTH 495 0
DWIDTH 11 0
BBX 9 18 1 0
BITMAP
6700
E700
6700
0000
7C00
FE00
8700
0380
0180
0180
FF80
FF80
C180
C180
C380
E300
7F00
3C00
ENDCHAR
STARTCHAR 04DB
ENCODING 1243
SWIDTH 495 0
DWIDTH 11 0
BBX 9 15 1 0
BITMAP
6700
7700
6700
0000
0000
7C00
FF00
4380
0380
FF80
FF80
C380
E380
7F00
3E00
ENDCHAR
STARTCHAR 04DC
ENCODING 1244
SWIDTH 495 0
DWIDTH 11 0
BBX 11 18 0 0
BITMAP
3980
3B80
3980
0000
EEE0
6EC0
6EC0
2EC0
3F80
3F80
1F00
1F00
3F80
2F80
6EC0
6EC0
6EC0
EEE0
ENDCHAR
STARTCHAR 04DD
ENCODING 1245
SWIDTH 495 0
DWIDTH 11 0
BBX 9 15 1 0
BITMAP
7300
7700
7300
0000
0000
DD80
DD80
7F00
7F00
3E00
7F00
7F00
DD80
DD80
DD80
ENDCHAR
STARTCHAR 04DE
ENCODING 1246
SWIDTH 495 0
DWIDTH 11 0
BBX 10 18 1 0
BITMAP
7300
7700
7300
0000
7E00
FF00
4380
0380
0380
0700
3E00
3F80
0380
01C0
0180
C380
FF80
7E00
ENDCHAR
STARTCHAR 04DF
ENCODING 1247
SWIDTH 495 0
DWIDTH 11 0
BBX 9 15 1 0
BITMAP
6700
7700
6700
0000
0000
FE00
7F00
0300
0300
3E00
3F00
0380
4380
FF00
7E00
ENDCHAR
STARTCHAR 04E0
ENCODING 1248
SWIDTH 495 0
DWIDTH 11 0
BBX 10 14 1 0
BITMAP
FF80
FF80
0380
0700
0E00
1C00
1E00
1F80
0380
01C0
01C0
8380
FF80
7E00
ENDCHAR
STARTCHAR 04E1
ENCODING 1249
SWIDTH 495 0
DWIDTH 11 0
BBX 9 14 1 -4
BITMAP
FF80
FF80
0700
0E00
1C00
1C00
3E00
0700
0300
0380
0380
8700
FF00
FC00
ENDCHAR
STARTCHAR 04E2
ENCODING 1250
SWIDTH 495 0
DWIDTH 11 0
BBX 9 17 1 0
BITMAP
7F00
7F00
0000
C180
C380
C780
C780
CF80
CD80
DD80
D980
D980
F180
F180
E180
E180
C180
ENDCHAR
STARTCHAR 04E3
ENCODING 1251
SWIDTH 495 0
DWIDTH 11 0
BBX 9 14 1 0
BITMAP
7F00
7F00
0000
0000
E380
E780
E780
EF80
FF80
FB80
F380
F380
E380
E380
ENDCHAR
STARTCHAR 04E4
ENCODING 1252
SWIDTH 495 0
DWIDTH 11 0
BBX 9 18 1 0
BITMAP
7300
7700
7300
0000
C180
C380
C780
C780
CF80
CD80
DD80
D980
D980
F180
F180
E180
E180
C180
ENDCHAR
STARTCHAR 04E5
ENCODING 1253
SWIDTH 495 0
DWIDTH 11 0
BBX 9 15 1 0
BITMAP
7300
7700
7300
0000
0000
E380
E780
E780
EF80
FF80
FB80
F380
F380
E380
E380
ENDCHAR
STARTCHAR 04E6
ENCODING 1254
SWIDTH 495 0
DWIDTH 11 0
BBX 9 18 1 0
BITMAP
7300
7700
7300
0000
3E00
7F00
E380
E380
C180
C180
C180
C180
C180
C180
E380
E380
7F00
3E00
ENDCHAR
STARTCHAR 04E7
ENCODING 1255
SWIDTH 495 0
DWIDTH 11 0
BBX 9 15 1 0
BITMAP
7300
7700
7300
0000
0000
3E00
7F00
E380
E380
C180
C180
E380
E380
7F00
3E00
ENDCHAR
STARTCHAR 04E8
ENCODING 1256
SWIDTH 495 0
DWIDTH 11 0
BBX 9 14 1 0
BITMAP
3E00
7F00
E380
E380
C380
C180
FF80
FF80
C180
C380
E380
E380
7F00
3E00
ENDCHAR
STARTCHAR 04E9
ENCODING 1257
SWIDTH 495 0
DWIDTH 11 0
BBX 9 10 1 0
BITMAP
3E00
7F00
E380
E380
FF80
FF80
E380
E380
7F00
3E00
ENDCHAR
STARTCHAR 04EA
ENCODING 1258
SWIDTH 495 0
DWIDTH 11 0
BBX 9 18 1 0
BITMAP
7300
7700
7300
0000
3E00
7F00
E380
E380
C380
C180
FF80
FF80
C180
C380
E380
E380
7F00
3E00
ENDCHAR
STARTCHAR 04EB
ENCODING 1259
SWIDTH 495 0
DWIDTH 11 0
BBX 9 15 1 0
BITMAP
7300
7700
7300
0000
0000
3E00
7F00
E380
E380
FF80
FF80
E380
E380
7F00
3E00
ENDCHAR
STARTCHAR 04EC
ENCODING 1260
SWIDTH 495 0
DWIDTH 11 0
BBX 10 18 1 0
BITMAP
6700
7700
6700
0000
7C00
FF00
4780
0380
0180
01C0
3FC0
3FC0
01C0
0180
0380
8700
FF00
7C00
ENDCHAR
STARTCHAR 04ED
ENCODING 1261
SWIDTH 495 0
DWIDTH 11 0
BBX 9 15 1 0
BITMAP
6700
7700
6700
0000
0000
FC00
FF00
0700
0380
3F80
3F80
0380
8700
FF00
FC00
ENDCHAR
STARTCHAR 04EE
ENCODING 1262
SWIDTH 495 0
DWIDTH 11 0
BBX 11 17 0 0
BITMAP
3F80
3F80
0000
E0E0
71C0
71C0
39C0
3B80
1F80
1F80
0F00
0F00
0700
0600
0E00
7C00
7800
ENDCHAR
STARTCHAR 04EF
ENCODING 1263
SWIDTH 495 0
DWIDTH 11 0
BBX 10 18 0 -4
BITMAP
3F80
3F80
0000
0000
70C0
71C0
31C0
3980
3980
1B80
1F00
1F00
0F00
0E00
0E00
0C00
7C00
F800
ENDCHAR
STARTCHAR 04F0
ENCODING 1264
SWIDTH 495 0
DWIDTH 11 0
BBX 11 18 0 0
BITMAP
3980
3B80
3980
0000
E0E0
71C0
71C0
39C0
3B80
1F80
1F80
0F00
0F00
0700
0600
0E00
7C00
7800
ENDCHAR
STARTCHAR 04F1
ENCODING 1265
SWIDTH 495 0
DWIDTH 11 0
BBX 10 19 0 -4
BITMAP
3980
3B80
3980
0000
0000
70C0
71C0
31C0
3980
3980
1B80
1F00
1F00
0F00
0E00
0E00
0C00
7C00
F800
ENDCHAR
STARTCHAR 04F2
ENCODING 1266
SWIDTH 495 0
DWIDTH 11 0
BBX 11 19 0 0
BITMAP
0CC0
0CC0
1980
1100
0000
E0E0
71C0
71C0
39C0
3B80
1F80
1F80
0F00
0F00
0700
0600
0E00
7C00
7800
ENDCHAR
STARTCHAR 04F3
ENCODING 1267
SWIDTH 495 0
DWIDTH 11 0
BBX 10 19 0 -4
BITMAP
0CC0
0CC0
1980
1100
0000
70C0
71C0
31C0
3980
3980
1B80
1F00
1F00
0F00
0E00
0E00
0C00
7C00
F800
ENDCHAR
STARTCHAR 04F4
ENCODING 1268
SWIDTH 495 0
DWIDTH 11 0
BBX 9 18 1 0
BITMAP
7300
7700
7300
0000
E380
E380
E380
E380
E380
E380
E380
7F80
3F80
0380
0380
0380
0380
0380
ENDCHAR
STARTCHAR 04F5
ENCODING 1269
SWIDTH 495 0
DWIDTH 11 0
BBX 9 15 1 0
BITMAP
7300
7700
7300
0000
0000
E380
E380
E380
E380
E380
FF80
3F80
0380
0380
0380
ENDCHAR
STARTCHAR 04F6
ENCODING 1270
SWIDTH 495 0
DWIDTH 11 0
BBX 10 17 1 -3
BITMAP
3FC0
3FC0
3000
3000
3000
3000
3000
3000
3000
3000
3000
3000
FE00
FE00
0600
0600
0600
ENDCHAR
STARTCHAR 04F7
ENCODING 1271
SWIDTH 495 0
DWIDTH 11 0
BBX 8 13 2 -3
BITMAP
FF
FF
E0
E0
E0
E0
E0
E0
F8
F8
38
38
38
ENDCHAR
STARTCHAR 04F8
ENCODING 1272
SWIDTH 495 0
DWIDTH 11 0
BBX 9 18 1 0
BITMAP
7300
7700
7300
0000
C180
C180
C180
C180
C180
F980
FD80
CD80
CD80
CD80
CD80
CD80
FD80
F980
ENDCHAR
STARTCHAR 04F9
ENCODING 1273
SWIDTH 495 0
DWIDTH 11 0
BBX 9 15 1 0
BITMAP
7300
7700
7300
0000
0000
C180
C180
C180
F980
FD80
CD80
CD80
CD80
FD80
F980
ENDCHAR
STARTCHAR 1E80
ENCODING 7808
SWIDTH 495 0
DWIDTH 11 0
BBX 9 19 1 0
BITMAP
1000
3800
1E00
0400
0000
C180
C180
C180
C180
C180
DD80
DD80
DD80
D580
F780
F780
E380
E380
E380
ENDCHAR
STARTCHAR 1E81
ENCODING 7809
SWIDTH 495 0
DWIDTH 11 0
BBX 11 15 0 0
BITMAP
0800
1C00
0F00
0200
0000
E0E0
E0E0
EEE0
6EC0
6EC0
6AC0
7BC0
7BC0
7180
3180
ENDCHAR
STARTCHAR 1E82
ENCODING 7810
SWIDTH 495 0
DWIDTH 11 0
BBX 9 19 1 0
BITMAP
0400
0E00
3C00
1000
0000
C180
C180
C180
C180
C180
DD80
DD80
DD80
D580
F780
F780
E380
E380
E380
ENDCHAR
STARTCHAR 1E83
ENCODING 7811
SWIDTH 495 0
DWIDTH 11 0
BBX 11 15 0 0
BITMAP
0200
0700
1E00
0800
0000
E0E0
E0E0
EEE0
6EC0
6EC0
6AC0
7BC0
7BC0
7180
3180
ENDCHAR
STARTCHAR 1E84
ENCODING 7812
SWIDTH 495 0
DWIDTH 11 0
BBX 9 18 1 0
BITMAP
7300
7700
7300
0000
C180
C180
C180
C180
C180
DD80
DD80
DD80
D580
F780
F780
E380
E380
E380
ENDCHAR
STARTCHAR 1E85
ENCODING 7813
SWIDTH 495 0
DWIDTH 11 0
BBX 11 15 0 0
BITMAP
3980
3B80
3980
0000
0000
E0E0
E0E0
EEE0
6EC0
6EC0
6AC0
7BC0
7BC0
7180
3180
ENDCHAR
STARTCHAR 1EF2
ENCODING 7922
SWIDTH 495 0
DWIDTH 11 0
BBX 11 19 0 0
BITMAP
0800
1C00
1E00
0600
0000
E0E0
71C0
71C0
3180
3B80
1B80
1F00
0F00
0E00
0E00
0E00
0E00
0E00
0E00
ENDCHAR
STARTCHAR 1EF3
ENCODING 7923
SWIDTH 495 0
DWIDTH 11 0
BBX 10 19 0 -4
BITMAP
0800
1C00
0F00
0200
0000
70C0
71C0
31C0
3980
3980
1B80
1F00
1F00
0F00
0E00
0E00
0C00
7C00
F800
ENDCHAR
STARTCHAR 1F00
ENCODING 7936
SWIDTH 495 0
DWIDTH 11 0
BBX 10 17 1 0
BITMAP
0C00
1C00
0C00
1800
1000
0000
0000
3F00
7F80
E380
E380
E380
E380
E380
E380
7FC0
3D80
ENDCHAR
STARTCHAR 1F01
ENCODING 7937
SWIDTH 495 0
DWIDTH 11 0
BBX 10 16 1 0
BITMAP
1800
1C00
1800
0C00
0400
0000
3F00
7F80
E380
E380
E380
E380
E380
E380
7FC0
3D80
ENDCHAR
STARTCHAR 1F02
ENCODING 7938
SWIDTH 495 0
DWIDTH 11 0
BBX 10 17 1 0
BITMAP
3200
7700
3300
2180
4100
0000
0000
3F00
7F80
E380
E380
E380
E380
E380
E380
7FC0
3D80
ENDCHAR
STARTCHAR 1F03
ENCODING 7939
SWIDTH 495 0
DWIDTH 11 0
BBX 10 16 1 0
BITMAP
6400
6E00
6600
2300
3100
0000
3F00
7F80
E380
E380
E380
E380
E380
E380
7FC0
3D80
ENDCHAR
STARTCHAR 1F04
ENCODING 7940
SWIDTH 495 0
DWIDTH 11 0
BBX 10 17 1 0
BITMAP
3100
3300
3700
3600
6400
0000
0000
3F00
7F80
E380
E380
E380
E380
E380
E380
7FC0
3D80
ENDCHAR
STARTCHAR 1F05
ENCODING 7941
SWIDTH 495 0
DWIDTH 11 0
BBX 10 16 1 0
BITMAP
6100
7380
6300
3600
1400
0000
3F00
7F80
E380
E380
E380
E380
E380
E380
7FC0
3D80
ENDCHAR
STARTCHAR 1F06
ENCODING 7942
SWIDTH 495 0
DWIDTH 11 0
BBX 10 18 1 0
BITMAP
1C00
3E00
6300
1800
1C00
0800
1000
0000
3F00
7F80
E380
E380
E380
E380
E380
E380
7FC0
3D80
ENDCHAR
STARTCHAR 1F07
ENCODING 7943
SWIDTH 495 0
DWIDTH 11 0
BBX 10 18 1 0
BITMAP
1C00
3E00
6300
0C00
1C00
0800
0400
0000
3F00
7F80
E380
E380
E380
E380
E380
E380
7FC0
3D80
ENDCHAR
STARTCHAR 1F08
ENCODING 7944
SWIDTH 495 0
DWIDTH 11 0
BBX 11 15 0 0
BITMAP
C000
EE00
6E00
DF00
9B00
1B00
3B80
3B80
3180
3180
7FC0
7FC0
71C0
60C0
E0E0
ENDCHAR
STARTCHAR 1F09
ENCODING 7945
SWIDTH 495 0
DWIDTH 11 0
BBX 12 14 -1 0
BITMAP
C700
E700
CF80
6D80
2D80
1DC0
1DC0
18C0
18C0
3FE0
3FE0
38E0
3060
7070
ENDCHAR
STARTCHAR 1F0A
ENCODING 7946
SWIDTH 495 0
DWIDTH 11 0
BBX 16 15 -5 0
BITMAP
C800
EC70
CE70
C6F8
82D8
00D8
01DC
01DC
018C
018C
03FE
03FE
038E
0306
0707
ENDCHAR
STARTCHAR 1F0B
ENCODING 7947
SWIDTH 495 0
DWIDTH 11 0
BBX 16 14 -5 0
BITMAP
C870
FC70
CEF8
46D8
22D8
01DC
01DC
018C
018C
03FE
03FE
038E
0306
0707
ENDCHAR
STARTCHAR 1F0C
ENCODING 7948
SWIDTH 495 0
DWIDTH 11 0
BBX 15 15 -4 0
BITMAP
E400
E6E0
ECE0
59F0
89B0
01B0
03B8
03B8
0318
0318
07FC
07FC
071C
060C
0E0E
ENDCHAR
STARTCHAR 1F0D
ENCODING 7949
SWIDTH 495 0
DWIDTH 11 0
BBX 16 14 -5 0
BITMAP
6270
E770
C6F8
6CD8
24D8
01DC
01DC
018C
018C
03FE
03FE
038E
0306
0707
ENDCHAR
STARTCHAR 1F0E
ENCODING 7950
SWIDTH 495 0
DWIDTH 11 0
BBX 14 16 -3 0
BITMAP
7800
FC00
CDC0
31C0
33E0
3360
2360
0770
0770
0630
0630
0FF8
0FF8
0E38
0C18
1C1C
ENDCHAR
STARTCHAR 1F0F
ENCODING 7951
SWIDTH 495 0
DWIDTH 11 0
BBX 14 16 -3 0
BITMAP
7800
FC00
CDC0
31C0
33E0
3360
1360
0770
0770
0630
0630
0FF8
0FF8
0E38
0C18
1C1C
ENDCHAR
STARTCHAR 1F10
ENCODING 7952
SWIDTH 495 0
DWIDTH 11 0
BBX 9 17 1 0
BITMAP
0C00
0E00
0C00
0C00
0800
0000
0000
3F80
7F00
6000
6000
7E00
7E00
6000
E100
7F80
3F00
ENDCHAR
STARTCHAR 1F11
ENCODING 7953
SWIDTH 495 0
DWIDTH 11 0
BBX 9 16 1 0
BITMAP
1800
1C00
1800
0C00
0400
0000
3F80
7F00
6000
6000
7E00
7E00
6000
E100
7F80
3F00
ENDCHAR
STARTCHAR 1F12
ENCODING 7954
SWIDTH 495 0
DWIDTH 11 0
BBX 9 17 1 0
BITMAP
3200
7700
3300
2180
4100
0000
0000
3F80
7F00
6000
6000
7E00
7E00
6000
E100
7F80
3F00
ENDCHAR
STARTCHAR 1F13
ENCODING 7955
SWIDTH 495 0
DWIDTH 11 0
BBX 9 16 1 0
BITMAP
6400
6E00
6600
2300
3100
0000
3F80
7F00
6000
6000
7E00
7E00
6000
E100
7F80
3F00
ENDCHAR
STARTCHAR 1F14
ENCODING 7956
SWIDTH 495 0
DWIDTH 11 0
BBX 9 17 1 0
BITMAP
3100
3300
3700
3600
6400
0000
0000
3F80
7F00
6000
6000
7E00
7E00
6000
E100
7F80
3F00
ENDCHAR
STARTCHAR 1F15
ENCODING 7957
SWIDTH 495 0
DWIDTH 11 0
BBX 9 16 1 0
BITMAP
6100
7380
6300
3600
1400
0000
3F80
7F00
6000
6000
7E00
7E00
6000
E100
7F80
3F00
ENDCHAR
STARTCHAR 1F18
ENCODING 7960
SWIDTH 495 0
DWIDTH 11 0
BBX 13 15 -3 0
BITMAP
6000
EFF8
6FF8
CE00
8E00
0E00
0E00
0FF0
0FF0
0E00
0E00
0E00
0E00
0FF8
0FF8
ENDCHAR
STARTCHAR 1F19
ENCODING 7961
SWIDTH 495 0
DWIDTH 11 0
BBX 13 14 -3 0
BITMAP
EFF8
EFF8
CE00
6E00
2E00
0E00
0FF0
0FF0
0E00
0E00
0E00
0E00
0FF8
0FF8
ENDCHAR
STARTCHAR 1F1A
ENCODING 7962
SWIDTH 495 0
DWIDTH 11 0
BBX 17 15 -7 0
BITMAP
C80000
ECFF80
CEFF80
C6E000
82E000
00E000
00E000
00FF00
00FF00
00E000
00E000
00E000
00E000
00FF80
00FF80
ENDCHAR
STARTCHAR 1F1B
ENCODING 7963
SWIDTH 495 0
DWIDTH 11 0
BBX 17 14 -7 0
BITMAP
C8FF80
ECFF80
CEE000
66E000
22E000
00E000
00FF00
00FF00
00E000
00E000
00E000
00E000
00FF80
00FF80
ENDCHAR
STARTCHAR 1F1C
ENCODING 7964
SWIDTH 495 0
DWIDTH 11 0
BBX 17 15 -7 0
BITMAP
620000
66FF80
6EFF80
6CE000
C8E000
00E000
00E000
00FF00
00FF00
00E000
00E000
00E000
00E000
00FF80
00FF80
ENDCHAR
STARTCHAR 1F1D
ENCODING 7965
SWIDTH 495 0
DWIDTH 11 0
BBX 17 14 -7 0
BITMAP
C4FF80
C6FF80
CEE000
CCE000
68E000
00E000
00FF00
00FF00
00E000
00E000
00E000
00E000
00FF80
00FF80
ENDCHAR
STARTCHAR 1F20
ENCODING 7968
SWIDTH 495 0
DWIDTH 11 0
BBX 9 21 1 -4
BITMAP
0C00
1C00
0C00
1800
1000
0000
0000
FE00
FF00
E300
E380
E380
E380
E380
E380
E380
E380
0380
0380
0380
0380
ENDCHAR
STARTCHAR 1F21
ENCODING 7969
SWIDTH 495 0
DWIDTH 11 0
BBX 9 20 1 -4
BITMAP
1800
1C00
1800
0C00
0400
0000
FE00
FF00
E300
E380
E380
E380
E380
E380
E380
E380
0380
0380
0380
0380
ENDCHAR
STARTCHAR 1F22
ENCODING 7970
SWIDTH 495 0
DWIDTH 11 0
BBX 9 21 1 -4
BITMAP
3200
7700
3300
2180
4100
0000
0000
FE00
FF00
E300
E380
E380
E380
E380
E380
E380
E380
0380
0380
0380
0380
ENDCHAR
STARTCHAR 1F23
ENCODING 7971
SWIDTH 495 0
DWIDTH 11 0
BBX 9 20 1 -4
BITMAP
6400
6E00
6600
2300
3100
0000
FE00
FF00
E300
E380
E380
E380
E380
E380
E380
E380
0380
0380
0380
0380
ENDCHAR
STARTCHAR 1F24
ENCODING 7972
SWIDTH 495 0
DWIDTH 11 0
BBX 9 21 1 -4
BITMAP
3100
3300
3700
3600
6400
0000
0000
FE00
FF00
E300
E380
E380
E380
E380
E380
E380
E380
0380
0380
0380
0380
ENDCHAR
STARTCHAR 1F25
ENCODING 7973
SWIDTH 495 0
DWIDTH 11 0
BBX 9 20 1 -4
BITMAP
6100
7380
6300
3600
1400
0000
FE00
FF00
E300
E380
E380
E380
E380
E380
E380
E380
0380
0380
0380
0380
ENDCHAR
STARTCHAR 1F26
ENCODING 7974
SWIDTH 495 0
DWIDTH 11 0
BBX 9 22 1 -4
BITMAP
1C00
3E00
6300
1800
1C00
0800
1000
0000
FE00
FF00
E300
E380
E380
E380
E380
E380
E380
E380
0380
0380
0380
0380
ENDCHAR
STARTCHAR 1F27
ENCODING 7975
SWIDTH 495 0
DWIDTH 11 0
BBX 9 22 1 -4
BITMAP
1C00
3E00
6300
0C00
1C00
0800
0400
0000
FE00
FF00
E300
E380
E380
E380
E380
E380
E380
E380
0380
0380
0380
0380
ENDCHAR
STARTCHAR 1F28
ENCODING 7976
SWIDTH 495 0
DWIDTH 11 0
BBX 13 15 -3 0
BITMAP
E000
EE38
6E38
CE38
8E38
0E38
0E38
0FF8
0FF8
0E38
0E38
0E38
0E38
0E38
0E38
ENDCHAR
STARTCHAR 1F29
ENCODING 7977
SWIDTH 495 0
DWIDTH 11 0
BBX 13 14 -3 0
BITMAP
CE38
EE38
CE38
CE38
2E38
0E38
0FF8
0FF8
0E38
0E38
0E38
0E38
0E38
0E38
ENDCHAR
STARTCHAR 1F2A
ENCODING 7978
SWIDTH 495 0
DWIDTH 11 0
BBX 18 15 -8 0
BITMAP
640000
6E71C0
6671C0
4371C0
8271C0
0071C0
0071C0
007FC0
007FC0
0071C0
0071C0
0071C0
0071C0
0071C0
0071C0
ENDCHAR
STARTCHAR 1F2B
ENCODING 7979
SWIDTH 495 0
DWIDTH 11 0
BBX 17 14 -7 0
BITMAP
C8E380
DCE380
CCE380
C6E380
44E380
00E380
00FF80
00FF80
00E380
00E380
00E380
00E380
00E380
00E380
ENDCHAR
STARTCHAR 1F2C
ENCODING 7980
SWIDTH 495 0
DWIDTH 11 0
BBX 17 15 -7 0
BITMAP
640000
E6E380
6CE380
58E380
88E380
00E380
00E380
00FF80
00FF80
00E380
00E380
00E380
00E380
00E380
00E380
ENDCHAR
STARTCHAR 1F2D
ENCODING 7981
SWIDTH 495 0
DWIDTH 11 0
BBX 18 14 -8 0
BITMAP
E271C0
E771C0
C671C0
6C71C0
2471C0
0071C0
007FC0
007FC0
0071C0
0071C0
0071C0
0071C0
0071C0
0071C0
ENDCHAR
STARTCHAR 1F2E
ENCODING 7982
SWIDTH 495 0
DWIDTH 11 0
BBX 16 16 -6 0
BITMAP
7800
7C00
C5C7
31C7
31C7
31C7
21C7
01C7
01FF
01FF
01C7
01C7
01C7
01C7
01C7
01C7
ENDCHAR
STARTCHAR 1F2F
ENCODING 7983
SWIDTH 495 0
DWIDTH 11 0
BBX 16 16 -6 0
BITMAP
7800
7C00
C5C7
31C7
31C7
31C7
11C7
01C7
01FF
01FF
01C7
01C7
01C7
01C7
01C7
01C7
ENDCHAR
STARTCHAR 1F30
ENCODING 7984
SWIDTH 495 0
DWIDTH 11 0
BBX 9 17 1 0
BITMAP
0C00
1C00
0C00
1800
1000
0000
0000
F800
F800
1800
1800
1800
1800
1800
1C00
1F80
0F80
ENDCHAR
STARTCHAR 1F31
ENCODING 7985
SWIDTH 495 0
DWIDTH 11 0
BBX 9 16 1 0
BITMAP
1800
1C00
1800
0C00
0400
0000
F800
F800
1800
1800
1800
1800
1800
1C00
1F80
0F80
ENDCHAR
STARTCHAR 1F32
ENCODING 7986
SWIDTH 495 0
DWIDTH 11 0
BBX 9 17 1 0
BITMAP
3200
7700
3300
2180
4100
0000
0000
F800
F800
1800
1800
1800
1800
1800
1C00
1F80
0F80
ENDCHAR
STARTCHAR 1F33
ENCODING 7987
SWIDTH 495 0
DWIDTH 11 0
BBX 9 16 1 0
BITMAP
6400
6E00
6600
2300
3100
0000
F800
F800
1800
1800
1800
1800
1800
1C00
1F80
0F80
ENDCHAR
STARTCHAR 1F34
ENCODING 7988
SWIDTH 495 0
DWIDTH 11 0
BBX 9 17 1 0
BITMAP
3100
3300
3700
3600
6400
0000
0000
F800
F800
1800
1800
1800
1800
1800
1C00
1F80
0F80
ENDCHAR
STARTCHAR 1F35
ENCODING 7989
SWIDTH 495 0
DWIDTH 11 0
BBX 9 16 1 0
BITMAP
6100
7380
6300
3600
1400
0000
F800
F800
1800
1800
1800
1800
1800
1C00
1F80
0F80
ENDCHAR
STARTCHAR 1F36
ENCODING 7990
SWIDTH 495 0
DWIDTH 11 0
BBX 9 18 1 0
BITMAP
1C00
3E00
6300
1800
1C00
0800
1000
0000
F800
F800
1800
1800
1800
1800
1800
1C00
1F80
0F80
ENDCHAR
STARTCHAR 1F37
ENCODING 7991
SWIDTH 495 0
DWIDTH 11 0
BBX 9 18 1 0
BITMAP
1C00
3E00
6300
0C00
1C00
0800
0400
0000
F800
F800
1800
1800
1800
1800
1800
1C00
1F80
0F80
ENDCHAR
STARTCHAR 1F38
ENCODING 7992
SWIDTH 495 0
DWIDTH 11 0
BBX 13 15 -3 0
BITMAP
E000
EFF8
6FF8
C1C0
81C0
01C0
01C0
01C0
01C0
01C0
01C0
01C0
01C0
0FF8
0FF8
ENDCHAR
STARTCHAR 1F39
ENCODING 7993
SWIDTH 495 0
DWIDTH 11 0
BBX 14 14 -4 0
BITMAP
67FC
E7FC
60E0
60E0
30E0
00E0
00E0
00E0
00E0
00E0
00E0
00E0
07FC
07FC
ENDCHAR
STARTCHAR 1F3A
ENCODING 7994
SWIDTH 495 0
DWIDTH 11 0
BBX 18 15 -8 0
BITMAP
640000
6E7FC0
667FC0
630E00
C10E00
000E00
000E00
000E00
000E00
000E00
000E00
000E00
000E00
007FC0
007FC0
ENDCHAR
STARTCHAR 1F3B
ENCODING 7995
SWIDTH 495 0
DWIDTH 11 0
BBX 17 14 -7 0
BITMAP
C8FF80
DCFF80
CC1C00
461C00
621C00
001C00
001C00
001C00
001C00
001C00
001C00
001C00
00FF80
00FF80
ENDCHAR
STARTCHAR 1F3C
ENCODING 7996
SWIDTH 495 0
DWIDTH 11 0
BBX 17 15 -7 0
BITMAP
640000
E6FF80
6CFF80
4C1C00
881C00
001C00
001C00
001C00
001C00
001C00
001C00
001C00
001C00
00FF80
00FF80
ENDCHAR
STARTCHAR 1F3D
ENCODING 7997
SWIDTH 495 0
DWIDTH 11 0
BBX 18 14 -8 0
BITMAP
627FC0
E37FC0
460E00
6E0E00
240E00
000E00
000E00
000E00
000E00
000E00
000E00
000E00
007FC0
007FC0
ENDCHAR
STARTCHAR 1F3E
ENCODING 7998
SWIDTH 495 0
DWIDTH 11 0
BBX 16 16 -6 0
BITMAP
3800
7C00
C5FF
31FF
3838
3038
2038
0038
0038
0038
0038
0038
0038
0038
01FF
01FF
ENDCHAR
STARTCHAR 1F3F
ENCODING 7999
SWIDTH 495 0
DWIDTH 11 0
BBX 16 16 -6 0
BITMAP
3800
7C00
C5FF
31FF
3838
1038
0838
0038
0038
0038
0038
0038
0038
0038
01FF
01FF
ENDCHAR
STARTCHAR 1F40
ENCODING 8000
SWIDTH 495 0
DWIDTH 11 0
BBX 9 17 1 0
BITMAP
0C00
1C00
0C00
1800
1000
0000
0000
3E00
7F00
E380
E380
C180
C180
E380
E380
7F00
3E00
ENDCHAR
STARTCHAR 1F41
ENCODING 8001
SWIDTH 495 0
DWIDTH 11 0
BBX 9 16 1 0
BITMAP
1800
1C00
1800
0C00
0400
0000
3E00
7F00
E380
E380
C180
C180
E380
E380
7F00
3E00
ENDCHAR
STARTCHAR 1F42
ENCODING 8002
SWIDTH 495 0
DWIDTH 11 0
BBX 9 17 1 0
BITMAP
3200
7700
3300
2180
4100
0000
0000
3E00
7F00
E380
E380
C180
C180
E380
E380
7F00
3E00
ENDCHAR
STARTCHAR 1F43
ENCODING 8003
SWIDTH 495 0
DWIDTH 11 0
BBX 9 16 1 0
BITMAP
6400
6E00
6600
2300
3100
0000
3E00
7F00
E380
E380
C180
C180
E380
E380
7F00
3E00
ENDCHAR
STARTCHAR 1F44
ENCODING 8004
SWIDTH 495 0
DWIDTH 11 0
BBX 9 17 1 0
BITMAP
3100
3300
3700
3600
6400
0000
0000
3E00
7F00
E380
E380
C180
C180
E380
E380
7F00
3E00
ENDCHAR
STARTCHAR 1F45
ENCODING 8005
SWIDTH 495 0
DWIDTH 11 0
BBX 9 16 1 0
BITMAP
6100
7380
6300
3600
1400
0000
3E00
7F00
E380
E380
C180
C180
E380
E380
7F00
3E00
ENDCHAR
STARTCHAR 1F48
ENCODING 8008
SWIDTH 495 0
DWIDTH 11 0
BBX 12 15 -2 0
BITMAP
C000
E7C0
CFE0
DC70
9C70
1830
1830
1830
1830
1830
1830
1C70
1C70
0FE0
07C0
ENDCHAR
STARTCHAR 1F49
ENCODING 8009
SWIDTH 495 0
DWIDTH 11 0
BBX 14 14 -4 0
BITMAP
61F0
E3F8
671C
671C
360C
060C
060C
060C
060C
060C
071C
071C
03F8
01F0
ENDCHAR
STARTCHAR 1F4A
ENCODING 8010
SWIDTH 495 0
DWIDTH 11 0
BBX 18 15 -8 0
BITMAP
640000
6E1F00
663F80
6371C0
C171C0
0060C0
0060C0
0060C0
0060C0
0060C0
0060C0
0071C0
0071C0
003F80
001F00
ENDCHAR
STARTCHAR 1F4B
ENCODING 8011
SWIDTH 495 0
DWIDTH 11 0
BBX 17 14 -7 0
BITMAP
C83E00
DC7F00
CCE380
46E380
62C180
00C180
00C180
00C180
00C180
00C180
00E380
00E380
007F00
003E00
ENDCHAR
STARTCHAR 1F4C
ENCODING 8012
SWIDTH 495 0
DWIDTH 11 0
BBX 16 15 -6 0
BITMAP
C400
EE7C
CCFE
D9C7
91C7
0183
0183
0183
0183
0183
0183
01C7
01C7
00FE
007C
ENDCHAR
STARTCHAR 1F4D
ENCODING 8013
SWIDTH 495 0
DWIDTH 11 0
BBX 17 14 -7 0
BITMAP
C23E00
E77F00
CEE380
4CE380
28C180
00C180
00C180
00C180
00C180
00C180
00E380
00E380
007F00
003E00
ENDCHAR
STARTCHAR 1F50
ENCODING 8016
SWIDTH 495 0
DWIDTH 11 0
BBX 9 17 1 0
BITMAP
0C00
1C00
0C00
1800
1000
0000
0000
E380
E380
E380
E380
E380
E380
E380
E380
7F00
3E00
ENDCHAR
STARTCHAR 1F51
ENCODING 8017
SWIDTH 495 0
DWIDTH 11 0
BBX 9 16 1 0
BITMAP
1800
1C00
1800
0C00
0400
0000
E380
E380
E380
E380
E380
E380
E380
E380
7F00
3E00
ENDCHAR
STARTCHAR 1F52
ENCODING 8018
SWIDTH 495 0
DWIDTH 11 0
BBX 9 17 1 0
BITMAP
3200
7700
3300
2180
4100
0000
0000
E380
E380
E380
E380
E380
E380
E380
E380
7F00
3E00
ENDCHAR
STARTCHAR 1F53
ENCODING 8019
SWIDTH 495 0
DWIDTH 11 0
BBX 9 16 1 0
BITMAP
6400
6E00
6600
2300
3100
0000
E380
E380
E380
E380
E380
E380
E380
E380
7F00
3E00
ENDCHAR
STARTCHAR 1F54
ENCODING 8020
SWIDTH 495 0
DWIDTH 11 0
BBX 9 17 1 0
BITMAP
3100
3300
3700
3600
6400
0000
0000
E380
E380
E380
E380
E380
E380
E380
E380
7F00
3E00
ENDCHAR
STARTCHAR 1F55
ENCODING 8021
SWIDTH 495 0
DWIDTH 11 0
BBX 9 16 1 0
BITMAP
6100
7380
6300
3600
1400
0000
E380
E380
E380
E380
E380
E380
E380
E380
7F00
3E00
ENDCHAR
STARTCHAR 1F56
ENCODING 8022
SWIDTH 495 0
DWIDTH 11 0
BBX 9 18 1 0
BITMAP
1C00
3E00
6300
1800
1C00
0800
1000
0000
E380
E380
E380
E380
E380
E380
E380
E380
7F00
3E00
ENDCHAR
STARTCHAR 1F57
ENCODING 8023
SWIDTH 495 0
DWIDTH 11 0
BBX 9 18 1 0
BITMAP
1C00
3E00
6300
0C00
1C00
0800
0400
0000
E380
E380
E380
E380
E380
E380
E380
E380
7F00
3E00
ENDCHAR
STARTCHAR 1F59
ENCODING 8025
SWIDTH 495 0
DWIDTH 11 0
BBX 14 14 -3 0
BITMAP
DC1C
EE38
CE38
6630
2770
0370
03E0
01E0
01C0
01C0
01C0
01C0
01C0
01C0
ENDCHAR
STARTCHAR 1F5B
ENCODING 8027
SWIDTH 495 0
DWIDTH 11 0
BBX 18 14 -7 0
BITMAP
E5C1C0
ECE380
CEE380
666300
227700
003700
003E00
001E00
001C00
001C00
001C00
001C00
001C00
001C00
ENDCHAR
STARTCHAR 1F5D
ENCODING 8029
SWIDTH 495 0
DWIDTH 11 0
BBX 19 14 -8 0
BITMAP
E2E0E0
E771C0
C671C0
6C3180
243B80
001B80
001F00
000F00
000E00
000E00
000E00
000E00
000E00
000E00
ENDCHAR
STARTCHAR 1F5F
ENCODING 8031
SWIDTH 495 0
DWIDTH 11 0
BBX 17 16 -6 0
BITMAP
700000
F80000
8F8380
31C700
71C700
20C600
10EE00
006E00
007C00
003C00
003800
003800
003800
003800
003800
003800
ENDCHAR
STARTCHAR 1F60
ENCODING 8032
SWIDTH 495 0
DWIDTH 11 0
BBX 9 17 1 0
BITMAP
0C00
1C00
0C00
1800
1000
0000
0000
4100
6300
E180
DD80
DD80
DD80
DD80
DD80
F780
7700
ENDCHAR
STARTCHAR 1F61
ENCODING 8033
SWIDTH 495 0
DWIDTH 11 0
BBX 9 16 1 0
BITMAP
1800
1C00
1800
0C00
0400
0000
4100
6300
E180
DD80
DD80
DD80
DD80
DD80
F780
7700
ENDCHAR
STARTCHAR 1F62
ENCODING 8034
SWIDTH 495 0
DWIDTH 11 0
BBX 9 17 1 0
BITMAP
3200
7700
3300
2180
4100
0000
0000
4100
6300
E180
DD80
DD80
DD80
DD80
DD80
F780
7700
ENDCHAR
STARTCHAR 1F63
ENCODING 8035
SWIDTH 495 0
DWIDTH 11 0
BBX 9 16 1 0
BITMAP
6400
6E00
6600
2300
3100
0000
4100
6300
E180
DD80
DD80
DD80
DD80
DD80
F780
7700
ENDCHAR
STARTCHAR 1F64
ENCODING 8036
SWIDTH 495 0
DWIDTH 11 0
BBX 9 17 1 0
BITMAP
3100
3300
3700
3600
6400
0000
0000
4100
6300
E180
DD80
DD80
DD80
DD80
DD80
F780
7700
ENDCHAR
STARTCHAR 1F65
ENCODING 8037
SWIDTH 495 0
DWIDTH 11 0
BBX 9 16 1 0
BITMAP
6100
7380
6300
3600
1400
0000
4100
6300
E180
DD80
DD80
DD80
DD80
DD80
F780
7700
ENDCHAR
STARTCHAR 1F66
ENCODING 8038
SWIDTH 495 0
DWIDTH 11 0
BBX 9 18 1 0
BITMAP
1C00
3E00
6300
1800
1C00
0800
1000
0000
4100
6300
E180
DD80
DD80
DD80
DD80
DD80
F780
7700
ENDCHAR
STARTCHAR 1F67
ENCODING 8039
SWIDTH 495 0
DWIDTH 11 0
BBX 9 18 1 0
BITMAP
1C00
3E00
6300
0C00
1C00
0800
0400
0000
4100
6300
E180
DD80
DD80
DD80
DD80
DD80
F780
7700
ENDCHAR
STARTCHAR 1F68
ENCODING 8040
SWIDTH 495 0
DWIDTH 11 0
BBX 14 15 -3 0
BITMAP
6000
E3E0
67F0
CE38
8E18
1C1C
1C1C
1C1C
1C1C
0C1C
0E38
0E38
0770
1F7C
1F7C
ENDCHAR
STARTCHAR 1F69
ENCODING 8041
SWIDTH 495 0
DWIDTH 11 0
BBX 15 14 -4 0
BITMAP
E1F0
E3F8
C71C
670C
2E0E
0E0E
0E0E
0E0E
060E
071C
071C
03B8
0FBE
0FBE
ENDCHAR
STARTCHAR 1F6A
ENCODING 8042
SWIDTH 495 0
DWIDTH 11 0
BBX 19 15 -8 0
BITMAP
E40000
EC1F00
E63F80
4671C0
8270C0
00E0E0
00E0E0
00E0E0
00E0E0
0060E0
0071C0
0071C0
003B80
00FBE0
00FBE0
ENDCHAR
STARTCHAR 1F6B
ENCODING 8043
SWIDTH 495 0
DWIDTH 11 0
BBX 19 14 -8 0
BITMAP
E41F00
EC3F80
C671C0
6670C0
22E0E0
00E0E0
00E0E0
00E0E0
0060E0
0071C0
0071C0
003B80
00FBE0
00FBE0
ENDCHAR
STARTCHAR 1F6C
ENCODING 8044
SWIDTH 495 0
DWIDTH 11 0
BBX 18 15 -7 0
BITMAP
620000
773E00
667F00
6CE380
C8E180
01C1C0
01C1C0
01C1C0
01C1C0
00C1C0
00E380
00E380
007700
01F7C0
01F7C0
ENDCHAR
STARTCHAR 1F6D
ENCODING 8045
SWIDTH 495 0
DWIDTH 11 0
BBX 18 14 -7 0
BITMAP
C23E00
E77F00
C6E380
6CE180
29C1C0
01C1C0
01C1C0
01C1C0
00C1C0
00E380
00E380
007700
01F7C0
01F7C0
ENDCHAR
STARTCHAR 1F6E
ENCODING 8046
SWIDTH 495 0
DWIDTH 11 0
BBX 17 16 -6 0
BITMAP
380000
7C0000
C47C00
30FE00
39C700
31C300
238380
038380
038380
038380
018380
01C700
01C700
00EE00
03EF80
03EF80
ENDCHAR
STARTCHAR 1F6F
ENCODING 8047
SWIDTH 495 0
DWIDTH 11 0
BBX 17 16 -6 0
BITMAP
380000
7C0000
C47C00
30FE00
39C700
11C300
0B8380
038380
038380
038380
018380
01C700
01C700
00EE00
03EF80
03EF80
ENDCHAR
STARTCHAR 1F70
ENCODING 8048
SWIDTH 495 0
DWIDTH 11 0
BBX 10 15 1 0
BITMAP
1000
1C00
1E00
0600
0000
3F00
7F80
E380
E380
E380
E380
E380
E380
7FC0
3D80
ENDCHAR
STARTCHAR 1F71
ENCODING 8049
SWIDTH 495 0
DWIDTH 11 0
BBX 10 15 1 0
BITMAP
0600
0E00
3C00
1000
0000
3F00
7F80
E380
E380
E380
E380
E380
E380
7FC0
3D80
ENDCHAR
STARTCHAR 1F72
ENCODING 8050
SWIDTH 495 0
DWIDTH 11 0
BBX 9 15 1 0
BITMAP
1000
1C00
1E00
0600
0000
3F80
7F00
6000
6000
7E00
7E00
6000
E100
7F80
3F00
ENDCHAR
STARTCHAR 1F73
ENCODING 8051
SWIDTH 495 0
DWIDTH 11 0
BBX 9 15 1 0
BITMAP
0600
0E00
3C00
1000
0000
3F80
7F00
6000
6000
7E00
7E00
6000
E100
7F80
3F00
ENDCHAR
STARTCHAR 1F74
ENCODING 8052
SWIDTH 495 0
DWIDTH 11 0
BBX 9 19 1 -4
BITMAP
1000
1C00
1E00
0600
0000
FE00
FF00
E300
E380
E380
E380
E380
E380
E380
E380
0380
0380
0380
0380
ENDCHAR
STARTCHAR 1F75
ENCODING 8053
SWIDTH 495 0
DWIDTH 11 0
BBX 9 19 1 -4
BITMAP
0600
0E00
3C00
1000
0000
FE00
FF00
E300
E380
E380
E380
E380
E380
E380
E380
0380
0380
0380
0380
ENDCHAR
STARTCHAR 1F76
ENCODING 8054
SWIDTH 495 0
DWIDTH 11 0
BBX 9 15 1 0
BITMAP
1000
1C00
1E00
0600
0000
F800
F800
1800
1800
1800
1800
1800
1C00
1F80
0F80
ENDCHAR
STARTCHAR 1F77
ENCODING 8055
SWIDTH 495 0
DWIDTH 11 0
BBX 9 15 1 0
BITMAP
0600
0E00
3C00
1000
0000
F800
F800
1800
1800
1800
1800
1800
1C00
1F80
0F80
ENDCHAR
STARTCHAR 1F78
ENCODING 8056
SWIDTH 495 0
DWIDTH 11 0
BBX 9 15 1 0
BITMAP
1000
1C00
1E00
0600
0000
3E00
7F00
E380
E380
C180
C180
E380
E380
7F00
3E00
ENDCHAR
STARTCHAR 1F79
ENCODING 8057
SWIDTH 495 0
DWIDTH 11 0
BBX 9 15 1 0
BITMAP
0600
0E00
3C00
1000
0000
3E00
7F00
E380
E380
C180
C180
E380
E380
7F00
3E00
ENDCHAR
STARTCHAR 1F7A
ENCODING 8058
SWIDTH 495 0
DWIDTH 11 0
BBX 9 15 1 0
BITMAP
1000
1C00
1E00
0600
0000
E380
E380
E380
E380
E380
E380
E380
E380
7F00
3E00
ENDCHAR
STARTCHAR 1F7B
ENCODING 8059
SWIDTH 495 0
DWIDTH 11 0
BBX 9 15 1 0
BITMAP
0600
0E00
3C00
1000
0000
E380
E380
E380
E380
E380
E380
E380
E380
7F00
3E00
ENDCHAR
STARTCHAR 1F7C
ENCODING 8060
SWIDTH 495 0
DWIDTH 11 0
BBX 9 15 1 0
BITMAP
1000
1C00
1E00
0600
0000
4100
6300
E180
DD80
DD80
DD80
DD80
DD80
F780
7700
ENDCHAR
STARTCHAR 1F7D
ENCODING 8061
SWIDTH 495 0
DWIDTH 11 0
BBX 9 15 1 0
BITMAP
0600
0E00
3C00
1000
0000
4100
6300
E180
DD80
DD80
DD80
DD80
DD80
F780
7700
ENDCHAR
STARTCHAR 1F80
ENCODING 8064
SWIDTH 495 0
DWIDTH 11 0
BBX 10 21 1 -4
BITMAP
0C00
1C00
0C00
1800
1000
0000
0000
3F00
7F80
E380
E380
E380
E380
E380
E380
7FC0
3D80
0000
1800
1C00
1C00
ENDCHAR
STARTCHAR 1F81
ENCODING 8065
SWIDTH 495 0
DWIDTH 11 0
BBX 10 20 1 -4
BITMAP
1800
1C00
1800
0C00
0400
0000
3F00
7F80
E380
E380
E380
E380
E380
E380
7FC0
3D80
0000
1800
1C00
1C00
ENDCHAR
STARTCHAR 1F82
ENCODING 8066
SWIDTH 495 0
DWIDTH 11 0
BBX 10 21 1 -4
BITMAP
3200
7700
3300
2180
4100
0000
0000
3F00
7F80
E380
E380
E380
E380
E380
E380
7FC0
3D80
0000
1800
1C00
1C00
ENDCHAR
STARTCHAR 1F83
ENCODING 8067
SWIDTH 495 0
DWIDTH 11 0
BBX 10 20 1 -4
BITMAP
6400
6E00
6600
2300
3100
0000
3F00
7F80
E380
E380
E380
E380
E380
E380
7FC0
3D80
0000
1800
1C00
1C00
ENDCHAR
STARTCHAR 1F84
ENCODING 8068
SWIDTH 495 0
DWIDTH 11 0
BBX 10 21 1 -4
BITMAP
3100
3300
3700
3600
6400
0000
0000
3F00
7F80
E380
E380
E380
E380
E380
E380
7FC0
3D80
0000
1800
1C00
1C00
ENDCHAR
STARTCHAR 1F85
ENCODING 8069
SWIDTH 495 0
DWIDTH 11 0
BBX 10 20 1 -4
BITMAP
6100
7380
6300
3600
1400
0000
3F00
7F80
E380
E380
E380
E380
E380
E380
7FC0
3D80
0000
1800
1C00
1C00
ENDCHAR
STARTCHAR 1F86
ENCODING 8070
SWIDTH 495 0
DWIDTH 11 0
BBX 10 22 1 -4
BITMAP
1C00
3E00
6300
1800
1C00
0800
1000
0000
3F00
7F80
E380
E380
E380
E380
E380
E380
7FC0
3D80
0000
1800
1C00
1C00
ENDCHAR
STARTCHAR 1F87
ENCODING 8071
SWIDTH 495 0
DWIDTH 11 0
BBX 10 22 1 -4
BITMAP
1C00
3E00
6300
0C00
1C00
0800
0400
0000
3F00
7F80
E380
E380
E380
E380
E380
E380
7FC0
3D80
0000
1800
1C00
1C00
ENDCHAR
STARTCHAR 1F88
ENCODING 8072
SWIDTH 495 0
DWIDTH 11 0
BBX 13 15 -2 0
BITMAP
6000
7F00
6F00
6F00
CF00
0F30
0FB0
19B0
19B0
19B0
1FB0
1FB0
19B0
39F8
31D8
ENDCHAR
STARTCHAR 1F89
ENCODING 8073
SWIDTH 495 0
DWIDTH 11 0
BBX 13 14 -2 0
BITMAP
CF00
EF00
CF00
6F00
2F30
0FB0
19B0
19B0
19B0
1FB0
1FB0
19B0
39F8
31D8
ENDCHAR
STARTCHAR 1F8A
ENCODING 8074
SWIDTH 495 0
DWIDTH 11 0
BBX 18 15 -7 0
BITMAP
640000
6E7800
667800
637800
C17800
007980
007D80
00CD80
00CD80
00CD80
00FD80
00FD80
00CD80
01CFC0
018EC0
ENDCHAR
STARTCHAR 1F8B
ENCODING 8075
SWIDTH 495 0
DWIDTH 11 0
BBX 17 14 -6 0
BITMAP
C8F000
DCF000
CCF000
C6F000
62F300
00FB00
019B00
019B00
019B00
01FB00
01FB00
019B00
039F80
031D80
ENDCHAR
STARTCHAR 1F8C
ENCODING 8076
SWIDTH 495 0
DWIDTH 11 0
BBX 17 15 -6 0
BITMAP
620000
67F000
66F000
6CF000
C8F000
00F300
00FB00
019B00
019B00
019B00
01FB00
01FB00
019B00
039F80
031D80
ENDCHAR
STARTCHAR 1F8D
ENCODING 8077
SWIDTH 495 0
DWIDTH 11 0
BBX 17 14 -6 0
BITMAP
C2F000
E7F000
C6F000
6CF000
28F300
00FB00
019B00
019B00
019B00
01FB00
01FB00
019B00
039F80
031D80
ENDCHAR
STARTCHAR 1F8E
ENCODING 8078
SWIDTH 495 0
DWIDTH 11 0
BBX 16 16 -5 0
BITMAP
3800
7C00
C5E0
31E0
39E0
31E0
21E6
01F6
0336
0336
0336
03F6
03F6
0336
073F
063B
ENDCHAR
STARTCHAR 1F8F
ENCODING 8079
SWIDTH 495 0
DWIDTH 11 0
BBX 16 16 -5 0
BITMAP
3800
7C00
C5E0
31E0
39E0
11E0
09E6
01F6
0336
0336
0336
03F6
03F6
0336
073F
063B
ENDCHAR
STARTCHAR 1F90
ENCODING 8080
SWIDTH 495 0
DWIDTH 11 0
BBX 9 21 1 -4
BITMAP
0C00
1C00
0C00
1800
1000
0000
0000
FE00
FF00
E300
E380
E380
E380
E380
E380
E380
E380
0380
6380
7380
7380
ENDCHAR
STARTCHAR 1F91
ENCODING 8081
SWIDTH 495 0
DWIDTH 11 0
BBX 9 20 1 -4
BITMAP
1800
1C00
1800
0C00
0400
0000
FE00
FF00
E300
E380
E380
E380
E380
E380
E380
E380
0380
6380
7380
7380
ENDCHAR
STARTCHAR 1F92
ENCODING 8082
SWIDTH 495 0
DWIDTH 11 0
BBX 9 21 1 -4
BITMAP
3200
7700
3300
2180
4100
0000
0000
FE00
FF00
E300
E380
E380
E380
E380
E380
E380
E380
0380
6380
7380
7380
ENDCHAR
STARTCHAR 1F93
ENCODING 8083
SWIDTH 495 0
DWIDTH 11 0
BBX 9 20 1 -4
BITMAP
6400
6E00
6600
2300
3100
0000
FE00
FF00
E300
E380
E380
E380
E380
E380
E380
E380
0380
6380
7380
7380
ENDCHAR
STARTCHAR 1F94
ENCODING 8084
SWIDTH 495 0
DWIDTH 11 0
BBX 9 21 1 -4
BITMAP
3100
3300
3700
3600
6400
0000
0000
FE00
FF00
E300
E380
E380
E380
E380
E380
E380
E380
0380
6380
7380
7380
ENDCHAR
STARTCHAR 1F95
ENCODING 8085
SWIDTH 495 0
DWIDTH 11 0
BBX 9 20 1 -4
BITMAP
6100
7380
6300
3600
1400
0000
FE00
FF00
E300
E380
E380
E380
E380
E380
E380
E380
0380
6380
7380
7380
ENDCHAR
STARTCHAR 1F96
ENCODING 8086
SWIDTH 495 0
DWIDTH 11 0
BBX 9 22 1 -4
BITMAP
1C00
3E00
6300
1800
1C00
0800
1000
0000
FE00
FF00
E300
E380
E380
E380
E380
E380
E380
E380
0380
6380
7380
7380
ENDCHAR
STARTCHAR 1F97
ENCODING 8087
SWIDTH 495 0
DWIDTH 11 0
BBX 9 22 1 -4
BITMAP
1C00
3E00
6300
0C00
1C00
0800
0400
0000
FE00
FF00
E300
E380
E380
E380
E380
E380
E380
E380
0380
6380
7380
7380
ENDCHAR
STARTCHAR 1F98
ENCODING 8088
SWIDTH 495 0
DWIDTH 11 0
BBX 14 15 -3 0
BITMAP
C000
FCC0
DCC0
DCC0
9CC0
1CD8
1CD8
1FD8
1FD8
1CD8
1CD8
1CD8
1CD8
1CDC
1CCC
ENDCHAR
STARTCHAR 1F99
ENCODING 8089
SWIDTH 495 0
DWIDTH 11 0
BBX 15 14 -4 0
BITMAP
6E60
EE60
6E60
6E60
3E6C
0E6C
0FEC
0FEC
0E6C
0E6C
0E6C
0E6C
0E6E
0E66
ENDCHAR
STARTCHAR 1F9A
ENCODING 8090
SWIDTH 495 0
DWIDTH 11 0
BBX 19 15 -8 0
BITMAP
640000
ECE600
66E600
47E600
82E600
00E6C0
00E6C0
00FEC0
00FEC0
00E6C0
00E6C0
00E6C0
00E6C0
00E6E0
00E660
ENDCHAR
STARTCHAR 1F9B
ENCODING 8091
SWIDTH 495 0
DWIDTH 11 0
BBX 19 14 -8 0
BITMAP
64E600
ECE600
46E600
67E600
22E6C0
00E6C0
00FEC0
00FEC0
00E6C0
00E6C0
00E6C0
00E6C0
00E6E0
00E660
ENDCHAR
STARTCHAR 1F9C
ENCODING 8092
SWIDTH 495 0
DWIDTH 11 0
BBX 18 15 -7 0
BITMAP
C40000
EFCC00
EDCC00
D9CC00
89CC00
01CD80
01CD80
01FD80
01FD80
01CD80
01CD80
01CD80
01CD80
01CDC0
01CCC0
ENDCHAR
STARTCHAR 1F9D
ENCODING 8093
SWIDTH 495 0
DWIDTH 11 0
BBX 19 14 -8 0
BITMAP
E2E600
E7E600
C6E600
6CE600
24E6C0
00E6C0
00FEC0
00FEC0
00E6C0
00E6C0
00E6C0
00E6C0
00E6E0
00E660
ENDCHAR
STARTCHAR 1F9E
ENCODING 8094
SWIDTH 495 0
DWIDTH 11 0
BBX 17 16 -6 0
BITMAP
780000
F80000
8F9800
339800
339800
339800
239B00
039B00
03FB00
03FB00
039B00
039B00
039B00
039B00
039B80
039980
ENDCHAR
STARTCHAR 1F9F
ENCODING 8095
SWIDTH 495 0
DWIDTH 11 0
BBX 17 16 -6 0
BITMAP
780000
F80000
8F9800
339800
339800
339800
139B00
039B00
03FB00
03FB00
039B00
039B00
039B00
039B00
039B80
039980
ENDCHAR
STARTCHAR 1FA0
ENCODING 8096
SWIDTH 495 0
DWIDTH 11 0
BBX 9 21 1 -4
BITMAP
0C00
1C00
0C00
1800
1000
0000
0000
4100
6300
E180
DD80
DD80
DD80
DD80
DD80
F780
7700
0000
1800
1E00
0E00
ENDCHAR
STARTCHAR 1FA1
ENCODING 8097
SWIDTH 495 0
DWIDTH 11 0
BBX 9 20 1 -4
BITMAP
1800
1C00
1800
0C00
0400
0000
4100
6300
E180
DD80
DD80
DD80
DD80
DD80
F780
7700
0000
1800
1E00
0E00
ENDCHAR
STARTCHAR 1FA2
ENCODING 8098
SWIDTH 495 0
DWIDTH 11 0
BBX 9 21 1 -4
BITMAP
3200
7700
3300
2180
4100
0000
0000
4100
6300
E180
DD80
DD80
DD80
DD80
DD80
F780
7700
0000
1800
1E00
0E00
ENDCHAR
STARTCHAR 1FA3
ENCODING 8099
SWIDTH 495 0
DWIDTH 11 0
BBX 9 20 1 -4
BITMAP
6400
6E00
6600
2300
3100
0000
4100
6300
E180
DD80
DD80
DD80
DD80
DD80
F780
7700
0000
1800
1E00
0E00
ENDCHAR
STARTCHAR 1FA4
ENCODING 8100
SWIDTH 495 0
DWIDTH 11 0
BBX 9 21 1 -4
BITMAP
3100
3300
3700
3600
6400
0000
0000
4100
6300
E180
DD80
DD80
DD80
DD80
DD80
F780
7700
0000
1800
1E00
0E00
ENDCHAR
STARTCHAR 1FA5
ENCODING 8101
SWIDTH 495 0
DWIDTH 11 0
BBX 9 20 1 -4
BITMAP
6100
7380
6300
3600
1400
0000
4100
6300
E180
DD80
DD80
DD80
DD80
DD80
F780
7700
0000
1800
1E00
0E00
ENDCHAR
STARTCHAR 1FA6
ENCODING 8102
SWIDTH 495 0
DWIDTH 11 0
BBX 9 22 1 -4
BITMAP
1C00
3E00
6300
1800
1C00
0800
1000
0000
4100
6300
E180
DD80
DD80
DD80
DD80
DD80
F780
7700
0000
1800
1E00
0E00
ENDCHAR
STARTCHAR 1FA7
ENCODING 8103
SWIDTH 495 0
DWIDTH 11 0
BBX 9 22 1 -4
BITMAP
1C00
3E00
6300
0C00
1C00
0800
0400
0000
4100
6300
E180
DD80
DD80
DD80
DD80
DD80
F780
7700
0000
1800
1E00
0E00
ENDCHAR
STARTCHAR 1FA8
ENCODING 8104
SWIDTH 495 0
DWIDTH 11 0
BBX 14 15 -3 0
BITMAP
6000
E700
6F80
CDC0
8CC0
1CD8
18D8
18D8
1CD8
0CD8
0CD8
0CD8
0D98
1DDC
1DCC
ENDCHAR
STARTCHAR 1FA9
ENCODING 8105
SWIDTH 495 0
DWIDTH 11 0
BBX 15 14 -4 0
BITMAP
E380
E7C0
C6E0
6660
2E6C
0C6C
0C6C
0E6C
066C
066C
066C
06CC
0EEE
0EE6
ENDCHAR
STARTCHAR 1FAA
ENCODING 8106
SWIDTH 495 0
DWIDTH 11 0
BBX 19 15 -8 0
BITMAP
E40000
EC3800
E67C00
466E00
826600
00E6C0
00C6C0
00C6C0
00E6C0
0066C0
0066C0
0066C0
006CC0
00EEE0
00EE60
ENDCHAR
STARTCHAR 1FAB
ENCODING 8107
SWIDTH 495 0
DWIDTH 11 0
BBX 19 14 -8 0
BITMAP
E43800
EC7C00
C66E00
666600
22E6C0
00C6C0
00C6C0
00E6C0
0066C0
0066C0
0066C0
006CC0
00EEE0
00EE60
ENDCHAR
STARTCHAR 1FAC
ENCODING 8108
SWIDTH 495 0
DWIDTH 11 0
BBX 18 15 -7 0
BITMAP
620000
777000
66F800
6CDC00
C8CC00
01CD80
018D80
018D80
01CD80
00CD80
00CD80
00CD80
00D980
01DDC0
01DCC0
ENDCHAR
STARTCHAR 1FAD
ENCODING 8109
SWIDTH 495 0
DWIDTH 11 0
BBX 18 14 -7 0
BITMAP
C27000
E7F800
C6DC00
6CCC00
29CD80
018D80
018D80
01CD80
00CD80
00CD80
00CD80
00D980
01DDC0
01DCC0
ENDCHAR
STARTCHAR 1FAE
ENCODING 8110
SWIDTH 495 0
DWIDTH 11 0
BBX 17 16 -6 0
BITMAP
380000
7C0000
C4E000
31F000
39B800
319800
239B00
031B00
031B00
039B00
019B00
019B00
019B00
01B300
03BB80
03B980
ENDCHAR
STARTCHAR 1FAF
ENCODING 8111
SWIDTH 495 0
DWIDTH 11 0
BBX 17 16 -6 0
BITMAP
380000
7C0000
C4E000
31F000
39B800
119800
0B9B00
031B00
031B00
039B00
019B00
019B00
019B00
01B300
03BB80
03B980
ENDCHAR
STARTCHAR 1FB0
ENCODING 8112
SWIDTH 495 0
DWIDTH 11 0
BBX 10 15 1 0
BITMAP
6300
3E00
1C00
0000
0000
3F00
7F80
E380
E380
E380
E380
E380
E380
7FC0
3D80
ENDCHAR
STARTCHAR 1FB1
ENCODING 8113
SWIDTH 495 0
DWIDTH 11 0
BBX 10 14 1 0
BITMAP
7F00
7F00
0000
0000
3F00
7F80
E380
E380
E380
E380
E380
E380
7FC0
3D80
ENDCHAR
STARTCHAR 1FB2
ENCODING 8114
SWIDTH 495 0
DWIDTH 11 0
BBX 10 19 1 -4
BITMAP
1000
1C00
1E00
0600
0000
3F00
7F80
E380
E380
E380
E380
E380
E380
7FC0
3D80
0000
1800
1C00
1C00
ENDCHAR
STARTCHAR 1FB3
ENCODING 8115
SWIDTH 495 0
DWIDTH 11 0
BBX 10 14 1 -4
BITMAP
3F00
7F80
E380
E380
E380
E380
E380
E380
7FC0
3D80
0000
1800
1C00
1C00
ENDCHAR
STARTCHAR 1FB4
ENCODING 8116
SWIDTH 495 0
DWIDTH 11 0
BBX 10 19 1 -4
BITMAP
0600
0E00
3C00
1000
0000
3F00
7F80
E380
E380
E380
E380
E380
E380
7FC0
3D80
0000
1800
1C00
1C00
ENDCHAR
STARTCHAR 1FB6
ENCODING 8118
SWIDTH 495 0
DWIDTH 11 0
BBX 10 15 1 0
BITMAP
1E00
3F00
3300
0000
0000
3F00
7F80
E380
E380
E380
E380
E380
E380
7FC0
3D80
ENDCHAR
STARTCHAR 1FB7
ENCODING 8119
SWIDTH 495 0
DWIDTH 11 0
BBX 10 19 1 -4
BITMAP
1E00
3F00
3300
0000
0000
3F00
7F80
E380
E380
E380
E380
E380
E380
7FC0
3D80
0000
1800
1C00
1C00
ENDCHAR
STARTCHAR 1FB8
ENCODING 8120
SWIDTH 495 0
DWIDTH 11 0
BBX 11 18 0 0
BITMAP
3180
1F00
0E00
0000
0E00
0E00
1F00
1B00
1B00
3B80
3B80
3180
3180
7FC0
7FC0
71C0
60C0
E0E0
ENDCHAR
STARTCHAR 1FB9
ENCODING 8121
SWIDTH 495 0
DWIDTH 11 0
BBX 11 17 0 0
BITMAP
3F80
3F80
0000
0E00
0E00
1F00
1B00
1B00
3B80
3B80
3180
3180
7FC0
7FC0
71C0
60C0
E0E0
ENDCHAR
STARTCHAR 1FBA
ENCODING 8122
SWIDTH 495 0
DWIDTH 11 0
BBX 14 14 -3 0
BITMAP
01C0
41C0
E3E0
F360
3360
0770
0770
0630
0630
0FF8
0FF8
0E38
0C18
1C1C
ENDCHAR
STARTCHAR 1FBB
ENCODING 8123
SWIDTH 495 0
DWIDTH 11 0
BBX 14 14 -3 0
BITMAP
01C0
11C0
3BE0
F360
4360
0770
0770
0630
0630
0FF8
0FF8
0E38
0C18
1C1C
ENDCHAR
STARTCHAR 1FBC
ENCODING 8124
SWIDTH 495 0
DWIDTH 11 0
BBX 11 14 0 0
BITMAP
3C00
3C00
3C00
3C00
3CC0
3EC0
66C0
66C0
66C0
7EC0
7EC0
66C0
E7E0
C760
ENDCHAR
STARTCHAR 1FBD
ENCODING 8125
SWIDTH 495 0
DWIDTH 11 0
BBX 3 5 4 12
BITMAP
60
E0
60
C0
80
ENDCHAR
STARTCHAR 1FBE
ENCODING 8126
SWIDTH 495 0
DWIDTH 11 0
BBX 3 3 4 -4
BITMAP
C0
E0
E0
ENDCHAR
STARTCHAR 1FBF
ENCODING 8127
SWIDTH 495 0
DWIDTH 11 0
BBX 3 5 4 12
BITMAP
60
E0
60
C0
80
ENDCHAR
STARTCHAR 1FC0
ENCODING 8128
SWIDTH 495 0
DWIDTH 11 0
BBX 7 3 2 12
BITMAP
38
7C
C6
ENDCHAR
STARTCHAR 1FC1
ENCODING 8129
SWIDTH 495 0
DWIDTH 11 0
BBX 7 6 2 12
BITMAP
38
7C
C6
00
EE
EE
ENDCHAR
STARTCHAR 1FC2
ENCODING 8130
SWIDTH 495 0
DWIDTH 11 0
BBX 9 19 1 -4
BITMAP
1000
1C00
0F00
0200
0000
FE00
FF00
E300
E380
E380
E380
E380
E380
E380
E380
0380
6380
7380
7380
ENDCHAR
STARTCHAR 1FC3
ENCODING 8131
SWIDTH 495 0
DWIDTH 11 0
BBX 9 14 1 -4
BITMAP
FE00
FF00
E300
E380
E380
E380
E380
E380
E380
E380
0380
6380
7380
7380
ENDCHAR
STARTCHAR 1FC4
ENCODING 8132
SWIDTH 495 0
DWIDTH 11 0
BBX 9 19 1 -4
BITMAP
0200
0E00
3C00
1000
0000
FE00
FF00
E300
E380
E380
E380
E380
E380
E380
E380
0380
6380
7380
7380
ENDCHAR
STARTCHAR 1FC6
ENCODING 8134
SWIDTH 495 0
DWIDTH 11 0
BBX 9 19 1 -4
BITMAP
1C00
3E00
6300
0000
0000
FE00
FF00
E300
E380
E380
E380
E380
E380
E380
E380
0380
0380
0380
0380
ENDCHAR
STARTCHAR 1FC7
ENCODING 8135
SWIDTH 495 0
DWIDTH 11 0
BBX 9 19 1 -4
BITMAP
1C00
3E00
6300
0000
0000
FE00
FF00
E300
E380
E380
E380
E380
E380
E380
E380
0380
6380
7380
7380
ENDCHAR
STARTCHAR 1FC8
ENCODING 8136
SWIDTH 495 0
DWIDTH 11 0
BBX 14 14 -4 0
BITMAP
07FC
47FC
E700
F700
3700
0700
07F8
07F8
0700
0700
0700
0700
07FC
07FC
ENDCHAR
STARTCHAR 1FC9
ENCODING 8137
SWIDTH 495 0
DWIDTH 11 0
BBX 14 14 -4 0
BITMAP
07FC
17FC
7700
F700
C700
0700
07F8
07F8
0700
0700
0700
0700
07FC
07FC
ENDCHAR
STARTCHAR 1FCA
ENCODING 8138
SWIDTH 495 0
DWIDTH 11 0
BBX 14 14 -4 0
BITMAP
071C
871C
E71C
F71C
271C
071C
07FC
07FC
071C
071C
071C
071C
071C
071C
ENDCHAR
STARTCHAR 1FCB
ENCODING 8139
SWIDTH 495 0
DWIDTH 11 0
BBX 15 14 -5 0
BITMAP
038E
138E
3B8E
F38E
438E
038E
03FE
03FE
038E
038E
038E
038E
038E
038E
ENDCHAR
STARTCHAR 1FCC
ENCODING 8140
SWIDTH 495 0
DWIDTH 11 0
BBX 11 14 0 0
BITMAP
E600
E600
E600
E600
E6C0
E6C0
FEC0
FEC0
E6C0
E6C0
E6C0
E6C0
E6E0
E660
ENDCHAR
STARTCHAR 1FCD
ENCODING 8141
SWIDTH 495 0
DWIDTH 11 0
BBX 7 5 2 12
BITMAP
C4
EC
EE
C6
82
ENDCHAR
STARTCHAR 1FCE
ENCODING 8142
SWIDTH 495 0
DWIDTH 11 0
BBX 7 5 2 12
BITMAP
64
E6
6C
5C
88
ENDCHAR
STARTCHAR 1FCF
ENCODING 8143
SWIDTH 495 0
DWIDTH 11 0
BBX 7 7 2 11
BITMAP
38
7C
C6
30
38
10
20
ENDCHAR
STARTCHAR 1FD0
ENCODING 8144
SWIDTH 495 0
DWIDTH 11 0
BBX 9 15 1 0
BITMAP
6600
7E00
3C00
0000
0000
F800
F800
1800
1800
1800
1800
1800
1C00
1F80
0F80
ENDCHAR
STARTCHAR 1FD1
ENCODING 8145
SWIDTH 495 0
DWIDTH 11 0
BBX 9 14 1 0
BITMAP
7E00
7E00
0000
0000
F800
F800
1800
1800
1800
1800
1800
1C00
1F80
0F80
ENDCHAR
STARTCHAR 1FD2
ENCODING 8146
SWIDTH 495 0
DWIDTH 11 0
BBX 10 16 0 0
BITMAP
0800
7D80
EDC0
6580
0400
0000
7C00
7C00
0C00
0C00
0C00
0C00
0C00
0E00
0FC0
07C0
ENDCHAR
STARTCHAR 1FD3
ENCODING 8147
SWIDTH 495 0
DWIDTH 11 0
BBX 10 16 0 0
BITMAP
0400
6780
EDC0
6D80
0800
0000
7C00
7C00
0C00
0C00
0C00
0C00
0C00
0E00
0FC0
07C0
ENDCHAR
STARTCHAR 1FD6
ENCODING 8150
SWIDTH 495 0
DWIDTH 11 0
BBX 9 15 1 0
BITMAP
3C00
7E00
6600
0000
0000
F800
F800
1800
1800
1800
1800
1800
1C00
1F80
0F80
ENDCHAR
STARTCHAR 1FD7
ENCODING 8151
SWIDTH 495 0
DWIDTH 11 0
BBX 9 18 1 0
BITMAP
3C00
7C00
4600
0000
E600
E600
0000
0000
F800
F800
1800
1800
1800
1800
1800
1C00
1F80
0F80
ENDCHAR
STARTCHAR 1FD8
ENCODING 8152
SWIDTH 495 0
DWIDTH 11 0
BBX 9 18 1 0
BITMAP
6300
3E00
1C00
0000
FF80
FF80
1C00
1C00
1C00
1C00
1C00
1C00
1C00
1C00
1C00
1C00
FF80
FF80
ENDCHAR
STARTCHAR 1FD9
ENCODING 8153
SWIDTH 495 0
DWIDTH 11 0
BBX 9 17 1 0
BITMAP
7F00
7F00
0000
FF80
FF80
1C00
1C00
1C00
1C00
1C00
1C00
1C00
1C00
1C00
1C00
FF80
FF80
ENDCHAR
STARTCHAR 1FDA
ENCODING 8154
SWIDTH 495 0
DWIDTH 11 0
BBX 14 14 -4 0
BITMAP
07FC
87FC
E0E0
F0E0
20E0
00E0
00E0
00E0
00E0
00E0
00E0
00E0
07FC
07FC
ENDCHAR
STARTCHAR 1FDB
ENCODING 8155
SWIDTH 495 0
DWIDTH 11 0
BBX 15 14 -5 0
BITMAP
03FE
13FE
7070
F070
4070
0070
0070
0070
0070
0070
0070
0070
03FE
03FE
ENDCHAR
STARTCHAR 1FDD
ENCODING 8157
SWIDTH 495 0
DWIDTH 11 0
BBX 7 5 2 11
BITMAP
C8
DC
CC
46
62
ENDCHAR
STARTCHAR 1FDE
ENCODING 8158
SWIDTH 495 0
DWIDTH 11 0
BBX 7 5 2 11
BITMAP
C4
C6
CE
CC
68
ENDCHAR
STARTCHAR 1FDF
ENCODING 8159
SWIDTH 495 0
DWIDTH 11 0
BBX 7 7 2 11
BITMAP
38
7C
C6
18
38
10
08
ENDCHAR
STARTCHAR 1FE0
ENCODING 8160
SWIDTH 495 0
DWIDTH 11 0
BBX 9 15 1 0
BITMAP
6300
3E00
1C00
0000
0000
E380
E380
E380
E380
E380
E380
E380
E380
7F00
3E00
ENDCHAR
STARTCHAR 1FE1
ENCODING 8161
SWIDTH 495 0
DWIDTH 11 0
BBX 9 14 1 0
BITMAP
7F00
7F00
0000
0000
E380
E380
E380
E380
E380
E380
E380
E380
7F00
3E00
ENDCHAR
STARTCHAR 1FE2
ENCODING 8162
SWIDTH 495 0
DWIDTH 11 0
BBX 9 16 1 0
BITMAP
1800
D980
FB80
CD80
0C00
0000
E380
E380
E380
E380
E380
E380
E380
E380
7F00
3E00
ENDCHAR
STARTCHAR 1FE3
ENCODING 8163
SWIDTH 495 0
DWIDTH 11 0
BBX 9 16 1 0
BITMAP
0C00
CD80
EF80
D980
1800
0000
E380
E380
E380
E380
E380
E380
E380
E380
7F00
3E00
ENDCHAR
STARTCHAR 1FE4
ENCODING 8164
SWIDTH 495 0
DWIDTH 11 0
BBX 9 21 1 -4
BITMAP
0C00
1C00
0C00
1800
1000
0000
0000
3E00
7F00
7380
E380
E180
E180
E380
E380
FF00
FE00
E000
E000
E000
E000
ENDCHAR
STARTCHAR 1FE5
ENCODING 8165
SWIDTH 495 0
DWIDTH 11 0
BBX 9 20 1 -4
BITMAP
1800
1C00
1800
0C00
0400
0000
3E00
7F00
7380
E380
E180
E180
E380
E380
FF00
FE00
E000
E000
E000
E000
ENDCHAR
STARTCHAR 1FE6
ENCODING 8166
SWIDTH 495 0
DWIDTH 11 0
BBX 9 15 1 0
BITMAP
1C00
3E00
6300
0000
0000
E380
E380
E380
E380
E380
E380
E380
E380
7F00
3E00
ENDCHAR
STARTCHAR 1FE7
ENCODING 8167
SWIDTH 495 0
DWIDTH 11 0
BBX 9 18 1 0
BITMAP
1C00
3E00
6300
0000
7700
7700
0000
0000
E380
E380
E380
E380
E380
E380
E380
E380
7F00
3E00
ENDCHAR
STARTCHAR 1FE8
ENCODING 8168
SWIDTH 495 0
DWIDTH 11 0
BBX 11 18 0 0
BITMAP
3180
1F00
0E00
0000
E0E0
71C0
71C0
3180
3B80
1B80
1F00
0F00
0E00
0E00
0E00
0E00
0E00
0E00
ENDCHAR
STARTCHAR 1FE9
ENCODING 8169
SWIDTH 495 0
DWIDTH 11 0
BBX 11 17 0 0
BITMAP
3F80
3F80
0000
E0E0
71C0
71C0
3180
3B80
1B80
1F00
0F00
0E00
0E00
0E00
0E00
0E00
0E00
ENDCHAR
STARTCHAR 1FEA
ENCODING 8170
SWIDTH 495 0
DWIDTH 11 0
BBX 15 14 -4 0
BITMAP
0E0E
471C
E71C
F318
33B8
01B8
01F0
00F0
00E0
00E0
00E0
00E0
00E0
00E0
ENDCHAR
STARTCHAR 1FEB
ENCODING 8171
SWIDTH 495 0
DWIDTH 11 0
BBX 16 14 -5 0
BITMAP
0707
138E
3B8E
F18C
41DC
00DC
00F8
0078
0070
0070
0070
0070
0070
0070
ENDCHAR
STARTCHAR 1FEC
ENCODING 8172
SWIDTH 495 0
DWIDTH 11 0
BBX 14 14 -4 0
BITMAP
67F0
E7F8
C71C
670C
270C
071C
071C
07F8
07F0
0700
0700
0700
0700
0700
ENDCHAR
STARTCHAR 1FED
ENCODING 8173
SWIDTH 495 0
DWIDTH 11 0
BBX 9 5 1 11
BITMAP
1800
D980
FB80
CD80
0C00
ENDCHAR
STARTCHAR 1FEE
ENCODING 8174
SWIDTH 495 0
DWIDTH 11 0
BBX 9 5 1 11
BITMAP
0C00
CD80
EF80
D980
1800
ENDCHAR
STARTCHAR 1FEF
ENCODING 8175
SWIDTH 495 0
DWIDTH 11 0
BBX 5 4 3 11
BITMAP
40
F0
78
10
ENDCHAR
STARTCHAR 1FF2
ENCODING 8178
SWIDTH 495 0
DWIDTH 11 0
BBX 9 19 1 -4
BITMAP
1000
3C00
1E00
0400
0000
4100
6300
E180
DD80
DD80
DD80
DD80
DD80
F780
7700
0000
1800
1E00
0E00
ENDCHAR
STARTCHAR 1FF3
ENCODING 8179
SWIDTH 495 0
DWIDTH 11 0
BBX 9 14 1 -4
BITMAP
4100
6300
E180
DD80
DD80
DD80
DD80
DD80
F780
7700
0000
1800
1E00
0E00
ENDCHAR
STARTCHAR 1FF4
ENCODING 8180
SWIDTH 495 0
DWIDTH 11 0
BBX 9 19 1 -4
BITMAP
0200
0F00
1E00
1800
0000
4100
6300
E180
DD80
DD80
DD80
DD80
DD80
F780
7700
0000
1800
1E00
0E00
ENDCHAR
STARTCHAR 1FF6
ENCODING 8182
SWIDTH 495 0
DWIDTH 11 0
BBX 9 15 1 0
BITMAP
1C00
3E00
6300
0000
0000
4100
6300
E180
DD80
DD80
DD80
DD80
DD80
F780
7700
ENDCHAR
STARTCHAR 1FF7
ENCODING 8183
SWIDTH 495 0
DWIDTH 11 0
BBX 9 19 1 -4
BITMAP
1C00
3E00
6300
0000
0000
4100
6300
E180
DD80
DD80
DD80
DD80
DD80
F780
7700
0000
1800
1E00
0E00
ENDCHAR
STARTCHAR 1FF8
ENCODING 8184
SWIDTH 495 0
DWIDTH 11 0
BBX 15 14 -5 0
BITMAP
00F8
41FC
E38E
7B8E
1306
0306
0306
0306
0306
0306
038E
038E
01FC
00F8
ENDCHAR
STARTCHAR 1FF9
ENCODING 8185
SWIDTH 495 0
DWIDTH 11 0
BBX 14 14 -4 0
BITMAP
01F0
13F8
771C
F71C
460C
060C
060C
060C
060C
060C
071C
071C
03F8
01F0
ENDCHAR
STARTCHAR 1FFA
ENCODING 8186
SWIDTH 495 0
DWIDTH 11 0
BBX 16 14 -5 0
BITMAP
00F8
81FC
E38E
F386
2707
0707
0707
0707
0307
038E
038E
01DC
07DF
07DF
ENDCHAR
STARTCHAR 1FFB
ENCODING 8187
SWIDTH 495 0
DWIDTH 11 0
BBX 16 14 -5 0
BITMAP
00F8
11FC
3B8E
FB86
4707
0707
0707
0707
0307
038E
038E
01DC
07DF
07DF
ENDCHAR
STARTCHAR 1FFC
ENCODING 8188
SWIDTH 495 0
DWIDTH 11 0
BBX 11 14 0 0
BITMAP
3800
7C00
6E00
6600
E6C0
C6C0
C6C0
E6C0
66C0
66C0
66C0
6CC0
EEE0
EE60
ENDCHAR
STARTCHAR 1FFD
ENCODING 8189
SWIDTH 495 0
DWIDTH 11 0
BBX 5 4 3 11
BITMAP
10
78
F0
40
ENDCHAR
STARTCHAR 1FFE
ENCODING 8190
SWIDTH 495 0
DWIDTH 11 0
BBX 3 5 4 11
BITMAP
C0
E0
C0
60
20
ENDCHAR
STARTCHAR 2013
ENCODING 8211
SWIDTH 495 0
DWIDTH 11 0
BBX 9 2 1 5
BITMAP
FF80
FF80
ENDCHAR
STARTCHAR 2014
ENCODING 8212
SWIDTH 495 0
DWIDTH 11 0
BBX 11 2 0 5
BITMAP
FFE0
FFE0
ENDCHAR
STARTCHAR 2015
ENCODING 8213
SWIDTH 495 0
DWIDTH 11 0
BBX 11 2 0 5
BITMAP
FFE0
FFE0
ENDCHAR
STARTCHAR 2018
ENCODING 8216
SWIDTH 495 0
DWIDTH 11 0
BBX 5 7 3 9
BITMAP
18
78
60
E0
F0
F0
60
ENDCHAR
STARTCHAR 2019
ENCODING 8217
SWIDTH 495 0
DWIDTH 11 0
BBX 5 7 3 9
BITMAP
30
78
78
38
38
F0
C0
ENDCHAR
STARTCHAR 201A
ENCODING 8218
SWIDTH 495 0
DWIDTH 11 0
BBX 5 7 3 -4
BITMAP
70
78
78
30
30
E0
C0
ENDCHAR
STARTCHAR 201C
ENCODING 8220
SWIDTH 495 0
DWIDTH 11 0
BBX 9 6 1 9
BITMAP
3180
7380
C600
E700
E700
E300
ENDCHAR
STARTCHAR 201D
ENCODING 8221
SWIDTH 495 0
DWIDTH 11 0
BBX 9 6 1 10
BITMAP
7380
7380
7380
3180
E700
C600
ENDCHAR
STARTCHAR 201E
ENCODING 8222
SWIDTH 495 0
DWIDTH 11 0
BBX 10 6 0 -4
BITMAP
1080
79C0
39C0
18C0
3180
E300
ENDCHAR
STARTCHAR 2020
ENCODING 8224
SWIDTH 495 0
DWIDTH 11 0
BBX 9 17 1 -3
BITMAP
1C00
1C00
1C00
1C00
FF80
FF80
1C00
1C00
1C00
1C00
1C00
1C00
1C00
1C00
1C00
0800
0800
ENDCHAR
STARTCHAR 2021
ENCODING 8225
SWIDTH 495 0
DWIDTH 11 0
BBX 9 17 1 -3
BITMAP
1C00
1C00
1C00
1C00
FF80
FF80
1C00
1C00
1C00
FF80
FF80
1C00
1C00
1C00
1800
1800
0800
ENDCHAR
STARTCHAR 2022
ENCODING 8226
SWIDTH 495 0
DWIDTH 11 0
BBX 5 6 3 4
BITMAP
70
F8
F8
F8
F8
70
ENDCHAR
STARTCHAR 2026
ENCODING 8230
SWIDTH 495 0
DWIDTH 11 0
BBX 9 2 1 0
BITMAP
DD80
DD80
ENDCHAR
STARTCHAR 2030
ENCODING 8240
SWIDTH 495 0
DWIDTH 11 0
BBX 11 14 0 0
BITMAP
7000
D000
D000
D060
5180
2600
1800
6000
39C0
2D60
2D60
2D60
2D60
39C0
ENDCHAR
STARTCHAR 2039
ENCODING 8249
SWIDTH 495 0
DWIDTH 11 0
BBX 5 10 3 0
BITMAP
10
38
38
70
F0
F0
70
38
38
10
ENDCHAR
STARTCHAR 203A
ENCODING 8250
SWIDTH 495 0
DWIDTH 11 0
BBX 5 10 4 1
BITMAP
40
E0
E0
70
78
78
70
E0
E0
40
ENDCHAR
STARTCHAR 2044
ENCODING 8260
SWIDTH 495 0
DWIDTH 11 0
BBX 9 14 1 0
BITMAP
0180
0380
0300
0700
0600
0C00
0C00
1800
1800
3000
7000
6000
E000
C000
ENDCHAR
STARTCHAR 2070
ENCODING 8304
SWIDTH 495 0
DWIDTH 11 0
BBX 7 9 2 6
BITMAP
38
7C
EE
D6
D6
C6
EE
7C
38
ENDCHAR
STARTCHAR 2074
ENCODING 8308
SWIDTH 495 0
DWIDTH 11 0
BBX 6 8 2 6
BITMAP
18
38
78
68
C8
FC
08
08
ENDCHAR
STARTCHAR 2075
ENCODING 8309
SWIDTH 495 0
DWIDTH 11 0
BBX 5 8 3 6
BITMAP
F8
F8
C0
F0
F8
18
F8
F0
ENDCHAR
STARTCHAR 2076
ENCODING 8310
SWIDTH 495 0
DWIDTH 11 0
BBX 6 8 2 6
BITMAP
1C
7C
60
FC
CC
CC
7C
78
ENDCHAR
STARTCHAR 2077
ENCODING 8311
SWIDTH 495 0
DWIDTH 11 0
BBX 6 8 2 6
BITMAP
FC
FC
0C
18
38
30
30
30
ENDCHAR
STARTCHAR 2078
ENCODING 8312
SWIDTH 495 0
DWIDTH 11 0
BBX 7 8 2 6
BITMAP
3C
6C
6C
7C
7C
C6
EE
7C
ENDCHAR
STARTCHAR 2079
ENCODING 8313
SWIDTH 495 0
DWIDTH 11 0
BBX 6 8 3 6
BITMAP
78
F8
CC
CC
FC
78
F8
E0
ENDCHAR
STARTCHAR 2080
ENCODING 8320
SWIDTH 495 0
DWIDTH 11 0
BBX 7 9 2 0
BITMAP
38
7C
EE
D6
D6
C6
EE
7C
38
ENDCHAR
STARTCHAR 2081
ENCODING 8321
SWIDTH 495 0
DWIDTH 11 0
BBX 6 8 3 0
BITMAP
30
F0
F0
30
30
30
FC
FC
ENDCHAR
STARTCHAR 2082
ENCODING 8322
SWIDTH 495 0
DWIDTH 11 0
BBX 5 8 3 0
BITMAP
70
F8
98
18
70
60
F8
F8
ENDCHAR
STARTCHAR 2083
ENCODING 8323
SWIDTH 495 0
DWIDTH 11 0
BBX 5 8 3 0
BITMAP
F0
F8
98
70
78
98
F8
F0
ENDCHAR
STARTCHAR 2084
ENCODING 8324
SWIDTH 495 0
DWIDTH 11 0
BBX 6 8 2 0
BITMAP
18
38
78
68
C8
FC
08
08
ENDCHAR
STARTCHAR 2085
ENCODING 8325
SWIDTH 495 0
DWIDTH 11 0
BBX 5 8 3 0
BITMAP
F8
F8
C0
F0
F8
18
F8
F0
ENDCHAR
STARTCHAR 2086
ENCODING 8326
SWIDTH 495 0
DWIDTH 11 0
BBX 6 8 2 0
BITMAP
1C
7C
60
FC
CC
CC
7C
78
ENDCHAR
STARTCHAR 2087
ENCODING 8327
SWIDTH 495 0
DWIDTH 11 0
BBX 6 8 2 0
BITMAP
FC
FC
0C
18
38
30
30
30
ENDCHAR
STARTCHAR 2088
ENCODING 8328
SWIDTH 495 0
DWIDTH 11 0
BBX 7 8 2 0
BITMAP
3C
6C
6C
7C
7C
C6
EE
7C
ENDCHAR
STARTCHAR 2089
ENCODING 8329
SWIDTH 495 0
DWIDTH 11 0
BBX 6 8 3 0
BITMAP
78
F8
CC
CC
FC
78
F8
E0
ENDCHAR
STARTCHAR 20AC
ENCODING 8364
SWIDTH 495 0
DWIDTH 11 0
BBX 9 14 1 0
BITMAP
0F80
3F80
3800
7000
FF00
FF00
7000
FE00
FE00
7000
7000
3880
1F80
0F80
ENDCHAR
STARTCHAR 20AE
ENCODING 8366
SWIDTH 495 0
DWIDTH 11 0
BBX 9 14 1 0
BITMAP
FF80
FF80
1C00
1C00
1F00
1F00
3C00
7D00
5F00
1F00
7C00
7C00
5C00
1C00
ENDCHAR
STARTCHAR 20B4
ENCODING 8372
SWIDTH 495 0
DWIDTH 11 0
BBX 11 14 0 0
BITMAP
3F00
3F80
2180
01C0
FFE0
FFE0
0F00
1E00
FFE0
FFE0
7000
70C0
3FC0
1F80
ENDCHAR
STARTCHAR 20B9
ENCODING 8377
SWIDTH 495 0
DWIDTH 11 0
BBX 10 14 1 0
BITMAP
FFC0
FFC0
0600
FF80
FF80
0E00
FE00
FC00
E000
7000
3800
1C00
1E00
0E00
ENDCHAR
STARTCHAR 2113
ENCODING 8467
SWIDTH 495 0
DWIDTH 11 0
BBX 8 15 1 0
BITMAP
0E
13
31
31
33
33
32
34
38
30
70
F0
39
1F
0F
ENDCHAR
STARTCHAR 2116
ENCODING 8470
SWIDTH 495 0
DWIDTH 11 0
BBX 11 14 0 0
BITMAP
CDC0
CD60
EF60
EF60
EF60
ED60
FDC0
DC00
DFE0
DFE0
DC00
CC00
CC00
CC00
ENDCHAR
STARTCHAR 2122
ENCODING 8482
SWIDTH 495 0
DWIDTH 11 0
BBX 10 6 0 8
BITMAP
F640
26C0
25C0
2540
2440
2440
ENDCHAR
STARTCHAR 2126
ENCODING 8486
SWIDTH 495 0
DWIDTH 11 0
BBX 11 14 0 0
BITMAP
1F00
3F80
71C0
70C0
E0E0
E0E0
E0E0
E0E0
60E0
71C0
71C0
3B80
FBE0
FBE0
ENDCHAR
STARTCHAR 212E
ENCODING 8494
SWIDTH 495 0
DWIDTH 11 0
BBX 9 9 1 0
BITMAP
3E00
4100
8080
8080
FF80
8000
8000
4100
3E00
ENDCHAR
STARTCHAR 2153
ENCODING 8531
SWIDTH 495 0
DWIDTH 11 0
BBX 11 14 0 0
BITMAP
31C0
7180
B380
3300
3700
3600
0E00
0C00
1FC0
1860
39E0
3060
7060
63C0
ENDCHAR
STARTCHAR 2154
ENCODING 8532
SWIDTH 495 0
DWIDTH 11 0
BBX 11 14 0 0
BITMAP
70C0
F9C0
9980
3380
E300
FF00
0600
0E00
0FC0
1C60
1860
39E0
3060
73C0
ENDCHAR
STARTCHAR 2155
ENCODING 8533
SWIDTH 495 0
DWIDTH 11 0
BBX 11 14 0 0
BITMAP
30C0
7180
B180
3300
3300
3600
0600
0C00
0DE0
1980
18E0
3060
3060
63C0
ENDCHAR
STARTCHAR 2156
ENCODING 8534
SWIDTH 495 0
DWIDTH 11 0
BBX 11 14 0 0
BITMAP
70C0
F8C0
1980
3180
E300
FB00
0600
0600
0DE0
0D80
19C0
1860
3260
31C0
ENDCHAR
STARTCHAR 2157
ENCODING 8535
SWIDTH 495 0
DWIDTH 11 0
BBX 11 14 0 0
BITMAP
F0C0
18C0
1980
7980
1B00
FB00
0600
0600
0DE0
0D80
18E0
1860
3060
33C0
ENDCHAR
STARTCHAR 2158
ENCODING 8536
SWIDTH 495 0
DWIDTH 11 0
BBX 11 14 0 0
BITMAP
30C0
70C0
7180
D180
FB00
1300
0600
0600
0DE0
0D80
18E0
1860
3060
33C0
ENDCHAR
STARTCHAR 2159
ENCODING 8537
SWIDTH 495 0
DWIDTH 11 0
BBX 10 14 0 0
BITMAP
30C0
7180
B180
3300
3300
3600
0600
0C00
0DC0
1B00
1BC0
3240
3340
61C0
ENDCHAR
STARTCHAR 215A
ENCODING 8538
SWIDTH 495 0
DWIDTH 11 0
BBX 10 14 0 0
BITMAP
78C0
6180
7980
1B00
1B00
F600
0600
0C00
0DC0
1B00
1BC0
3240
3340
61C0
ENDCHAR
STARTCHAR 215B
ENCODING 8539
SWIDTH 495 0
DWIDTH 11 0
BBX 11 14 0 0
BITMAP
3180
7180
B300
3300
3600
3600
0C00
0C00
1BC0
1B60
3340
33E0
6260
63C0
ENDCHAR
STARTCHAR 215C
ENCODING 8540
SWIDTH 495 0
DWIDTH 11 0
BBX 11 14 0 0
BITMAP
F0C0
1980
7180
1B00
1B00
F600
0600
0C00
0DC0
1B60
1B60
33E0
3360
63C0
ENDCHAR
STARTCHAR 215D
ENCODING 8541
SWIDTH 495 0
DWIDTH 11 0
BBX 11 14 0 0
BITMAP
78C0
4180
7180
1B00
1B00
F600
0600
0C00
0DC0
1B60
1B60
33E0
3360
63C0
ENDCHAR
STARTCHAR 215E
ENCODING 8542
SWIDTH 495 0
DWIDTH 11 0
BBX 10 14 1 0
BITMAP
F300
3300
6600
6600
CC00
CC00
1800
1800
3380
36C0
66C0
67C0
C6C0
C780
ENDCHAR
STARTCHAR 2202
ENCODING 8706
SWIDTH 495 0
DWIDTH 11 0
BBX 9 15 1 0
BITMAP
7C00
7E00
0700
0300
0380
3F80
7F80
E380
C380
C380
C380
C300
E700
7E00
3C00
ENDCHAR
STARTCHAR 2206
ENCODING 8710
SWIDTH 495 0
DWIDTH 11 0
BBX 11 14 0 0
BITMAP
0E00
0E00
1F00
1B00
1B00
3B80
3B80
3180
3180
71C0
71C0
71C0
7FC0
FFE0
ENDCHAR
STARTCHAR 220F
ENCODING 8719
SWIDTH 495 0
DWIDTH 11 0
BBX 9 16 1 -2
BITMAP
FF80
FF80
E380
E380
E380
E380
E380
E380
E380
E380
E380
E380
E380
E380
E380
E380
ENDCHAR
STARTCHAR 2211
ENCODING 8721
SWIDTH 495 0
DWIDTH 11 0
BBX 9 16 1 -2
BITMAP
FF80
FF80
E000
7000
3000
3800
1C00
0C00
1C00
1800
3800
7000
7000
E000
FF80
FF80
ENDCHAR
STARTCHAR 2212
ENCODING 8722
SWIDTH 495 0
DWIDTH 11 0
BBX 9 2 1 5
BITMAP
FF80
FF80
ENDCHAR
STARTCHAR 2215
ENCODING 8725
SWIDTH 495 0
DWIDTH 11 0
BBX 9 14 1 0
BITMAP
0180
0380
0300
0700
0600
0C00
0C00
1800
1800
3000
7000
6000
E000
C000
ENDCHAR
STARTCHAR 2219
ENCODING 8729
SWIDTH 495 0
DWIDTH 11 0
BBX 3 3 4 5
BITMAP
E0
E0
E0
ENDCHAR
STARTCHAR 221A
ENCODING 8730
SWIDTH 495 0
DWIDTH 11 0
BBX 11 15 0 0
BITMAP
00E0
00C0
01C0
01C0
01C0
0180
0380
3380
F300
7B00
3F00
1F00
1E00
0E00
0E00
ENDCHAR
STARTCHAR 221E
ENCODING 8734
SWIDTH 495 0
DWIDTH 11 0
BBX 11 6 0 3
BITMAP
3B80
7FC0
CE60
CE60
7FC0
3B80
ENDCHAR
STARTCHAR 222B
ENCODING 8747
SWIDTH 495 0
DWIDTH 11 0
BBX 9 19 1 -4
BITMAP
0780
0F80
1C00
1C00
1C00
1C00
1C00
1C00
1C00
1C00
1C00
1C00
1C00
1C00
1C00
1C00
1C00
F800
F000
ENDCHAR
STARTCHAR 2248
ENCODING 8776
SWIDTH 495 0
DWIDTH 11 0
BBX 10 9 1 1
BITMAP
7080
F9C0
FF80
CF80
7780
F9C0
FF80
CF80
0700
ENDCHAR
STARTCHAR 2260
ENCODING 8800
SWIDTH 495 0
DWIDTH 11 0
BBX 9 12 1 0
BITMAP
0200
0300
0700
FF80
FF80
0C00
1800
FF80
FF80
3000
6000
2000
ENDCHAR
STARTCHAR 2264
ENCODING 8804
SWIDTH 495 0
DWIDTH 11 0
BBX 9 12 1 0
BITMAP
0180
0780
3F80
FC00
E000
FC00
3F80
0F80
0180
0000
FF80
FF80
ENDCHAR
STARTCHAR 2265
ENCODING 8805
SWIDTH 495 0
DWIDTH 11 0
BBX 9 12 1 0
BITMAP
4000
F800
FE00
1F80
0380
1F80
7E00
F800
4000
0000
FF80
FF80
ENDCHAR
STARTCHAR 2500
ENCODING 9472
SWIDTH 495 0
DWIDTH 11 0
BBX 11 2 0 6
BITMAP
FFE0
FFE0
ENDCHAR
STARTCHAR 2502
ENCODING 9474
SWIDTH 495 0
DWIDTH 11 0
BBX 1 22 5 -4
BITMAP
80
80
80
80
80
80
80
80
80
80
80
80
80
80
80
80
80
80
80
80
80
80
ENDCHAR
STARTCHAR 250C
ENCODING 9484
SWIDTH 495 0
DWIDTH 11 0
BBX 6 12 5 -4
BITMAP
FC
FC
80
80
80
80
80
80
80
80
80
80
ENDCHAR
STARTCHAR 2510
ENCODING 9488
SWIDTH 495 0
DWIDTH 11 0
BBX 6 12 0 -4
BITMAP
FC
FC
04
04
04
04
04
04
04
04
04
04
ENDCHAR
STARTCHAR 2514
ENCODING 9492
SWIDTH 495 0
DWIDTH 11 0
BBX 6 12 5 6
BITMAP
80
80
80
80
80
80
80
80
80
80
FC
FC
ENDCHAR
STARTCHAR 2518
ENCODING 9496
SWIDTH 495 0
DWIDTH 11 0
BBX 6 12 0 6
BITMAP
04
04
04
04
04
04
04
04
04
04
FC
FC
ENDCHAR
STARTCHAR 251C
ENCODING 9500
SWIDTH 495 0
DWIDTH 11 0
BBX 6 22 5 -4
BITMAP
80
80
80
80
80
80
80
80
80
80
FC
FC
80
80
80
80
80
80
80
80
80
80
ENDCHAR
STARTCHAR 2524
ENCODING 9508
SWIDTH 495 0
DWIDTH 11 0
BBX 6 22 0 -4
BITMAP
04
04
04
04
04
04
04
04
04
04
FC
FC
04
04
04
04
04
04
04
04
04
04
ENDCHAR
STARTCHAR 252C
ENCODING 9516
SWIDTH 495 0
DWIDTH 11 0
BBX 11 12 0 -4
BITMAP
FFE0
FFE0
0400
0400
0400
0400
0400
0400
0400
0400
0400
0400
ENDCHAR
STARTCHAR 2534
ENCODING 9524
SWIDTH 495 0
DWIDTH 11 0
BBX 11 12 0 6
BITMAP
0400
0400
0400
0400
0400
0400
0400
0400
0400
0400
FFE0
FFE0
ENDCHAR
STARTCHAR 253C
ENCODING 9532
SWIDTH 495 0
DWIDTH 11 0
BBX 11 22 0 -4
BITMAP
0400
0400
0400
0400
0400
0400
0400
0400
0400
0400
FFE0
FFE0
0400
0400
0400
0400
0400
0400
0400
0400
0400
0400
ENDCHAR
STARTCHAR 2550
ENCODING 9552
SWIDTH 495 0
DWIDTH 11 0
BBX 11 6 0 4
BITMAP
FFE0
FFE0
0000
0000
FFE0
FFE0
ENDCHAR
STARTCHAR 2551
ENCODING 9553
SWIDTH 495 0
DWIDTH 11 0
BBX 5 22 3 -4
BITMAP
D8
D8
D8
D8
D8
D8
D8
D8
D8
D8
D8
D8
D8
D8
D8
D8
D8
D8
D8
D8
D8
D8
ENDCHAR
STARTCHAR 2552
ENCODING 9554
SWIDTH 495 0
DWIDTH 11 0
BBX 6 14 5 -4
BITMAP
FC
FC
00
00
FC
FC
80
80
80
80
80
80
80
80
ENDCHAR
STARTCHAR 2553
ENCODING 9555
SWIDTH 495 0
DWIDTH 11 0
BBX 8 12 3 -4
BITMAP
DF
DF
D8
D8
D8
D8
D8
D8
D8
D8
D8
D8
ENDCHAR
STARTCHAR 2554
ENCODING 9556
SWIDTH 495 0
DWIDTH 11 0
BBX 8 14 3 -4
BITMAP
FF
FF
C0
C0
DF
DF
D8
D8
D8
D8
D8
D8
D8
D8
ENDCHAR
STARTCHAR 2555
ENCODING 9557
SWIDTH 495 0
DWIDTH 11 0
BBX 6 14 0 -4
BITMAP
FC
FC
00
00
FC
FC
04
04
04
04
04
04
04
04
ENDCHAR
STARTCHAR 2556
ENCODING 9558
SWIDTH 495 0
DWIDTH 11 0
BBX 8 12 0 -4
BITMAP
FB
FB
1B
1B
1B
1B
1B
1B
1B
1B
1B
1B
ENDCHAR
STARTCHAR 2557
ENCODING 9559
SWIDTH 495 0
DWIDTH 11 0
BBX 8 14 0 -4
BITMAP
FF
FF
03
03
FB
FB
1B
1B
1B
1B
1B
1B
1B
1B
ENDCHAR
STARTCHAR 2558
ENCODING 9560
SWIDTH 495 0
DWIDTH 11 0
BBX 6 14 5 4
BITMAP
80
80
80
80
80
80
80
80
FC
FC
00
00
FC
FC
ENDCHAR
STARTCHAR 2559
ENCODING 9561
SWIDTH 495 0
DWIDTH 11 0
BBX 8 11 3 7
BITMAP
D8
D8
D8
D8
D8
D8
D8
D8
D8
DF
DF
ENDCHAR
STARTCHAR 255A
ENCODING 9562
SWIDTH 495 0
DWIDTH 11 0
BBX 8 14 3 4
BITMAP
D8
D8
D8
D8
D8
D8
D8
D8
DF
DF
C0
C0
FF
FF
ENDCHAR
STARTCHAR 255B
ENCODING 9563
SWIDTH 495 0
DWIDTH 11 0
BBX 6 14 0 4
BITMAP
04
04
04
04
04
04
04
04
FC
FC
00
00
FC
FC
ENDCHAR
STARTCHAR 255C
ENCODING 9564
SWIDTH 495 0
DWIDTH 11 0
BBX 8 11 0 7
BITMAP
1B
1B
1B
1B
1B
1B
1B
1B
1B
FB
FB
ENDCHAR
STARTCHAR 255D
ENCODING 9565
SWIDTH 495 0
DWIDTH 11 0
BBX 8 14 0 4
BITMAP
1B
1B
1B
1B
1B
1B
1B
1B
FB
FB
03
03
FF
FF
ENDCHAR
STARTCHAR 255E
ENCODING 9566
SWIDTH 495 0
DWIDTH 11 0
BBX 6 22 5 -4
BITMAP
80
80
80
80
80
80
80
80
FC
FC
00
00
FC
FC
80
80
80
80
80
80
80
80
ENDCHAR
STARTCHAR 255F
ENCODING 9567
SWIDTH 495 0
DWIDTH 11 0
BBX 8 22 3 -4
BITMAP
D8
D8
D8
D8
D8
D8
D8
D8
D8
D8
DF
DF
D8
D8
D8
D8
D8
D8
D8
D8
D8
D8
ENDCHAR
STARTCHAR 2560
ENCODING 9568
SWIDTH 495 0
DWIDTH 11 0
BBX 8 22 3 -4
BITMAP
D8
D8
D8
D8
D8
D8
D8
D8
DF
DF
C0
C0
DF
DF
D8
D8
D8
D8
D8
D8
D8
D8
ENDCHAR
STARTCHAR 2561
ENCODING 9569
SWIDTH 495 0
DWIDTH 11 0
BBX 6 22 0 -4
BITMAP
04
04
04
04
04
04
04
04
FC
FC
00
00
FC
FC
04
04
04
04
04
04
04
04
ENDCHAR
STARTCHAR 2562
ENCODING 9570
SWIDTH 495 0
DWIDTH 11 0
BBX 8 22 0 -4
BITMAP
1B
1B
1B
1B
1B
1B
1B
1B
1B
1B
FB
FB
1B
1B
1B
1B
1B
1B
1B
1B
1B
1B
ENDCHAR
STARTCHAR 2563
ENCODING 9571
SWIDTH 495 0
DWIDTH 11 0
BBX 8 22 0 -4
BITMAP
1B
1B
1B
1B
1B
1B
1B
1B
FB
FB
03
03
FB
FB
1B
1B
1B
1B
1B
1B
1B
1B
ENDCHAR
STARTCHAR 2564
ENCODING 9572
SWIDTH 495 0
DWIDTH 11 0
BBX 11 14 0 -4
BITMAP
FFE0
FFE0
0000
0000
FFE0
FFE0
0400
0400
0400
0400
0400
0400
0400
0400
ENDCHAR
STARTCHAR 2565
ENCODING 9573
SWIDTH 495 0
DWIDTH 11 0
BBX 11 12 0 -4
BITMAP
FFE0
FFE0
1B00
1B00
1B00
1B00
1B00
1B00
1B00
1B00
1B00
1B00
ENDCHAR
STARTCHAR 2566
ENCODING 9574
SWIDTH 495 0
DWIDTH 11 0
BBX 11 14 0 -4
BITMAP
FFE0
FFE0
0000
0000
FBE0
FBE0
1B00
1B00
1B00
1B00
1B00
1B00
1B00
1B00
ENDCHAR
STARTCHAR 2567
ENCODING 9575
SWIDTH 495 0
DWIDTH 11 0
BBX 11 14 0 4
BITMAP
0400
0400
0400
0400
0400
0400
0400
0400
FFE0
FFE0
0000
0000
FFE0
FFE0
ENDCHAR
STARTCHAR 2568
ENCODING 9576
SWIDTH 495 0
DWIDTH 11 0
BBX 11 12 0 6
BITMAP
1B00
1B00
1B00
1B00
1B00
1B00
1B00
1B00
1B00
1B00
FFE0
FFE0
ENDCHAR
STARTCHAR 2569
ENCODING 9577
SWIDTH 495 0
DWIDTH 11 0
BBX 11 14 0 4
BITMAP
1B00
1B00
1B00
1B00
1B00
1B00
1B00
1B00
FBE0
FBE0
0000
0000
FFE0
FFE0
ENDCHAR
STARTCHAR 256A
ENCODING 9578
SWIDTH 495 0
DWIDTH 11 0
BBX 11 22 0 -4
BITMAP
0400
0400
0400
0400
0400
0400
0400
0400
FFE0
FFE0
0400
0400
FFE0
FFE0
0400
0400
0400
0400
0400
0400
0400
0400
ENDCHAR
STARTCHAR 256B
ENCODING 9579
SWIDTH 495 0
DWIDTH 11 0
BBX 11 22 0 -4
BITMAP
1B00
1B00
1B00
1B00
1B00
1B00
1B00
1B00
1B00
1B00
FFE0
FFE0
1B00
1B00
1B00
1B00
1B00
1B00
1B00
1B00
1B00
1B00
ENDCHAR
STARTCHAR 256C
ENCODING 9580
SWIDTH 495 0
DWIDTH 11 0
BBX 11 22 0 -4
BITMAP
1B00
1B00
1B00
1B00
1B00
1B00
1B00
1B00
FBE0
FBE0
0000
0000
FBE0
FBE0
1B00
1B00
1B00
1B00
1B00
1B00
1B00
1B00
ENDCHAR
STARTCHAR 2588
ENCODING 9608
SWIDTH 495 0
DWIDTH 11 0
BBX 11 22 0 -4
BITMAP
FFE0
FFE0
FFE0
FFE0
FFE0
FFE0
FFE0
FFE0
FFE0
FFE0
FFE0
FFE0
FFE0
FFE0
FFE0
FFE0
FFE0
FFE0
FFE0
FFE0
FFE0
FFE0
ENDCHAR
STARTCHAR 2591
ENCODING 9617
SWIDTH 495 0
DWIDTH 11 0
BBX 11 21 0 -3
BITMAP
9120
2400
0000
9120
0000
2400
0000
0000
2400
0000
9120
0000
2400
9120
0000
2400
0000
9120
0000
2400
9120
ENDCHAR
STARTCHAR 2592
ENCODING 9618
SWIDTH 495 0
DWIDTH 11 0
BBX 11 21 0 -3
BITMAP
B520
4AC0
0000
B520
0000
4AC0
0000
0000
4AC0
0000
B520
0000
4AC0
B520
0000
4AC0
0000
B520
0000
4AC0
B520
ENDCHAR
STARTCHAR 2593
ENCODING 9619
SWIDTH 495 0
DWIDTH 11 0
BBX 11 22 0 -4
BITMAP
FFE0
FFE0
B560
FFE0
B560
FFE0
B560
FFE0
FFE0
B560
FFE0
B560
FFE0
FFE0
B560
FFE0
B560
FFE0
B560
FFE0
FFE0
B520
ENDCHAR
STARTCHAR 25CA
ENCODING 9674
SWIDTH 495 0
DWIDTH 11 0
BBX 9 14 1 0
BITMAP
0800
1C00
1C00
3E00
7700
6300
E380
E380
6300
7700
3E00
1C00
1C00
0800
ENDCHAR
STARTCHAR E0FF
ENCODING 57599
SWIDTH 495 0
DWIDTH 11 0
BBX 9 8 1 7
BITMAP
3E00
7900
7700
BD80
BF80
7D00
7700
3E00
ENDCHAR
STARTCHAR EFFD
ENCODING 61437
SWIDTH 495 0
DWIDTH 11 0
BBX 13 15 0 0
BITMAP
3800
7CF0
EFF8
C798
D6F0
C7F8
EF98
7DF8
38F0
0000
0000
0700
0780
0780
0700
ENDCHAR
STARTCHAR F000
ENCODING 61440
SWIDTH 495 0
DWIDTH 11 0
BBX 19 14 -4 0
BITMAP
7F1FC0
000020
008020
008020
008020
008020
000020
7F1FC0
800000
802000
80A020
802000
800000
7F1FC0
ENDCHAR
STARTCHAR F001
ENCODING 61441
SWIDTH 495 0
DWIDTH 11 0
BBX 11 15 0 0
BITMAP
1EC0
3DE0
30C0
3000
3000
FCC0
FCC0
30C0
30C0
30C0
30C0
30C0
30C0
30C0
30C0
ENDCHAR
STARTCHAR F002
ENCODING 61442
SWIDTH 495 0
DWIDTH 11 0
BBX 11 15 0 0
BITMAP
1FC0
3DC0
31C0
31C0
31C0
FDC0
FDC0
31C0
31C0
31C0
31C0
31C0
31C0
30E0
3060
ENDCHAR
STARTCHAR F506
ENCODING 62726
SWIDTH 495 0
DWIDTH 11 0
BBX 11 14 0 0
BITMAP
30C0
7180
B180
3300
3300
3600
0600
0C00
0DE0
1860
18C0
30C0
3080
6180
ENDCHAR
STARTCHAR F507
ENCODING 62727
SWIDTH 495 0
DWIDTH 11 0
BBX 11 14 0 0
BITMAP
70C0
F9C0
1980
3380
E300
FF00
0600
0E00
0DE0
1C60
18C0
38C0
3080
7180
ENDCHAR
STARTCHAR F508
ENCODING 62728
SWIDTH 495 0
DWIDTH 11 0
BBX 11 14 0 0
BITMAP
F0C0
19C0
1980
7B80
1B00
FF00
0600
0E00
0DE0
1C60
18C0
38C0
3080
7180
ENDCHAR
STARTCHAR F509
ENCODING 62729
SWIDTH 495 0
DWIDTH 11 0
BBX 11 14 0 0
BITMAP
30C0
70C0
5180
D180
FB00
1300
0600
0600
0DE0
0C60
18C0
18C0
3080
3180
ENDCHAR
STARTCHAR F50A
ENCODING 62730
SWIDTH 495 0
DWIDTH 11 0
BBX 11 14 0 0
BITMAP
78C0
41C0
7180
1B80
1B00
F700
0600
0E00
0DE0
1C60
18C0
38C0
3080
7180
ENDCHAR
STARTCHAR F50B
ENCODING 62731
SWIDTH 495 0
DWIDTH 11 0
BBX 11 14 0 0
BITMAP
38C0
61C0
F180
DB80
DB00
7700
0600
0E00
0DE0
1C60
18C0
38C0
3080
7180
ENDCHAR
STARTCHAR F50C
ENCODING 62732
SWIDTH 495 0
DWIDTH 11 0
BBX 11 14 0 0
BITMAP
31C0
7180
B380
3300
3700
3600
0E00
0C00
1DC0
1B60
3B60
31E0
70C0
6380
ENDCHAR
STARTCHAR F50D
ENCODING 62733
SWIDTH 495 0
DWIDTH 11 0
BBX 11 14 0 0
BITMAP
70C0
F9C0
1980
3380
E300
FF00
0600
0E00
0DC0
1F60
1B60
39E0
30C0
7380
ENDCHAR
STARTCHAR F50E
ENCODING 62734
SWIDTH 495 0
DWIDTH 11 0
BBX 11 14 0 0
BITMAP
30C0
71C0
5180
D380
FB00
1700
0600
0E00
0DC0
1F60
1B60
39E0
3040
7380
ENDCHAR
STARTCHAR F50F
ENCODING 62735
SWIDTH 495 0
DWIDTH 11 0
BBX 11 14 0 0
BITMAP
78C0
4180
7180
1B00
1B00
F600
0600
0C00
0DC0
1B60
1B60
31E0
30C0
6380
ENDCHAR
STARTCHAR F510
ENCODING 62736
SWIDTH 495 0
DWIDTH 11 0
BBX 10 14 1 0
BITMAP
F300
3300
6600
6600
CC00
CC00
1800
1800
3780
3480
64C0
6780
C180
C700
ENDCHAR
STARTCHAR F511
ENCODING 62737
SWIDTH 495 0
DWIDTH 11 0
BBX 11 14 0 0
BITMAP
70C0
D980
F980
FB00
DB00
7E00
0600
0C00
0DC0
1B60
1B60
31E0
3040
6380
ENDCHAR
STARTCHAR F80A
ENCODING 63498
SWIDTH 495 0
DWIDTH 11 0
BBX 7 9 2 8
BITMAP
38
7C
EE
D6
D6
C6
EE
7C
38
ENDCHAR
STARTCHAR F80B
ENCODING 63499
SWIDTH 495 0
DWIDTH 11 0
BBX 6 8 3 8
BITMAP
30
F0
F0
30
30
30
FC
FC
ENDCHAR
STARTCHAR F80C
ENCODING 63500
SWIDTH 495 0
DWIDTH 11 0
BBX 5 8 3 8
BITMAP
70
F8
98
18
70
60
F8
F8
ENDCHAR
STARTCHAR F80D
ENCODING 63501
SWIDTH 495 0
DWIDTH 11 0
BBX 5 8 3 8
BITMAP
F0
F8
98
70
78
98
F8
F0
ENDCHAR
STARTCHAR F80E
ENCODING 63502
SWIDTH 495 0
DWIDTH 11 0
BBX 6 8 2 8
BITMAP
18
38
78
68
C8
FC
08
08
ENDCHAR
STARTCHAR F80F
ENCODING 63503
SWIDTH 495 0
DWIDTH 11 0
BBX 5 8 3 8
BITMAP
F8
F8
C0
F0
F8
18
F8
F0
ENDCHAR
STARTCHAR F810
ENCODING 63504
SWIDTH 495 0
DWIDTH 11 0
BBX 6 8 2 8
BITMAP
1C
7C
60
FC
CC
CC
7C
78
ENDCHAR
STARTCHAR F811
ENCODING 63505
SWIDTH 495 0
DWIDTH 11 0
BBX 6 8 2 8
BITMAP
FC
FC
0C
18
38
30
30
30
ENDCHAR
STARTCHAR F812
ENCODING 63506
SWIDTH 495 0
DWIDTH 11 0
BBX 7 8 2 8
BITMAP
3C
6C
6C
7C
7C
C6
EE
7C
ENDCHAR
STARTCHAR F813
ENCODING 63507
SWIDTH 495 0
DWIDTH 11 0
BBX 6 8 3 8
BITMAP
78
F8
CC
CC
FC
78
F8
E0
ENDCHAR
STARTCHAR F814
ENCODING 63508
SWIDTH 495 0
DWIDTH 11 0
BBX 7 9 2 -2
BITMAP
38
7C
EE
D6
D6
C6
EE
7C
38
ENDCHAR
STARTCHAR F815
ENCODING 63509
SWIDTH 495 0
DWIDTH 11 0
BBX 6 8 3 -2
BITMAP
30
F0
F0
30
30
30
FC
FC
ENDCHAR
STARTCHAR F816
ENCODING 63510
SWIDTH 495 0
DWIDTH 11 0
BBX 5 8 3 -2
BITMAP
70
F8
98
18
70
60
F8
F8
ENDCHAR
STARTCHAR F817
ENCODING 63511
SWIDTH 495 0
DWIDTH 11 0
BBX 5 8 3 -2
BITMAP
F0
F8
98
70
78
98
F8
F0
ENDCHAR
STARTCHAR F818
ENCODING 63512
SWIDTH 495 0
DWIDTH 11 0
BBX 6 8 2 -2
BITMAP
18
38
78
68
C8
FC
08
08
ENDCHAR
STARTCHAR F819
ENCODING 63513
SWIDTH 495 0
DWIDTH 11 0
BBX 5 8 3 -2
BITMAP
F8
F8
C0
F0
F8
18
F8
F0
ENDCHAR
STARTCHAR F81A
ENCODING 63514
SWIDTH 495 0
DWIDTH 11 0
BBX 6 8 2 -2
BITMAP
1C
7C
60
FC
CC
CC
7C
78
ENDCHAR
STARTCHAR F81B
ENCODING 63515
SWIDTH 495 0
DWIDTH 11 0
BBX 6 8 2 -2
BITMAP
FC
FC
0C
18
38
30
30
30
ENDCHAR
STARTCHAR F81C
ENCODING 63516
SWIDTH 495 0
DWIDTH 11 0
BBX 7 8 2 -2
BITMAP
3C
6C
6C
7C
7C
C6
EE
7C
ENDCHAR
STARTCHAR F81D
ENCODING 63517
SWIDTH 495 0
DWIDTH 11 0
BBX 6 8 3 -2
BITMAP
78
F8
CC
CC
FC
78
F8
E0
ENDCHAR
STARTCHAR FB01
ENCODING 64257
SWIDTH 495 0
DWIDTH 11 0
BBX 11 15 0 0
BITMAP
1EC0
3DE0
30C0
3000
3000
FCC0
FCC0
30C0
30C0
30C0
30C0
30C0
30C0
30C0
30C0
ENDCHAR
STARTCHAR FB02
ENCODING 64258
SWIDTH 495 0
DWIDTH 11 0
BBX 11 15 0 0
BITMAP
1FC0
3DC0
31C0
31C0
31C0
FDC0
FDC0
31C0
31C0
31C0
31C0
31C0
31C0
30E0
3060
ENDCHAR
STARTCHAR FFFD
ENCODING 65533
SWIDTH 495 0
DWIDTH 11 0
BBX 9 10 1 0
BITMAP
0800
1C00
2200
7900
F380
F780
7F00
3600
1400
0800
ENDCHAR
ENDFONT
